<?xml version="1.0" encoding="UTF-8" standalone="no"?>
<!DOCTYPE svg PUBLIC "-//W3C//DTD SVG 1.1//EN" "http://www.w3.org/Graphics/SVG/1.1/DTD/svg11.dtd">
<svg width="100%" height="100%" viewBox="0 0 100 150" version="1.1" xmlns="http://www.w3.org/2000/svg" xmlns:xlink="http://www.w3.org/1999/xlink" xml:space="preserve" xmlns:serif="http://www.serif.com/" style="fill-rule:evenodd;clip-rule:evenodd;stroke-linecap:round;stroke-linejoin:round;stroke-miterlimit:1.5;">
    <path d="M100,0L100,150L0,150L0,90.581L100,0Z" style="fill:rgb(184,255,162);"/>
    <g transform="matrix(1,0,0,1,1.42109e-14,-56.0832)">
        <path d="M0,90.581L0,150L100,61.992L100,0" style="fill:rgb(136,230,108);"/>
    </g>
    <g transform="matrix(1,0,0,1,-3.24077,3.81194)">
        <g transform="matrix(12,0,0,12,11.8329,34.5934)">
            <path d="M0.63,-0.424C0.63,-0.345 0.609,-0.281 0.568,-0.232C0.524,-0.181 0.463,-0.155 0.385,-0.155C0.372,-0.155 0.352,-0.156 0.326,-0.157C0.3,-0.158 0.28,-0.159 0.267,-0.159C0.253,-0.159 0.246,-0.153 0.246,-0.141C0.246,-0.126 0.248,-0.104 0.25,-0.074C0.253,-0.045 0.255,-0.022 0.255,-0.008C0.255,-0 0.251,0.003 0.245,0.003C0.225,0.003 0.195,0.003 0.155,0.002C0.116,0.001 0.086,-0 0.066,-0C0.056,-0 0.052,-0.005 0.052,-0.014C0.052,-0.05 0.052,-0.105 0.053,-0.177C0.055,-0.249 0.055,-0.304 0.055,-0.34C0.055,-0.442 0.051,-0.549 0.042,-0.662L0.042,-0.669C0.041,-0.675 0.046,-0.679 0.056,-0.68C0.082,-0.683 0.138,-0.685 0.224,-0.685C0.275,-0.685 0.324,-0.684 0.371,-0.683C0.448,-0.681 0.51,-0.657 0.558,-0.61C0.606,-0.563 0.63,-0.501 0.63,-0.424ZM0.435,-0.416C0.435,-0.492 0.398,-0.53 0.324,-0.53C0.272,-0.53 0.245,-0.527 0.242,-0.521C0.24,-0.517 0.239,-0.479 0.239,-0.408C0.239,-0.398 0.239,-0.383 0.24,-0.364C0.241,-0.344 0.241,-0.329 0.241,-0.319C0.241,-0.312 0.271,-0.309 0.329,-0.309C0.4,-0.309 0.435,-0.345 0.435,-0.416Z" style="fill-rule:nonzero;"/>
        </g>
        <g transform="matrix(12,0,0,12,19.6552,34.5934)">
            <path d="M0.532,-0.244C0.532,-0.219 0.534,-0.182 0.537,-0.132C0.54,-0.083 0.541,-0.046 0.541,-0.021C0.541,-0.008 0.535,-0.001 0.524,-0C0.484,0.003 0.437,0.004 0.385,0.004C0.379,0.004 0.375,-0.005 0.373,-0.024C0.371,-0.042 0.368,-0.052 0.365,-0.052C0.363,-0.051 0.359,-0.048 0.355,-0.044C0.319,-0.007 0.279,0.011 0.238,0.011C0.174,0.011 0.122,-0.014 0.08,-0.064C0.041,-0.111 0.021,-0.167 0.021,-0.232C0.021,-0.307 0.041,-0.368 0.082,-0.414C0.124,-0.461 0.182,-0.485 0.256,-0.485C0.307,-0.485 0.347,-0.467 0.377,-0.431C0.378,-0.43 0.379,-0.429 0.38,-0.429C0.383,-0.429 0.387,-0.437 0.39,-0.452C0.394,-0.468 0.399,-0.476 0.404,-0.476C0.416,-0.476 0.439,-0.473 0.473,-0.466C0.505,-0.459 0.528,-0.454 0.542,-0.449C0.547,-0.447 0.549,-0.445 0.549,-0.441C0.549,-0.44 0.549,-0.437 0.548,-0.431C0.537,-0.372 0.532,-0.31 0.532,-0.244ZM0.375,-0.241C0.375,-0.269 0.366,-0.292 0.349,-0.31C0.331,-0.328 0.309,-0.337 0.281,-0.337C0.253,-0.337 0.23,-0.328 0.213,-0.31C0.196,-0.292 0.187,-0.269 0.187,-0.241C0.187,-0.215 0.196,-0.192 0.214,-0.173C0.233,-0.154 0.255,-0.145 0.281,-0.145C0.308,-0.145 0.331,-0.154 0.349,-0.172C0.366,-0.19 0.375,-0.213 0.375,-0.241Z" style="fill-rule:nonzero;"/>
        </g>
        <g transform="matrix(12,0,0,12,26.7099,34.5934)">
            <path d="M0.365,-0.304C0.365,-0.292 0.358,-0.285 0.344,-0.285C0.338,-0.285 0.329,-0.286 0.317,-0.286C0.305,-0.287 0.296,-0.288 0.291,-0.288C0.264,-0.288 0.245,-0.283 0.235,-0.275C0.226,-0.266 0.221,-0.249 0.221,-0.224C0.221,-0.21 0.221,-0.188 0.221,-0.16C0.222,-0.131 0.222,-0.11 0.222,-0.096C0.222,-0.087 0.223,-0.073 0.224,-0.054C0.225,-0.035 0.226,-0.021 0.226,-0.012C0.226,-0.004 0.221,-0 0.21,0.001C0.194,0.002 0.17,0.003 0.138,0.003C0.107,0.003 0.083,0.002 0.064,-0C0.053,-0.001 0.048,-0.007 0.048,-0.016C0.048,-0.042 0.048,-0.081 0.048,-0.133C0.049,-0.185 0.049,-0.224 0.049,-0.25C0.049,-0.326 0.042,-0.389 0.028,-0.439C0.027,-0.442 0.027,-0.444 0.027,-0.446C0.027,-0.451 0.029,-0.454 0.034,-0.456C0.052,-0.458 0.078,-0.462 0.113,-0.467C0.164,-0.477 0.191,-0.482 0.192,-0.482C0.198,-0.482 0.202,-0.472 0.204,-0.451C0.205,-0.431 0.208,-0.42 0.212,-0.42C0.208,-0.42 0.221,-0.429 0.252,-0.446C0.284,-0.463 0.314,-0.472 0.343,-0.472C0.361,-0.472 0.37,-0.468 0.37,-0.46C0.37,-0.451 0.369,-0.437 0.367,-0.42C0.365,-0.401 0.364,-0.388 0.364,-0.38C0.364,-0.37 0.364,-0.358 0.364,-0.342C0.365,-0.323 0.365,-0.31 0.365,-0.304Z" style="fill-rule:nonzero;"/>
        </g>
        <g transform="matrix(12,0,0,12,31.2802,34.5934)">
            <path d="M0.489,-0.265C0.489,-0.232 0.478,-0.214 0.457,-0.209C0.453,-0.208 0.42,-0.205 0.356,-0.198C0.318,-0.194 0.26,-0.189 0.184,-0.183C0.189,-0.162 0.202,-0.146 0.226,-0.135C0.244,-0.126 0.266,-0.121 0.29,-0.121C0.319,-0.121 0.348,-0.129 0.377,-0.145C0.39,-0.152 0.402,-0.16 0.415,-0.168C0.421,-0.165 0.433,-0.148 0.449,-0.118C0.465,-0.088 0.473,-0.069 0.473,-0.061C0.473,-0.059 0.471,-0.055 0.466,-0.05C0.426,-0.007 0.364,0.014 0.281,0.014C0.203,0.014 0.141,-0.008 0.093,-0.054C0.044,-0.1 0.02,-0.161 0.02,-0.238C0.02,-0.313 0.042,-0.374 0.085,-0.422C0.13,-0.471 0.19,-0.496 0.264,-0.496C0.327,-0.496 0.38,-0.473 0.423,-0.428C0.467,-0.382 0.489,-0.328 0.489,-0.265ZM0.318,-0.295C0.318,-0.315 0.311,-0.333 0.296,-0.348C0.282,-0.363 0.265,-0.371 0.245,-0.371C0.225,-0.371 0.208,-0.362 0.194,-0.345C0.182,-0.329 0.176,-0.311 0.176,-0.289C0.176,-0.28 0.18,-0.276 0.189,-0.276C0.214,-0.276 0.251,-0.28 0.302,-0.287C0.313,-0.289 0.318,-0.291 0.318,-0.295Z" style="fill-rule:nonzero;"/>
        </g>
        <g transform="matrix(12,0,0,12,37.2919,34.5934)">
            <path d="M0.527,-0.014C0.527,-0.005 0.522,-0 0.513,0.001C0.504,0.002 0.48,0.003 0.442,0.003C0.401,0.003 0.375,0.002 0.366,-0C0.356,-0.002 0.351,-0.009 0.351,-0.02C0.351,-0.035 0.352,-0.058 0.353,-0.089C0.354,-0.12 0.354,-0.144 0.354,-0.159C0.354,-0.171 0.354,-0.189 0.353,-0.213C0.352,-0.237 0.352,-0.255 0.352,-0.267C0.352,-0.312 0.333,-0.334 0.294,-0.334C0.281,-0.334 0.266,-0.328 0.25,-0.317C0.231,-0.305 0.222,-0.293 0.222,-0.281L0.222,-0.017C0.222,-0.006 0.217,-0 0.207,0.001C0.196,0.002 0.172,0.003 0.137,0.003C0.099,0.003 0.074,0.002 0.063,-0C0.053,-0.002 0.048,-0.007 0.048,-0.016C0.048,-0.042 0.048,-0.08 0.048,-0.131C0.049,-0.182 0.049,-0.22 0.049,-0.246C0.049,-0.327 0.042,-0.391 0.03,-0.437C0.029,-0.44 0.029,-0.442 0.029,-0.444C0.029,-0.45 0.031,-0.453 0.036,-0.455C0.057,-0.457 0.084,-0.461 0.118,-0.466C0.17,-0.476 0.199,-0.481 0.206,-0.481C0.209,-0.481 0.212,-0.47 0.214,-0.448C0.216,-0.426 0.219,-0.415 0.222,-0.415C0.219,-0.415 0.236,-0.426 0.275,-0.449C0.313,-0.472 0.347,-0.483 0.376,-0.483C0.417,-0.483 0.452,-0.473 0.479,-0.454C0.51,-0.431 0.526,-0.4 0.526,-0.36L0.526,-0.204C0.526,-0.183 0.526,-0.151 0.526,-0.109C0.527,-0.067 0.527,-0.035 0.527,-0.014Z" style="fill-rule:nonzero;"/>
        </g>
        <g transform="matrix(12,0,0,12,44.0946,34.5934)">
            <path d="M0.368,-0.143C0.368,-0.133 0.367,-0.118 0.365,-0.099C0.362,-0.079 0.361,-0.064 0.361,-0.055C0.361,-0.046 0.36,-0.04 0.358,-0.037C0.356,-0.035 0.351,-0.031 0.342,-0.026C0.3,-0.003 0.253,0.009 0.202,0.009C0.108,0.009 0.061,-0.027 0.061,-0.099C0.061,-0.121 0.062,-0.153 0.063,-0.196C0.065,-0.239 0.066,-0.271 0.066,-0.293C0.066,-0.307 0.058,-0.314 0.041,-0.314L0.035,-0.314C0.032,-0.314 0.03,-0.314 0.028,-0.314C0.016,-0.314 0.01,-0.318 0.01,-0.327C0.01,-0.332 0.01,-0.34 0.011,-0.351C0.012,-0.362 0.012,-0.37 0.012,-0.375C0.012,-0.382 0.012,-0.392 0.011,-0.406C0.01,-0.42 0.01,-0.431 0.01,-0.438C0.01,-0.444 0.02,-0.448 0.041,-0.448C0.053,-0.449 0.059,-0.452 0.06,-0.458C0.062,-0.47 0.063,-0.49 0.062,-0.517C0.061,-0.559 0.06,-0.579 0.06,-0.577C0.06,-0.614 0.064,-0.633 0.071,-0.633C0.08,-0.633 0.092,-0.631 0.108,-0.627C0.127,-0.623 0.14,-0.621 0.147,-0.62C0.164,-0.618 0.189,-0.615 0.222,-0.611C0.23,-0.61 0.234,-0.607 0.234,-0.603C0.234,-0.59 0.233,-0.57 0.231,-0.543C0.229,-0.517 0.228,-0.497 0.228,-0.484C0.228,-0.468 0.233,-0.46 0.242,-0.46C0.254,-0.46 0.271,-0.46 0.294,-0.461C0.317,-0.462 0.334,-0.463 0.346,-0.463C0.353,-0.463 0.357,-0.46 0.357,-0.456C0.357,-0.448 0.356,-0.437 0.354,-0.422C0.353,-0.407 0.352,-0.396 0.352,-0.388L0.353,-0.32C0.353,-0.313 0.348,-0.31 0.339,-0.31L0.273,-0.311L0.237,-0.311C0.232,-0.311 0.229,-0.304 0.229,-0.29L0.229,-0.255C0.23,-0.239 0.23,-0.228 0.23,-0.22C0.23,-0.193 0.233,-0.174 0.239,-0.164C0.248,-0.15 0.265,-0.143 0.291,-0.143C0.299,-0.143 0.311,-0.144 0.326,-0.148C0.341,-0.152 0.352,-0.154 0.358,-0.154C0.365,-0.154 0.368,-0.15 0.368,-0.143Z" style="fill-rule:nonzero;"/>
        </g>
        <g transform="matrix(12,0,0,12,51.6298,34.5934)">
            <path d="M0.615,-0.11C0.615,-0.105 0.612,-0.098 0.605,-0.09C0.545,-0.019 0.465,0.017 0.366,0.017C0.265,0.017 0.182,-0.018 0.119,-0.087C0.058,-0.154 0.027,-0.239 0.027,-0.341C0.027,-0.44 0.057,-0.524 0.117,-0.593C0.18,-0.665 0.26,-0.701 0.357,-0.701C0.462,-0.701 0.545,-0.669 0.605,-0.604C0.611,-0.597 0.615,-0.59 0.615,-0.585C0.615,-0.579 0.603,-0.556 0.581,-0.516C0.558,-0.476 0.544,-0.454 0.538,-0.449C0.535,-0.447 0.532,-0.445 0.528,-0.445C0.527,-0.445 0.519,-0.452 0.504,-0.465C0.486,-0.48 0.469,-0.493 0.452,-0.501C0.426,-0.514 0.4,-0.521 0.372,-0.521C0.324,-0.521 0.286,-0.503 0.257,-0.467C0.231,-0.434 0.218,-0.393 0.218,-0.344C0.218,-0.295 0.231,-0.253 0.257,-0.22C0.286,-0.183 0.324,-0.165 0.372,-0.165C0.4,-0.165 0.427,-0.171 0.453,-0.184C0.469,-0.192 0.486,-0.203 0.503,-0.218C0.518,-0.23 0.526,-0.236 0.527,-0.236C0.531,-0.236 0.534,-0.235 0.537,-0.231C0.542,-0.225 0.556,-0.205 0.58,-0.17C0.603,-0.134 0.615,-0.114 0.615,-0.11Z" style="fill-rule:nonzero;"/>
        </g>
        <g transform="matrix(12,0,0,12,59.1063,34.5934)">
            <path d="M0.511,-0.24C0.511,-0.166 0.489,-0.106 0.443,-0.06C0.398,-0.013 0.338,0.01 0.264,0.01C0.193,0.01 0.134,-0.013 0.087,-0.059C0.041,-0.104 0.018,-0.163 0.018,-0.234C0.018,-0.31 0.04,-0.371 0.084,-0.418C0.129,-0.465 0.189,-0.489 0.264,-0.489C0.338,-0.489 0.397,-0.466 0.443,-0.42C0.488,-0.374 0.511,-0.314 0.511,-0.24ZM0.351,-0.24C0.351,-0.266 0.343,-0.289 0.327,-0.308C0.311,-0.328 0.291,-0.338 0.265,-0.338C0.239,-0.338 0.218,-0.328 0.202,-0.308C0.186,-0.289 0.178,-0.266 0.178,-0.24C0.178,-0.214 0.186,-0.191 0.202,-0.172C0.218,-0.152 0.239,-0.142 0.265,-0.142C0.291,-0.142 0.312,-0.152 0.328,-0.172C0.343,-0.191 0.351,-0.214 0.351,-0.24Z" style="fill-rule:nonzero;"/>
        </g>
        <g transform="matrix(12,0,0,12,65.4521,34.5934)">
            <path d="M0.527,-0.014C0.527,-0.005 0.522,-0 0.513,0.001C0.504,0.002 0.48,0.003 0.442,0.003C0.401,0.003 0.375,0.002 0.366,-0C0.356,-0.002 0.351,-0.009 0.351,-0.02C0.351,-0.035 0.352,-0.058 0.353,-0.089C0.354,-0.12 0.354,-0.144 0.354,-0.159C0.354,-0.171 0.354,-0.189 0.353,-0.213C0.352,-0.237 0.352,-0.255 0.352,-0.267C0.352,-0.312 0.333,-0.334 0.294,-0.334C0.281,-0.334 0.266,-0.328 0.25,-0.317C0.231,-0.305 0.222,-0.293 0.222,-0.281L0.222,-0.017C0.222,-0.006 0.217,-0 0.207,0.001C0.196,0.002 0.172,0.003 0.137,0.003C0.099,0.003 0.074,0.002 0.063,-0C0.053,-0.002 0.048,-0.007 0.048,-0.016C0.048,-0.042 0.048,-0.08 0.048,-0.131C0.049,-0.182 0.049,-0.22 0.049,-0.246C0.049,-0.327 0.042,-0.391 0.03,-0.437C0.029,-0.44 0.029,-0.442 0.029,-0.444C0.029,-0.45 0.031,-0.453 0.036,-0.455C0.057,-0.457 0.084,-0.461 0.118,-0.466C0.17,-0.476 0.199,-0.481 0.206,-0.481C0.209,-0.481 0.212,-0.47 0.214,-0.448C0.216,-0.426 0.219,-0.415 0.222,-0.415C0.219,-0.415 0.236,-0.426 0.275,-0.449C0.313,-0.472 0.347,-0.483 0.376,-0.483C0.417,-0.483 0.452,-0.473 0.479,-0.454C0.51,-0.431 0.526,-0.4 0.526,-0.36L0.526,-0.204C0.526,-0.183 0.526,-0.151 0.526,-0.109C0.527,-0.067 0.527,-0.035 0.527,-0.014Z" style="fill-rule:nonzero;"/>
        </g>
        <g transform="matrix(12,0,0,12,72.2548,34.5934)">
            <path d="M0.365,-0.321C0.364,-0.321 0.355,-0.324 0.335,-0.329C0.316,-0.334 0.3,-0.337 0.288,-0.337C0.259,-0.337 0.236,-0.328 0.219,-0.311C0.201,-0.293 0.193,-0.27 0.193,-0.241C0.193,-0.211 0.202,-0.188 0.221,-0.171C0.24,-0.154 0.265,-0.145 0.295,-0.145C0.309,-0.145 0.325,-0.149 0.343,-0.156C0.361,-0.163 0.37,-0.167 0.369,-0.167C0.374,-0.167 0.381,-0.146 0.39,-0.105C0.398,-0.067 0.401,-0.042 0.401,-0.03C0.401,-0.017 0.381,-0.007 0.341,0.002C0.31,0.009 0.284,0.012 0.265,0.012C0.194,0.012 0.134,-0.012 0.088,-0.06C0.041,-0.108 0.018,-0.168 0.018,-0.24C0.018,-0.312 0.041,-0.372 0.088,-0.42C0.135,-0.469 0.194,-0.493 0.265,-0.493C0.314,-0.493 0.356,-0.483 0.393,-0.462C0.402,-0.457 0.406,-0.453 0.406,-0.449C0.406,-0.444 0.401,-0.425 0.391,-0.391C0.382,-0.358 0.376,-0.338 0.373,-0.332C0.371,-0.325 0.368,-0.321 0.365,-0.321Z" style="fill-rule:nonzero;"/>
        </g>
        <g transform="matrix(12,0,0,12,77.247,34.5934)">
            <path d="M0.489,-0.265C0.489,-0.232 0.478,-0.214 0.457,-0.209C0.453,-0.208 0.42,-0.205 0.356,-0.198C0.318,-0.194 0.26,-0.189 0.184,-0.183C0.189,-0.162 0.202,-0.146 0.226,-0.135C0.244,-0.126 0.266,-0.121 0.29,-0.121C0.319,-0.121 0.348,-0.129 0.377,-0.145C0.39,-0.152 0.402,-0.16 0.415,-0.168C0.421,-0.165 0.433,-0.148 0.449,-0.118C0.465,-0.088 0.473,-0.069 0.473,-0.061C0.473,-0.059 0.471,-0.055 0.466,-0.05C0.426,-0.007 0.364,0.014 0.281,0.014C0.203,0.014 0.141,-0.008 0.093,-0.054C0.044,-0.1 0.02,-0.161 0.02,-0.238C0.02,-0.313 0.042,-0.374 0.085,-0.422C0.13,-0.471 0.19,-0.496 0.264,-0.496C0.327,-0.496 0.38,-0.473 0.423,-0.428C0.467,-0.382 0.489,-0.328 0.489,-0.265ZM0.318,-0.295C0.318,-0.315 0.311,-0.333 0.296,-0.348C0.282,-0.363 0.265,-0.371 0.245,-0.371C0.225,-0.371 0.208,-0.362 0.194,-0.345C0.182,-0.329 0.176,-0.311 0.176,-0.289C0.176,-0.28 0.18,-0.276 0.189,-0.276C0.214,-0.276 0.251,-0.28 0.302,-0.287C0.313,-0.289 0.318,-0.291 0.318,-0.295Z" style="fill-rule:nonzero;"/>
        </g>
        <g transform="matrix(12,0,0,12,83.2587,34.5934)">
            <path d="M0.365,-0.304C0.365,-0.292 0.358,-0.285 0.344,-0.285C0.338,-0.285 0.329,-0.286 0.317,-0.286C0.305,-0.287 0.296,-0.288 0.291,-0.288C0.264,-0.288 0.245,-0.283 0.235,-0.275C0.226,-0.266 0.221,-0.249 0.221,-0.224C0.221,-0.21 0.221,-0.188 0.221,-0.16C0.222,-0.131 0.222,-0.11 0.222,-0.096C0.222,-0.087 0.223,-0.073 0.224,-0.054C0.225,-0.035 0.226,-0.021 0.226,-0.012C0.226,-0.004 0.221,-0 0.21,0.001C0.194,0.002 0.17,0.003 0.138,0.003C0.107,0.003 0.083,0.002 0.064,-0C0.053,-0.001 0.048,-0.007 0.048,-0.016C0.048,-0.042 0.048,-0.081 0.048,-0.133C0.049,-0.185 0.049,-0.224 0.049,-0.25C0.049,-0.326 0.042,-0.389 0.028,-0.439C0.027,-0.442 0.027,-0.444 0.027,-0.446C0.027,-0.451 0.029,-0.454 0.034,-0.456C0.052,-0.458 0.078,-0.462 0.113,-0.467C0.164,-0.477 0.191,-0.482 0.192,-0.482C0.198,-0.482 0.202,-0.472 0.204,-0.451C0.205,-0.431 0.208,-0.42 0.212,-0.42C0.208,-0.42 0.221,-0.429 0.252,-0.446C0.284,-0.463 0.314,-0.472 0.343,-0.472C0.361,-0.472 0.37,-0.468 0.37,-0.46C0.37,-0.451 0.369,-0.437 0.367,-0.42C0.365,-0.401 0.364,-0.388 0.364,-0.38C0.364,-0.37 0.364,-0.358 0.364,-0.342C0.365,-0.323 0.365,-0.31 0.365,-0.304Z" style="fill-rule:nonzero;"/>
        </g>
        <g transform="matrix(12,0,0,12,87.829,34.5934)">
            <path d="M0.527,-0.014C0.527,-0.005 0.522,-0 0.513,0.001C0.504,0.002 0.48,0.003 0.442,0.003C0.401,0.003 0.375,0.002 0.366,-0C0.356,-0.002 0.351,-0.009 0.351,-0.02C0.351,-0.035 0.352,-0.058 0.353,-0.089C0.354,-0.12 0.354,-0.144 0.354,-0.159C0.354,-0.171 0.354,-0.189 0.353,-0.213C0.352,-0.237 0.352,-0.255 0.352,-0.267C0.352,-0.312 0.333,-0.334 0.294,-0.334C0.281,-0.334 0.266,-0.328 0.25,-0.317C0.231,-0.305 0.222,-0.293 0.222,-0.281L0.222,-0.017C0.222,-0.006 0.217,-0 0.207,0.001C0.196,0.002 0.172,0.003 0.137,0.003C0.099,0.003 0.074,0.002 0.063,-0C0.053,-0.002 0.048,-0.007 0.048,-0.016C0.048,-0.042 0.048,-0.08 0.048,-0.131C0.049,-0.182 0.049,-0.22 0.049,-0.246C0.049,-0.327 0.042,-0.391 0.03,-0.437C0.029,-0.44 0.029,-0.442 0.029,-0.444C0.029,-0.45 0.031,-0.453 0.036,-0.455C0.057,-0.457 0.084,-0.461 0.118,-0.466C0.17,-0.476 0.199,-0.481 0.206,-0.481C0.209,-0.481 0.212,-0.47 0.214,-0.448C0.216,-0.426 0.219,-0.415 0.222,-0.415C0.219,-0.415 0.236,-0.426 0.275,-0.449C0.313,-0.472 0.347,-0.483 0.376,-0.483C0.417,-0.483 0.452,-0.473 0.479,-0.454C0.51,-0.431 0.526,-0.4 0.526,-0.36L0.526,-0.204C0.526,-0.183 0.526,-0.151 0.526,-0.109C0.527,-0.067 0.527,-0.035 0.527,-0.014Z" style="fill-rule:nonzero;"/>
        </g>
    </g>
    <g transform="matrix(1,0,0,1,11.2393,-7.84547)">
        <g transform="matrix(12,0,0,12,22.554,59.6093)">
            <path d="M0.63,-0.424C0.63,-0.345 0.609,-0.281 0.568,-0.232C0.524,-0.181 0.463,-0.155 0.385,-0.155C0.372,-0.155 0.352,-0.156 0.326,-0.157C0.3,-0.158 0.28,-0.159 0.267,-0.159C0.253,-0.159 0.246,-0.153 0.246,-0.141C0.246,-0.126 0.248,-0.104 0.25,-0.074C0.253,-0.045 0.255,-0.022 0.255,-0.008C0.255,-0 0.251,0.003 0.245,0.003C0.225,0.003 0.195,0.003 0.155,0.002C0.116,0.001 0.086,-0 0.066,-0C0.056,-0 0.052,-0.005 0.052,-0.014C0.052,-0.05 0.052,-0.105 0.053,-0.177C0.055,-0.249 0.055,-0.304 0.055,-0.34C0.055,-0.442 0.051,-0.549 0.042,-0.662L0.042,-0.669C0.041,-0.675 0.046,-0.679 0.056,-0.68C0.082,-0.683 0.138,-0.685 0.224,-0.685C0.275,-0.685 0.324,-0.684 0.371,-0.683C0.448,-0.681 0.51,-0.657 0.558,-0.61C0.606,-0.563 0.63,-0.501 0.63,-0.424ZM0.435,-0.416C0.435,-0.492 0.398,-0.53 0.324,-0.53C0.272,-0.53 0.245,-0.527 0.242,-0.521C0.24,-0.517 0.239,-0.479 0.239,-0.408C0.239,-0.398 0.239,-0.383 0.24,-0.364C0.241,-0.344 0.241,-0.329 0.241,-0.319C0.241,-0.312 0.271,-0.309 0.329,-0.309C0.4,-0.309 0.435,-0.345 0.435,-0.416Z" style="fill-rule:nonzero;"/>
        </g>
        <g transform="matrix(12,0,0,12,30.3763,59.6093)">
            <path d="M0.511,-0.24C0.511,-0.166 0.489,-0.106 0.443,-0.06C0.398,-0.013 0.338,0.01 0.264,0.01C0.193,0.01 0.134,-0.013 0.087,-0.059C0.041,-0.104 0.018,-0.163 0.018,-0.234C0.018,-0.31 0.04,-0.371 0.084,-0.418C0.129,-0.465 0.189,-0.489 0.264,-0.489C0.338,-0.489 0.397,-0.466 0.443,-0.42C0.488,-0.374 0.511,-0.314 0.511,-0.24ZM0.351,-0.24C0.351,-0.266 0.343,-0.289 0.327,-0.308C0.311,-0.328 0.291,-0.338 0.265,-0.338C0.239,-0.338 0.218,-0.328 0.202,-0.308C0.186,-0.289 0.178,-0.266 0.178,-0.24C0.178,-0.214 0.186,-0.191 0.202,-0.172C0.218,-0.152 0.239,-0.142 0.265,-0.142C0.291,-0.142 0.312,-0.152 0.328,-0.172C0.343,-0.191 0.351,-0.214 0.351,-0.24Z" style="fill-rule:nonzero;"/>
        </g>
        <g transform="matrix(12,0,0,12,36.722,59.6093)">
            <path d="M0.219,-0.294C0.219,-0.205 0.22,-0.137 0.22,-0.089C0.22,-0.082 0.221,-0.069 0.222,-0.051C0.223,-0.034 0.223,-0.021 0.223,-0.012C0.223,-0.005 0.219,-0.001 0.211,-0C0.196,0.003 0.17,0.004 0.132,0.004C0.093,0.004 0.068,0.003 0.057,-0C0.05,-0.002 0.046,-0.006 0.045,-0.013L0.045,-0.034C0.045,-0.063 0.045,-0.107 0.046,-0.164C0.047,-0.222 0.047,-0.265 0.047,-0.294C0.047,-0.431 0.047,-0.493 0.047,-0.481C0.046,-0.553 0.042,-0.615 0.035,-0.667C0.035,-0.671 0.034,-0.673 0.034,-0.675C0.034,-0.682 0.038,-0.686 0.047,-0.686L0.221,-0.686C0.229,-0.686 0.233,-0.683 0.232,-0.676L0.232,-0.667C0.223,-0.526 0.219,-0.402 0.219,-0.294Z" style="fill-rule:nonzero;"/>
        </g>
        <g transform="matrix(12,0,0,12,39.927,59.6093)">
            <path d="M0.235,-0.587C0.235,-0.53 0.203,-0.502 0.139,-0.502C0.112,-0.502 0.089,-0.509 0.071,-0.523C0.052,-0.539 0.042,-0.56 0.042,-0.587C0.042,-0.612 0.052,-0.633 0.072,-0.649C0.091,-0.664 0.113,-0.672 0.139,-0.672C0.165,-0.672 0.187,-0.664 0.205,-0.649C0.225,-0.633 0.235,-0.612 0.235,-0.587ZM0.222,-0.224C0.222,-0.2 0.223,-0.165 0.224,-0.118C0.225,-0.071 0.225,-0.036 0.225,-0.012C0.225,-0.005 0.221,-0.001 0.213,-0C0.202,0.002 0.177,0.003 0.138,0.003C0.099,0.003 0.074,0.002 0.063,-0C0.056,-0.001 0.051,-0.003 0.05,-0.006C0.049,-0.008 0.049,-0.013 0.049,-0.021C0.049,-0.043 0.049,-0.077 0.05,-0.122C0.051,-0.167 0.052,-0.201 0.052,-0.224C0.052,-0.317 0.048,-0.39 0.041,-0.445C0.04,-0.45 0.04,-0.453 0.04,-0.455C0.04,-0.462 0.044,-0.465 0.053,-0.465C0.062,-0.465 0.076,-0.464 0.095,-0.462C0.114,-0.46 0.128,-0.459 0.137,-0.459C0.147,-0.459 0.161,-0.46 0.18,-0.461C0.199,-0.463 0.213,-0.464 0.222,-0.464C0.23,-0.464 0.234,-0.461 0.234,-0.454C0.234,-0.453 0.234,-0.45 0.233,-0.445C0.226,-0.381 0.222,-0.308 0.222,-0.224Z" style="fill-rule:nonzero;"/>
        </g>
        <g transform="matrix(12,0,0,12,43.2259,59.6093)">
            <path d="M0.365,-0.321C0.364,-0.321 0.355,-0.324 0.335,-0.329C0.316,-0.334 0.3,-0.337 0.288,-0.337C0.259,-0.337 0.236,-0.328 0.219,-0.311C0.201,-0.293 0.193,-0.27 0.193,-0.241C0.193,-0.211 0.202,-0.188 0.221,-0.171C0.24,-0.154 0.265,-0.145 0.295,-0.145C0.309,-0.145 0.325,-0.149 0.343,-0.156C0.361,-0.163 0.37,-0.167 0.369,-0.167C0.374,-0.167 0.381,-0.146 0.39,-0.105C0.398,-0.067 0.401,-0.042 0.401,-0.03C0.401,-0.017 0.381,-0.007 0.341,0.002C0.31,0.009 0.284,0.012 0.265,0.012C0.194,0.012 0.134,-0.012 0.088,-0.06C0.041,-0.108 0.018,-0.168 0.018,-0.24C0.018,-0.312 0.041,-0.372 0.088,-0.42C0.135,-0.469 0.194,-0.493 0.265,-0.493C0.314,-0.493 0.356,-0.483 0.393,-0.462C0.402,-0.457 0.406,-0.453 0.406,-0.449C0.406,-0.444 0.401,-0.425 0.391,-0.391C0.382,-0.358 0.376,-0.338 0.373,-0.332C0.371,-0.325 0.368,-0.321 0.365,-0.321Z" style="fill-rule:nonzero;"/>
        </g>
        <g transform="matrix(12,0,0,12,48.2181,59.6093)">
            <path d="M0.521,-0.348C0.521,-0.285 0.519,-0.247 0.515,-0.233C0.51,-0.217 0.475,-0.158 0.408,-0.056C0.398,-0.04 0.371,-0.003 0.328,0.055C0.28,0.118 0.253,0.152 0.246,0.156C0.238,0.161 0.188,0.163 0.096,0.163C0.082,0.163 0.073,0.161 0.068,0.158C0.064,0.145 0.058,0.129 0.052,0.111C0.047,0.099 0.041,0.088 0.036,0.076C0.029,0.059 0.025,0.048 0.025,0.042C0.025,0.036 0.028,0.033 0.033,0.033C0.124,0.033 0.169,0.013 0.169,-0.029C0.169,-0.032 0.147,-0.065 0.103,-0.126C0.057,-0.189 0.031,-0.229 0.027,-0.245C0.024,-0.255 0.023,-0.288 0.023,-0.346C0.023,-0.358 0.023,-0.376 0.024,-0.399C0.025,-0.423 0.025,-0.44 0.025,-0.452C0.025,-0.461 0.03,-0.465 0.041,-0.465C0.058,-0.465 0.083,-0.464 0.116,-0.463C0.15,-0.462 0.175,-0.462 0.192,-0.462C0.199,-0.462 0.202,-0.457 0.202,-0.447C0.202,-0.438 0.202,-0.424 0.201,-0.406C0.2,-0.387 0.199,-0.373 0.199,-0.364C0.199,-0.323 0.2,-0.295 0.201,-0.281C0.202,-0.269 0.212,-0.248 0.23,-0.217C0.25,-0.185 0.264,-0.169 0.273,-0.169C0.28,-0.169 0.293,-0.185 0.311,-0.217C0.328,-0.247 0.337,-0.267 0.338,-0.278C0.341,-0.306 0.343,-0.338 0.343,-0.371C0.343,-0.38 0.342,-0.393 0.34,-0.411C0.339,-0.429 0.338,-0.443 0.338,-0.452C0.338,-0.458 0.341,-0.461 0.348,-0.461C0.365,-0.461 0.39,-0.462 0.423,-0.463C0.456,-0.464 0.48,-0.465 0.497,-0.465C0.506,-0.465 0.511,-0.461 0.514,-0.452C0.519,-0.437 0.521,-0.403 0.521,-0.348Z" style="fill-rule:nonzero;"/>
        </g>
    </g>
    <g transform="matrix(1.15018,0,0,1.51231,0,4.41902e-15)">
        <path d="M0,0L34.082,0L0,22.681L0,0Z" style="fill:rgb(41,82,43);"/>
    </g>
    <g transform="matrix(0.850897,0,0,0.850897,7.45517,22.3655)">
        <g transform="matrix(0.466101,0,0,0.498922,-19.9152,2.57831)">
            <path d="M126.652,210.16C126.652,210.16 131.634,227.482 129.265,229.921C129.265,229.921 119.333,241.144 108.111,240.656C108.111,240.656 131.287,285.407 141.29,286.139L160.563,286.383C160.563,286.383 179.104,271.745 192.278,241.982C192.278,241.982 171.489,232.711 172.735,230.759C172.735,230.759 172.053,218.805 173.749,211.486L126.652,210.16Z" style="fill:rgb(254,215,188);"/>
        </g>
        <g transform="matrix(0.466101,0,0,0.595116,-19.9152,-16.4217)">
            <path d="M173.749,206.212C173.749,206.212 166.695,230.078 149.92,234.575C149.92,234.575 129.647,226.456 130.146,220.585L128.897,212.091C128.897,212.091 143.53,198.209 173.749,206.212Z" style="fill:rgb(159,125,101);"/>
        </g>
        <g transform="matrix(0.466101,0,0,0.466101,-19.9152,11.9775)">
            <path d="M106.734,136.849C106.734,136.849 102.255,91.582 150,91.105L150,223.571C150,223.571 112.452,217.853 108.164,170.203C108.164,170.203 100.064,176.398 95.775,154.479C95.775,154.479 88.628,138.278 96.728,133.037C96.728,133.037 103.399,130.654 106.734,136.849Z" style="fill:rgb(254,215,188);"/>
        </g>
        <g transform="matrix(-0.466101,0,0,0.466101,119.449,11.9775)">
            <path d="M106.734,136.849C106.734,136.849 102.255,91.582 150,91.105L150,223.571C150,223.571 112.452,217.853 108.164,170.203C108.164,170.203 100.064,176.398 95.775,154.479C95.775,154.479 88.628,138.278 96.728,133.037C96.728,133.037 103.399,130.654 106.734,136.849Z" style="fill:rgb(254,215,188);"/>
        </g>
        <g transform="matrix(0.333333,0,0,0.343724,-2.84217e-14,46.8829)">
            <path d="M209.118,219.533C209.118,219.533 290.58,247.403 300,300L0,300C0,300 29.721,208.451 91.426,219.533C91.426,219.533 177.431,231.799 209.118,219.533Z" style="fill:rgb(160,63,0);"/>
        </g>
        <g transform="matrix(0.785867,0,0,0.785867,-75.2692,-61.9763)">
            <path d="M123.906,246.875C123.906,246.875 130.396,241.723 143.789,234.212C143.789,234.212 144.556,228.956 148.368,226.679C148.368,226.679 150.67,224.955 151.131,218.698C151.131,218.698 151.847,216.994 153.126,218.913C154.405,220.832 153.024,226.869 151.796,228.174C151.796,228.174 150.594,230.987 154.175,229.171C154.175,229.171 166.975,219.84 169.679,221.055C169.679,221.055 170.751,221.566 167.778,224.348C167.778,224.348 162.565,228.953 161.83,229.113C161.83,229.113 164.706,229.241 162.836,232.087C162.836,232.087 165.539,231.703 164.004,234.581C164.004,234.581 167.714,235.061 163.717,238.802C163.717,238.802 167.296,242.895 147.31,246.508C147.31,246.508 146.159,246.732 144.848,245.773C144.848,245.773 129.629,255.135 124.553,257.175L123.906,246.875Z" style="fill:rgb(254,215,188);stroke:black;stroke-width:0.52px;"/>
        </g>
        <g transform="matrix(0.848501,0,0,0.818944,-72.2299,-24.946)">
            <path d="M114.794,188.199C114.794,188.199 112.964,200.509 116.471,201.063C116.471,201.063 112.049,210.383 92.075,213.624L85.127,213.624C85.127,213.624 109,184.692 114.794,188.199Z" style="fill:rgb(255,100,0);"/>
        </g>
        <g transform="matrix(0.803685,0,0,0.785867,155.843,-44.6442)">
            <path d="M-157.103,153.565C-157.103,153.565 -152.598,140.423 -149.202,138.992C-149.202,138.992 -149.971,141.725 -147.629,141.855C-147.629,141.855 -144.246,142.375 -141.253,141.074C-141.253,141.074 -138.777,145.108 -132.143,141.464C-132.143,141.464 -124.599,142.245 -127.982,138.342C-127.982,138.342 -120.955,143.676 -118.353,140.554C-115.751,137.431 -115.361,143.416 -112.108,139.252C-112.108,139.252 -106.162,153.305 -107.183,153.305C-107.183,153.305 -102.46,124.68 -132.851,124.029C-132.851,124.029 -165.797,124.68 -157.103,153.565Z" style="fill:rgb(255,210,0);"/>
        </g>
    </g>
    <g transform="matrix(12,0,0,12,79.6574,76.9575)">
        <path d="M0.409,-0.5C0.409,-0.419 0.376,-0.36 0.311,-0.322C0.262,-0.294 0.235,-0.265 0.231,-0.237C0.23,-0.229 0.229,-0.222 0.229,-0.214C0.226,-0.208 0.22,-0.204 0.211,-0.204C0.178,-0.204 0.154,-0.202 0.14,-0.198C0.137,-0.197 0.135,-0.197 0.133,-0.197C0.122,-0.197 0.116,-0.213 0.116,-0.245C0.116,-0.272 0.132,-0.307 0.164,-0.347C0.196,-0.388 0.212,-0.423 0.212,-0.45C0.212,-0.492 0.19,-0.513 0.145,-0.513C0.117,-0.513 0.08,-0.502 0.035,-0.48C0.021,-0.48 0.014,-0.521 0.014,-0.604C0.014,-0.614 0.014,-0.62 0.015,-0.625C0.02,-0.647 0.047,-0.664 0.097,-0.676C0.133,-0.685 0.168,-0.689 0.201,-0.689C0.26,-0.689 0.309,-0.673 0.348,-0.64C0.389,-0.605 0.409,-0.558 0.409,-0.5ZM0.277,-0.08C0.277,-0.055 0.268,-0.033 0.251,-0.015C0.233,0.003 0.212,0.012 0.187,0.012C0.162,0.012 0.141,0.003 0.123,-0.015C0.106,-0.033 0.097,-0.055 0.097,-0.08C0.097,-0.105 0.106,-0.127 0.123,-0.144C0.141,-0.162 0.162,-0.171 0.187,-0.171C0.212,-0.171 0.233,-0.162 0.251,-0.144C0.268,-0.127 0.277,-0.105 0.277,-0.08Z" style="fill-rule:nonzero;"/>
    </g>
    <g transform="matrix(12,0,0,12,7.29111,100.541)">
        <path d="M0.409,-0.5C0.409,-0.419 0.376,-0.36 0.311,-0.322C0.262,-0.294 0.235,-0.265 0.231,-0.237C0.23,-0.229 0.229,-0.222 0.229,-0.214C0.226,-0.208 0.22,-0.204 0.211,-0.204C0.178,-0.204 0.154,-0.202 0.14,-0.198C0.137,-0.197 0.135,-0.197 0.133,-0.197C0.122,-0.197 0.116,-0.213 0.116,-0.245C0.116,-0.272 0.132,-0.307 0.164,-0.347C0.196,-0.388 0.212,-0.423 0.212,-0.45C0.212,-0.492 0.19,-0.513 0.145,-0.513C0.117,-0.513 0.08,-0.502 0.035,-0.48C0.021,-0.48 0.014,-0.521 0.014,-0.604C0.014,-0.614 0.014,-0.62 0.015,-0.625C0.02,-0.647 0.047,-0.664 0.097,-0.676C0.133,-0.685 0.168,-0.689 0.201,-0.689C0.26,-0.689 0.309,-0.673 0.348,-0.64C0.389,-0.605 0.409,-0.558 0.409,-0.5ZM0.277,-0.08C0.277,-0.055 0.268,-0.033 0.251,-0.015C0.233,0.003 0.212,0.012 0.187,0.012C0.162,0.012 0.141,0.003 0.123,-0.015C0.106,-0.033 0.097,-0.055 0.097,-0.08C0.097,-0.105 0.106,-0.127 0.123,-0.144C0.141,-0.162 0.162,-0.171 0.187,-0.171C0.212,-0.171 0.233,-0.162 0.251,-0.144C0.268,-0.127 0.277,-0.105 0.277,-0.08Z" style="fill-rule:nonzero;"/>
    </g>
    <g transform="matrix(12,0,0,12,70.9153,68.5434)">
        <path d="M0.409,-0.5C0.409,-0.419 0.376,-0.36 0.311,-0.322C0.262,-0.294 0.235,-0.265 0.231,-0.237C0.23,-0.229 0.229,-0.222 0.229,-0.214C0.226,-0.208 0.22,-0.204 0.211,-0.204C0.178,-0.204 0.154,-0.202 0.14,-0.198C0.137,-0.197 0.135,-0.197 0.133,-0.197C0.122,-0.197 0.116,-0.213 0.116,-0.245C0.116,-0.272 0.132,-0.307 0.164,-0.347C0.196,-0.388 0.212,-0.423 0.212,-0.45C0.212,-0.492 0.19,-0.513 0.145,-0.513C0.117,-0.513 0.08,-0.502 0.035,-0.48C0.021,-0.48 0.014,-0.521 0.014,-0.604C0.014,-0.614 0.014,-0.62 0.015,-0.625C0.02,-0.647 0.047,-0.664 0.097,-0.676C0.133,-0.685 0.168,-0.689 0.201,-0.689C0.26,-0.689 0.309,-0.673 0.348,-0.64C0.389,-0.605 0.409,-0.558 0.409,-0.5ZM0.277,-0.08C0.277,-0.055 0.268,-0.033 0.251,-0.015C0.233,0.003 0.212,0.012 0.187,0.012C0.162,0.012 0.141,0.003 0.123,-0.015C0.106,-0.033 0.097,-0.055 0.097,-0.08C0.097,-0.105 0.106,-0.127 0.123,-0.144C0.141,-0.162 0.162,-0.171 0.187,-0.171C0.212,-0.171 0.233,-0.162 0.251,-0.144C0.268,-0.127 0.277,-0.105 0.277,-0.08Z" style="fill-rule:nonzero;"/>
    </g>
    <g transform="matrix(12,0,0,12,66.1692,116.925)">
        <path d="M0.409,-0.5C0.409,-0.419 0.376,-0.36 0.311,-0.322C0.262,-0.294 0.235,-0.265 0.231,-0.237C0.23,-0.229 0.229,-0.222 0.229,-0.214C0.226,-0.208 0.22,-0.204 0.211,-0.204C0.178,-0.204 0.154,-0.202 0.14,-0.198C0.137,-0.197 0.135,-0.197 0.133,-0.197C0.122,-0.197 0.116,-0.213 0.116,-0.245C0.116,-0.272 0.132,-0.307 0.164,-0.347C0.196,-0.388 0.212,-0.423 0.212,-0.45C0.212,-0.492 0.19,-0.513 0.145,-0.513C0.117,-0.513 0.08,-0.502 0.035,-0.48C0.021,-0.48 0.014,-0.521 0.014,-0.604C0.014,-0.614 0.014,-0.62 0.015,-0.625C0.02,-0.647 0.047,-0.664 0.097,-0.676C0.133,-0.685 0.168,-0.689 0.201,-0.689C0.26,-0.689 0.309,-0.673 0.348,-0.64C0.389,-0.605 0.409,-0.558 0.409,-0.5ZM0.277,-0.08C0.277,-0.055 0.268,-0.033 0.251,-0.015C0.233,0.003 0.212,0.012 0.187,0.012C0.162,0.012 0.141,0.003 0.123,-0.015C0.106,-0.033 0.097,-0.055 0.097,-0.08C0.097,-0.105 0.106,-0.127 0.123,-0.144C0.141,-0.162 0.162,-0.171 0.187,-0.171C0.212,-0.171 0.233,-0.162 0.251,-0.144C0.268,-0.127 0.277,-0.105 0.277,-0.08Z" style="fill-rule:nonzero;"/>
    </g>
    <g transform="matrix(12,0,0,12,17.7134,68.5434)">
        <path d="M0.409,-0.5C0.409,-0.419 0.376,-0.36 0.311,-0.322C0.262,-0.294 0.235,-0.265 0.231,-0.237C0.23,-0.229 0.229,-0.222 0.229,-0.214C0.226,-0.208 0.22,-0.204 0.211,-0.204C0.178,-0.204 0.154,-0.202 0.14,-0.198C0.137,-0.197 0.135,-0.197 0.133,-0.197C0.122,-0.197 0.116,-0.213 0.116,-0.245C0.116,-0.272 0.132,-0.307 0.164,-0.347C0.196,-0.388 0.212,-0.423 0.212,-0.45C0.212,-0.492 0.19,-0.513 0.145,-0.513C0.117,-0.513 0.08,-0.502 0.035,-0.48C0.021,-0.48 0.014,-0.521 0.014,-0.604C0.014,-0.614 0.014,-0.62 0.015,-0.625C0.02,-0.647 0.047,-0.664 0.097,-0.676C0.133,-0.685 0.168,-0.689 0.201,-0.689C0.26,-0.689 0.309,-0.673 0.348,-0.64C0.389,-0.605 0.409,-0.558 0.409,-0.5ZM0.277,-0.08C0.277,-0.055 0.268,-0.033 0.251,-0.015C0.233,0.003 0.212,0.012 0.187,0.012C0.162,0.012 0.141,0.003 0.123,-0.015C0.106,-0.033 0.097,-0.055 0.097,-0.08C0.097,-0.105 0.106,-0.127 0.123,-0.144C0.141,-0.162 0.162,-0.171 0.187,-0.171C0.212,-0.171 0.233,-0.162 0.251,-0.144C0.268,-0.127 0.277,-0.105 0.277,-0.08Z" style="fill-rule:nonzero;"/>
    </g>
</svg>
