<svg id="Layer_1" data-name="Layer 1" xmlns="http://www.w3.org/2000/svg" viewBox="0 0 126.36 147.9"><defs><style>.cls-1{fill:#4b2922;}.cls-2{fill:#60c04f;}.cls-3{fill:#5fc352;}.cls-4{fill:#8cc346;}</style></defs><title>Logo150</title><path class="cls-1" d="M71.61,149.69c2.86-10,6.3-19.67,8.28-29.66,1.33-6.72.78-13.86.71-20.81,0-3.3-2.3-5.24-5.39-6.54a75.59,75.59,0,0,0-43.13-4.62,5.05,5.05,0,0,1-2.85-.25c14.86-8.53,30.89-9.17,47.71-6.61-3.09-15.1-8.87-29.94-.61-44.84,0,3.18-.55,6.48.11,9.52,1.39,6.38,3.47,12.61,5.14,18.93.78,3,2.66,3.41,5.27,3A47.12,47.12,0,0,0,108,59.17c1.3-1,2.56-2,4.75-3.71a27.75,27.75,0,0,1-11.09,12.87C97,71.19,92,73.3,86.51,76c14.07,22.28,19.73,46.82,15.44,73.66Z" transform="translate(-16.64 -1.79)"/><circle class="cls-2" cx="98.71" cy="103.09" r="9.79"/><circle class="cls-2" cx="114.49" cy="80.4" r="9.79"/><circle class="cls-2" cx="116.57" cy="52.75" r="9.79"/><circle class="cls-2" cx="104.7" cy="27.76" r="9.79"/><circle class="cls-2" cx="80.63" cy="11.75" r="9.79"/><circle class="cls-2" cx="52.98" cy="9.79" r="9.79"/><circle class="cls-2" cx="27.3" cy="23.04" r="9.79"/><circle class="cls-3" cx="11.63" cy="45.96" r="9.79"/><circle class="cls-2" cx="9.79" cy="73.03" r="9.79"/><circle class="cls-2" cx="21.42" cy="97.21" r="9.79"/><circle class="cls-2" cx="44.46" cy="112.88" r="9.79"/><circle class="cls-4" cx="41.01" cy="62.54" r="9.79"/><circle class="cls-4" cx="74.52" cy="49.76" r="9.79"/><text x="-16.64" y="-1.79"/></svg>