<?xml version="1.0" encoding="UTF-8" standalone="no"?>
<!DOCTYPE svg PUBLIC "-//W3C//DTD SVG 1.1//EN" "http://www.w3.org/Graphics/SVG/1.1/DTD/svg11.dtd">
<svg width="100%" height="100%" viewBox="0 0 100 150" version="1.1" xmlns="http://www.w3.org/2000/svg" xmlns:xlink="http://www.w3.org/1999/xlink" xml:space="preserve" xmlns:serif="http://www.serif.com/" style="fill-rule:evenodd;clip-rule:evenodd;stroke-linecap:round;stroke-linejoin:round;stroke-miterlimit:1.5;">
    <rect x="0" y="0.34" width="100" height="149.66" style="fill:rgb(206,255,192);"/>
    <g transform="matrix(1.38103,0,0,1.38103,25.9004,-10.2627)">
        <circle cx="41.82" cy="21.079" r="4.467" style="fill:rgb(7,255,0);"/>
    </g>
    <g transform="matrix(2.76206,0,0,2.76206,-55.4327,-39.3735)">
        <circle cx="41.82" cy="21.079" r="4.467" style="fill:rgb(15,161,11);"/>
    </g>
    <g transform="matrix(1.38103,0,0,1.38103,19.7311,-22.6011)">
        <circle cx="41.82" cy="21.079" r="4.467" style="fill:rgb(7,255,0);"/>
    </g>
    <g transform="matrix(1.38103,0,0,1.38103,38.2388,-22.6011)">
        <circle cx="41.82" cy="21.079" r="4.467" style="fill:rgb(4,134,0);"/>
    </g>
    <g transform="matrix(1,0,0,1,1.09165,8.81511)">
        <g transform="matrix(12,0,0,12,2.96158,43.9915)">
            <path d="M0.63,-0.424C0.63,-0.345 0.609,-0.281 0.568,-0.232C0.524,-0.181 0.463,-0.155 0.385,-0.155C0.372,-0.155 0.352,-0.156 0.326,-0.157C0.3,-0.158 0.28,-0.159 0.267,-0.159C0.253,-0.159 0.246,-0.153 0.246,-0.141C0.246,-0.126 0.248,-0.104 0.25,-0.074C0.253,-0.045 0.255,-0.022 0.255,-0.008C0.255,-0 0.251,0.003 0.245,0.003C0.225,0.003 0.195,0.003 0.155,0.002C0.116,0.001 0.086,-0 0.066,-0C0.056,-0 0.052,-0.005 0.052,-0.014C0.052,-0.05 0.052,-0.105 0.053,-0.177C0.055,-0.249 0.055,-0.304 0.055,-0.34C0.055,-0.442 0.051,-0.549 0.042,-0.662L0.042,-0.669C0.041,-0.675 0.046,-0.679 0.056,-0.68C0.082,-0.683 0.138,-0.685 0.224,-0.685C0.275,-0.685 0.324,-0.684 0.371,-0.683C0.448,-0.681 0.51,-0.657 0.558,-0.61C0.606,-0.563 0.63,-0.501 0.63,-0.424ZM0.435,-0.416C0.435,-0.492 0.398,-0.53 0.324,-0.53C0.272,-0.53 0.245,-0.527 0.242,-0.521C0.24,-0.517 0.239,-0.479 0.239,-0.408C0.239,-0.398 0.239,-0.383 0.24,-0.364C0.241,-0.344 0.241,-0.329 0.241,-0.319C0.241,-0.312 0.271,-0.309 0.329,-0.309C0.4,-0.309 0.435,-0.345 0.435,-0.416Z" style="fill-rule:nonzero;"/>
        </g>
        <g transform="matrix(12,0,0,12,10.7838,43.9915)">
            <path d="M0.532,-0.244C0.532,-0.219 0.534,-0.182 0.537,-0.132C0.54,-0.083 0.541,-0.046 0.541,-0.021C0.541,-0.008 0.535,-0.001 0.524,-0C0.484,0.003 0.437,0.004 0.385,0.004C0.379,0.004 0.375,-0.005 0.373,-0.024C0.371,-0.042 0.368,-0.052 0.365,-0.052C0.363,-0.051 0.359,-0.048 0.355,-0.044C0.319,-0.007 0.279,0.011 0.238,0.011C0.174,0.011 0.122,-0.014 0.08,-0.064C0.041,-0.111 0.021,-0.167 0.021,-0.232C0.021,-0.307 0.041,-0.368 0.082,-0.414C0.124,-0.461 0.182,-0.485 0.256,-0.485C0.307,-0.485 0.347,-0.467 0.377,-0.431C0.378,-0.43 0.379,-0.429 0.38,-0.429C0.383,-0.429 0.387,-0.437 0.39,-0.452C0.394,-0.468 0.399,-0.476 0.404,-0.476C0.416,-0.476 0.439,-0.473 0.473,-0.466C0.505,-0.459 0.528,-0.454 0.542,-0.449C0.547,-0.447 0.549,-0.445 0.549,-0.441C0.549,-0.44 0.549,-0.437 0.548,-0.431C0.537,-0.372 0.532,-0.31 0.532,-0.244ZM0.375,-0.241C0.375,-0.269 0.366,-0.292 0.349,-0.31C0.331,-0.328 0.309,-0.337 0.281,-0.337C0.253,-0.337 0.23,-0.328 0.213,-0.31C0.196,-0.292 0.187,-0.269 0.187,-0.241C0.187,-0.215 0.196,-0.192 0.214,-0.173C0.233,-0.154 0.255,-0.145 0.281,-0.145C0.308,-0.145 0.331,-0.154 0.349,-0.172C0.366,-0.19 0.375,-0.213 0.375,-0.241Z" style="fill-rule:nonzero;"/>
        </g>
        <g transform="matrix(12,0,0,12,17.8385,43.9915)">
            <path d="M0.365,-0.304C0.365,-0.292 0.358,-0.285 0.344,-0.285C0.338,-0.285 0.329,-0.286 0.317,-0.286C0.305,-0.287 0.296,-0.288 0.291,-0.288C0.264,-0.288 0.245,-0.283 0.235,-0.275C0.226,-0.266 0.221,-0.249 0.221,-0.224C0.221,-0.21 0.221,-0.188 0.221,-0.16C0.222,-0.131 0.222,-0.11 0.222,-0.096C0.222,-0.087 0.223,-0.073 0.224,-0.054C0.225,-0.035 0.226,-0.021 0.226,-0.012C0.226,-0.004 0.221,-0 0.21,0.001C0.194,0.002 0.17,0.003 0.138,0.003C0.107,0.003 0.083,0.002 0.064,-0C0.053,-0.001 0.048,-0.007 0.048,-0.016C0.048,-0.042 0.048,-0.081 0.048,-0.133C0.049,-0.185 0.049,-0.224 0.049,-0.25C0.049,-0.326 0.042,-0.389 0.028,-0.439C0.027,-0.442 0.027,-0.444 0.027,-0.446C0.027,-0.451 0.029,-0.454 0.034,-0.456C0.052,-0.458 0.078,-0.462 0.113,-0.467C0.164,-0.477 0.191,-0.482 0.192,-0.482C0.198,-0.482 0.202,-0.472 0.204,-0.451C0.205,-0.431 0.208,-0.42 0.212,-0.42C0.208,-0.42 0.221,-0.429 0.252,-0.446C0.284,-0.463 0.314,-0.472 0.343,-0.472C0.361,-0.472 0.37,-0.468 0.37,-0.46C0.37,-0.451 0.369,-0.437 0.367,-0.42C0.365,-0.401 0.364,-0.388 0.364,-0.38C0.364,-0.37 0.364,-0.358 0.364,-0.342C0.365,-0.323 0.365,-0.31 0.365,-0.304Z" style="fill-rule:nonzero;"/>
        </g>
        <g transform="matrix(12,0,0,12,22.4088,43.9915)">
            <path d="M0.489,-0.265C0.489,-0.232 0.478,-0.214 0.457,-0.209C0.453,-0.208 0.42,-0.205 0.356,-0.198C0.318,-0.194 0.26,-0.189 0.184,-0.183C0.189,-0.162 0.202,-0.146 0.226,-0.135C0.244,-0.126 0.266,-0.121 0.29,-0.121C0.319,-0.121 0.348,-0.129 0.377,-0.145C0.39,-0.152 0.402,-0.16 0.415,-0.168C0.421,-0.165 0.433,-0.148 0.449,-0.118C0.465,-0.088 0.473,-0.069 0.473,-0.061C0.473,-0.059 0.471,-0.055 0.466,-0.05C0.426,-0.007 0.364,0.014 0.281,0.014C0.203,0.014 0.141,-0.008 0.093,-0.054C0.044,-0.1 0.02,-0.161 0.02,-0.238C0.02,-0.313 0.042,-0.374 0.085,-0.422C0.13,-0.471 0.19,-0.496 0.264,-0.496C0.327,-0.496 0.38,-0.473 0.423,-0.428C0.467,-0.382 0.489,-0.328 0.489,-0.265ZM0.318,-0.295C0.318,-0.315 0.311,-0.333 0.296,-0.348C0.282,-0.363 0.265,-0.371 0.245,-0.371C0.225,-0.371 0.208,-0.362 0.194,-0.345C0.182,-0.329 0.176,-0.311 0.176,-0.289C0.176,-0.28 0.18,-0.276 0.189,-0.276C0.214,-0.276 0.251,-0.28 0.302,-0.287C0.313,-0.289 0.318,-0.291 0.318,-0.295Z" style="fill-rule:nonzero;"/>
        </g>
        <g transform="matrix(12,0,0,12,28.4206,43.9915)">
            <path d="M0.527,-0.014C0.527,-0.005 0.522,-0 0.513,0.001C0.504,0.002 0.48,0.003 0.442,0.003C0.401,0.003 0.375,0.002 0.366,-0C0.356,-0.002 0.351,-0.009 0.351,-0.02C0.351,-0.035 0.352,-0.058 0.353,-0.089C0.354,-0.12 0.354,-0.144 0.354,-0.159C0.354,-0.171 0.354,-0.189 0.353,-0.213C0.352,-0.237 0.352,-0.255 0.352,-0.267C0.352,-0.312 0.333,-0.334 0.294,-0.334C0.281,-0.334 0.266,-0.328 0.25,-0.317C0.231,-0.305 0.222,-0.293 0.222,-0.281L0.222,-0.017C0.222,-0.006 0.217,-0 0.207,0.001C0.196,0.002 0.172,0.003 0.137,0.003C0.099,0.003 0.074,0.002 0.063,-0C0.053,-0.002 0.048,-0.007 0.048,-0.016C0.048,-0.042 0.048,-0.08 0.048,-0.131C0.049,-0.182 0.049,-0.22 0.049,-0.246C0.049,-0.327 0.042,-0.391 0.03,-0.437C0.029,-0.44 0.029,-0.442 0.029,-0.444C0.029,-0.45 0.031,-0.453 0.036,-0.455C0.057,-0.457 0.084,-0.461 0.118,-0.466C0.17,-0.476 0.199,-0.481 0.206,-0.481C0.209,-0.481 0.212,-0.47 0.214,-0.448C0.216,-0.426 0.219,-0.415 0.222,-0.415C0.219,-0.415 0.236,-0.426 0.275,-0.449C0.313,-0.472 0.347,-0.483 0.376,-0.483C0.417,-0.483 0.452,-0.473 0.479,-0.454C0.51,-0.431 0.526,-0.4 0.526,-0.36L0.526,-0.204C0.526,-0.183 0.526,-0.151 0.526,-0.109C0.527,-0.067 0.527,-0.035 0.527,-0.014Z" style="fill-rule:nonzero;"/>
        </g>
        <g transform="matrix(12,0,0,12,35.2233,43.9915)">
            <path d="M0.368,-0.143C0.368,-0.133 0.367,-0.118 0.365,-0.099C0.362,-0.079 0.361,-0.064 0.361,-0.055C0.361,-0.046 0.36,-0.04 0.358,-0.037C0.356,-0.035 0.351,-0.031 0.342,-0.026C0.3,-0.003 0.253,0.009 0.202,0.009C0.108,0.009 0.061,-0.027 0.061,-0.099C0.061,-0.121 0.062,-0.153 0.063,-0.196C0.065,-0.239 0.066,-0.271 0.066,-0.293C0.066,-0.307 0.058,-0.314 0.041,-0.314L0.035,-0.314C0.032,-0.314 0.03,-0.314 0.028,-0.314C0.016,-0.314 0.01,-0.318 0.01,-0.327C0.01,-0.332 0.01,-0.34 0.011,-0.351C0.012,-0.362 0.012,-0.37 0.012,-0.375C0.012,-0.382 0.012,-0.392 0.011,-0.406C0.01,-0.42 0.01,-0.431 0.01,-0.438C0.01,-0.444 0.02,-0.448 0.041,-0.448C0.053,-0.449 0.059,-0.452 0.06,-0.458C0.062,-0.47 0.063,-0.49 0.062,-0.517C0.061,-0.559 0.06,-0.579 0.06,-0.577C0.06,-0.614 0.064,-0.633 0.071,-0.633C0.08,-0.633 0.092,-0.631 0.108,-0.627C0.127,-0.623 0.14,-0.621 0.147,-0.62C0.164,-0.618 0.189,-0.615 0.222,-0.611C0.23,-0.61 0.234,-0.607 0.234,-0.603C0.234,-0.59 0.233,-0.57 0.231,-0.543C0.229,-0.517 0.228,-0.497 0.228,-0.484C0.228,-0.468 0.233,-0.46 0.242,-0.46C0.254,-0.46 0.271,-0.46 0.294,-0.461C0.317,-0.462 0.334,-0.463 0.346,-0.463C0.353,-0.463 0.357,-0.46 0.357,-0.456C0.357,-0.448 0.356,-0.437 0.354,-0.422C0.353,-0.407 0.352,-0.396 0.352,-0.388L0.353,-0.32C0.353,-0.313 0.348,-0.31 0.339,-0.31L0.273,-0.311L0.237,-0.311C0.232,-0.311 0.229,-0.304 0.229,-0.29L0.229,-0.255C0.23,-0.239 0.23,-0.228 0.23,-0.22C0.23,-0.193 0.233,-0.174 0.239,-0.164C0.248,-0.15 0.265,-0.143 0.291,-0.143C0.299,-0.143 0.311,-0.144 0.326,-0.148C0.341,-0.152 0.352,-0.154 0.358,-0.154C0.365,-0.154 0.368,-0.15 0.368,-0.143Z" style="fill-rule:nonzero;"/>
        </g>
        <g transform="matrix(12,0,0,12,42.7585,43.9915)">
            <path d="M0.63,-0.424C0.63,-0.345 0.609,-0.281 0.568,-0.232C0.524,-0.181 0.463,-0.155 0.385,-0.155C0.372,-0.155 0.352,-0.156 0.326,-0.157C0.3,-0.158 0.28,-0.159 0.267,-0.159C0.253,-0.159 0.246,-0.153 0.246,-0.141C0.246,-0.126 0.248,-0.104 0.25,-0.074C0.253,-0.045 0.255,-0.022 0.255,-0.008C0.255,-0 0.251,0.003 0.245,0.003C0.225,0.003 0.195,0.003 0.155,0.002C0.116,0.001 0.086,-0 0.066,-0C0.056,-0 0.052,-0.005 0.052,-0.014C0.052,-0.05 0.052,-0.105 0.053,-0.177C0.055,-0.249 0.055,-0.304 0.055,-0.34C0.055,-0.442 0.051,-0.549 0.042,-0.662L0.042,-0.669C0.041,-0.675 0.046,-0.679 0.056,-0.68C0.082,-0.683 0.138,-0.685 0.224,-0.685C0.275,-0.685 0.324,-0.684 0.371,-0.683C0.448,-0.681 0.51,-0.657 0.558,-0.61C0.606,-0.563 0.63,-0.501 0.63,-0.424ZM0.435,-0.416C0.435,-0.492 0.398,-0.53 0.324,-0.53C0.272,-0.53 0.245,-0.527 0.242,-0.521C0.24,-0.517 0.239,-0.479 0.239,-0.408C0.239,-0.398 0.239,-0.383 0.24,-0.364C0.241,-0.344 0.241,-0.329 0.241,-0.319C0.241,-0.312 0.271,-0.309 0.329,-0.309C0.4,-0.309 0.435,-0.345 0.435,-0.416Z" style="fill-rule:nonzero;"/>
        </g>
        <g transform="matrix(12,0,0,12,50.5807,43.9915)">
            <path d="M0.532,-0.244C0.532,-0.219 0.534,-0.182 0.537,-0.132C0.54,-0.083 0.541,-0.046 0.541,-0.021C0.541,-0.008 0.535,-0.001 0.524,-0C0.484,0.003 0.437,0.004 0.385,0.004C0.379,0.004 0.375,-0.005 0.373,-0.024C0.371,-0.042 0.368,-0.052 0.365,-0.052C0.363,-0.051 0.359,-0.048 0.355,-0.044C0.319,-0.007 0.279,0.011 0.238,0.011C0.174,0.011 0.122,-0.014 0.08,-0.064C0.041,-0.111 0.021,-0.167 0.021,-0.232C0.021,-0.307 0.041,-0.368 0.082,-0.414C0.124,-0.461 0.182,-0.485 0.256,-0.485C0.307,-0.485 0.347,-0.467 0.377,-0.431C0.378,-0.43 0.379,-0.429 0.38,-0.429C0.383,-0.429 0.387,-0.437 0.39,-0.452C0.394,-0.468 0.399,-0.476 0.404,-0.476C0.416,-0.476 0.439,-0.473 0.473,-0.466C0.505,-0.459 0.528,-0.454 0.542,-0.449C0.547,-0.447 0.549,-0.445 0.549,-0.441C0.549,-0.44 0.549,-0.437 0.548,-0.431C0.537,-0.372 0.532,-0.31 0.532,-0.244ZM0.375,-0.241C0.375,-0.269 0.366,-0.292 0.349,-0.31C0.331,-0.328 0.309,-0.337 0.281,-0.337C0.253,-0.337 0.23,-0.328 0.213,-0.31C0.196,-0.292 0.187,-0.269 0.187,-0.241C0.187,-0.215 0.196,-0.192 0.214,-0.173C0.233,-0.154 0.255,-0.145 0.281,-0.145C0.308,-0.145 0.331,-0.154 0.349,-0.172C0.366,-0.19 0.375,-0.213 0.375,-0.241Z" style="fill-rule:nonzero;"/>
        </g>
        <g transform="matrix(12,0,0,12,57.6354,43.9915)">
            <path d="M0.527,-0.014C0.527,-0.005 0.522,-0 0.513,0.001C0.504,0.002 0.48,0.003 0.442,0.003C0.401,0.003 0.375,0.002 0.366,-0C0.356,-0.002 0.351,-0.009 0.351,-0.02C0.351,-0.035 0.352,-0.058 0.353,-0.089C0.354,-0.12 0.354,-0.144 0.354,-0.159C0.354,-0.171 0.354,-0.189 0.353,-0.213C0.352,-0.237 0.352,-0.255 0.352,-0.267C0.352,-0.312 0.333,-0.334 0.294,-0.334C0.281,-0.334 0.266,-0.328 0.25,-0.317C0.231,-0.305 0.222,-0.293 0.222,-0.281L0.222,-0.017C0.222,-0.006 0.217,-0 0.207,0.001C0.196,0.002 0.172,0.003 0.137,0.003C0.099,0.003 0.074,0.002 0.063,-0C0.053,-0.002 0.048,-0.007 0.048,-0.016C0.048,-0.042 0.048,-0.08 0.048,-0.131C0.049,-0.182 0.049,-0.22 0.049,-0.246C0.049,-0.327 0.042,-0.391 0.03,-0.437C0.029,-0.44 0.029,-0.442 0.029,-0.444C0.029,-0.45 0.031,-0.453 0.036,-0.455C0.057,-0.457 0.084,-0.461 0.118,-0.466C0.17,-0.476 0.199,-0.481 0.206,-0.481C0.209,-0.481 0.212,-0.47 0.214,-0.448C0.216,-0.426 0.219,-0.415 0.222,-0.415C0.219,-0.415 0.236,-0.426 0.275,-0.449C0.313,-0.472 0.347,-0.483 0.376,-0.483C0.417,-0.483 0.452,-0.473 0.479,-0.454C0.51,-0.431 0.526,-0.4 0.526,-0.36L0.526,-0.204C0.526,-0.183 0.526,-0.151 0.526,-0.109C0.527,-0.067 0.527,-0.035 0.527,-0.014Z" style="fill-rule:nonzero;"/>
        </g>
        <g transform="matrix(12,0,0,12,64.4381,43.9915)">
            <path d="M0.559,-0.693C0.559,-0.7 0.558,-0.689 0.555,-0.661C0.552,-0.625 0.549,-0.578 0.547,-0.522C0.544,-0.458 0.543,-0.386 0.543,-0.304C0.543,-0.17 0.547,-0.074 0.554,-0.017C0.555,-0.011 0.555,-0.007 0.555,-0.005C0.555,-0.002 0.553,0 0.548,0.001C0.536,0.003 0.493,0.003 0.418,0.003C0.401,0.003 0.391,-0 0.388,-0.007C0.388,-0.019 0.387,-0.032 0.386,-0.044C0.386,-0.047 0.385,-0.049 0.382,-0.052C0.38,-0.051 0.378,-0.049 0.375,-0.046C0.34,-0.011 0.296,0.006 0.243,0.006C0.174,0.006 0.119,-0.018 0.078,-0.066C0.039,-0.112 0.019,-0.17 0.019,-0.24C0.019,-0.311 0.038,-0.37 0.077,-0.416C0.118,-0.464 0.174,-0.489 0.243,-0.489C0.292,-0.489 0.331,-0.473 0.358,-0.442C0.362,-0.437 0.366,-0.434 0.368,-0.434C0.371,-0.434 0.372,-0.438 0.372,-0.447C0.372,-0.472 0.371,-0.509 0.37,-0.559C0.369,-0.609 0.368,-0.646 0.368,-0.671C0.368,-0.68 0.371,-0.686 0.376,-0.687C0.397,-0.688 0.425,-0.69 0.462,-0.693C0.527,-0.701 0.556,-0.705 0.548,-0.705C0.556,-0.705 0.559,-0.701 0.559,-0.693ZM0.375,-0.244C0.375,-0.27 0.366,-0.292 0.348,-0.312C0.33,-0.331 0.309,-0.341 0.283,-0.341C0.257,-0.341 0.235,-0.331 0.219,-0.312C0.204,-0.292 0.196,-0.269 0.196,-0.242C0.196,-0.216 0.204,-0.194 0.22,-0.175C0.236,-0.156 0.257,-0.146 0.283,-0.146C0.309,-0.146 0.331,-0.156 0.349,-0.175C0.366,-0.195 0.375,-0.218 0.375,-0.244Z" style="fill-rule:nonzero;"/>
        </g>
        <g transform="matrix(12,0,0,12,71.5163,43.9915)">
            <path d="M0.489,-0.265C0.489,-0.232 0.478,-0.214 0.457,-0.209C0.453,-0.208 0.42,-0.205 0.356,-0.198C0.318,-0.194 0.26,-0.189 0.184,-0.183C0.189,-0.162 0.202,-0.146 0.226,-0.135C0.244,-0.126 0.266,-0.121 0.29,-0.121C0.319,-0.121 0.348,-0.129 0.377,-0.145C0.39,-0.152 0.402,-0.16 0.415,-0.168C0.421,-0.165 0.433,-0.148 0.449,-0.118C0.465,-0.088 0.473,-0.069 0.473,-0.061C0.473,-0.059 0.471,-0.055 0.466,-0.05C0.426,-0.007 0.364,0.014 0.281,0.014C0.203,0.014 0.141,-0.008 0.093,-0.054C0.044,-0.1 0.02,-0.161 0.02,-0.238C0.02,-0.313 0.042,-0.374 0.085,-0.422C0.13,-0.471 0.19,-0.496 0.264,-0.496C0.327,-0.496 0.38,-0.473 0.423,-0.428C0.467,-0.382 0.489,-0.328 0.489,-0.265ZM0.318,-0.295C0.318,-0.315 0.311,-0.333 0.296,-0.348C0.282,-0.363 0.265,-0.371 0.245,-0.371C0.225,-0.371 0.208,-0.362 0.194,-0.345C0.182,-0.329 0.176,-0.311 0.176,-0.289C0.176,-0.28 0.18,-0.276 0.189,-0.276C0.214,-0.276 0.251,-0.28 0.302,-0.287C0.313,-0.289 0.318,-0.291 0.318,-0.295Z" style="fill-rule:nonzero;"/>
        </g>
        <g transform="matrix(12,0,0,12,77.528,43.9915)">
            <path d="M0.822,-0.018C0.822,-0.007 0.817,-0 0.807,0.001C0.797,0.002 0.773,0.003 0.735,0.003C0.695,0.003 0.67,0.002 0.661,-0C0.651,-0.002 0.646,-0.01 0.646,-0.024C0.646,-0.039 0.646,-0.061 0.647,-0.091C0.648,-0.121 0.649,-0.143 0.649,-0.158C0.649,-0.215 0.648,-0.256 0.647,-0.28C0.645,-0.319 0.627,-0.338 0.592,-0.338C0.576,-0.338 0.561,-0.331 0.546,-0.319C0.531,-0.306 0.523,-0.292 0.521,-0.276C0.52,-0.262 0.519,-0.222 0.519,-0.156C0.519,-0.14 0.52,-0.117 0.521,-0.086C0.521,-0.055 0.522,-0.032 0.522,-0.016C0.522,-0.005 0.517,-0 0.508,-0L0.36,-0C0.351,-0 0.346,-0.007 0.346,-0.02C0.346,-0.035 0.347,-0.058 0.348,-0.089C0.349,-0.119 0.349,-0.143 0.349,-0.158C0.349,-0.17 0.349,-0.188 0.348,-0.213C0.347,-0.237 0.347,-0.256 0.347,-0.268C0.347,-0.315 0.329,-0.338 0.294,-0.338C0.28,-0.338 0.264,-0.332 0.248,-0.321C0.229,-0.309 0.22,-0.297 0.22,-0.283C0.22,-0.254 0.22,-0.209 0.221,-0.15C0.221,-0.091 0.221,-0.047 0.221,-0.018C0.221,-0.01 0.22,-0.005 0.218,-0.003C0.216,-0.001 0.211,0 0.203,0.001C0.188,0.002 0.165,0.003 0.134,0.003C0.113,0.003 0.09,0.002 0.064,-0C0.056,-0.001 0.052,-0.002 0.05,-0.003C0.049,-0.005 0.048,-0.01 0.048,-0.018C0.048,-0.044 0.048,-0.083 0.048,-0.135C0.049,-0.187 0.049,-0.226 0.049,-0.252C0.049,-0.305 0.045,-0.365 0.037,-0.432C0.036,-0.436 0.036,-0.439 0.036,-0.441C0.036,-0.446 0.038,-0.45 0.043,-0.452C0.05,-0.455 0.064,-0.458 0.083,-0.459C0.108,-0.462 0.122,-0.463 0.127,-0.464C0.13,-0.465 0.143,-0.468 0.166,-0.474C0.181,-0.479 0.194,-0.481 0.204,-0.481C0.21,-0.481 0.214,-0.47 0.214,-0.447C0.214,-0.424 0.215,-0.413 0.218,-0.413C0.221,-0.414 0.225,-0.417 0.229,-0.42C0.258,-0.443 0.281,-0.458 0.298,-0.467C0.323,-0.479 0.351,-0.485 0.38,-0.485C0.41,-0.485 0.437,-0.478 0.46,-0.465C0.486,-0.45 0.503,-0.429 0.511,-0.402C0.528,-0.425 0.552,-0.445 0.583,-0.461C0.613,-0.477 0.642,-0.485 0.671,-0.485C0.714,-0.485 0.749,-0.475 0.776,-0.455C0.806,-0.433 0.822,-0.401 0.822,-0.359C0.822,-0.342 0.821,-0.316 0.82,-0.281C0.819,-0.246 0.819,-0.22 0.819,-0.203C0.819,-0.183 0.819,-0.152 0.82,-0.111C0.821,-0.069 0.822,-0.039 0.822,-0.018Z" style="fill-rule:nonzero;"/>
        </g>
        <g transform="matrix(12,0,0,12,88.0046,43.9915)">
            <path d="M0.235,-0.587C0.235,-0.53 0.203,-0.502 0.139,-0.502C0.112,-0.502 0.089,-0.509 0.071,-0.523C0.052,-0.539 0.042,-0.56 0.042,-0.587C0.042,-0.612 0.052,-0.633 0.072,-0.649C0.091,-0.664 0.113,-0.672 0.139,-0.672C0.165,-0.672 0.187,-0.664 0.205,-0.649C0.225,-0.633 0.235,-0.612 0.235,-0.587ZM0.222,-0.224C0.222,-0.2 0.223,-0.165 0.224,-0.118C0.225,-0.071 0.225,-0.036 0.225,-0.012C0.225,-0.005 0.221,-0.001 0.213,-0C0.202,0.002 0.177,0.003 0.138,0.003C0.099,0.003 0.074,0.002 0.063,-0C0.056,-0.001 0.051,-0.003 0.05,-0.006C0.049,-0.008 0.049,-0.013 0.049,-0.021C0.049,-0.043 0.049,-0.077 0.05,-0.122C0.051,-0.167 0.052,-0.201 0.052,-0.224C0.052,-0.317 0.048,-0.39 0.041,-0.445C0.04,-0.45 0.04,-0.453 0.04,-0.455C0.04,-0.462 0.044,-0.465 0.053,-0.465C0.062,-0.465 0.076,-0.464 0.095,-0.462C0.114,-0.46 0.128,-0.459 0.137,-0.459C0.147,-0.459 0.161,-0.46 0.18,-0.461C0.199,-0.463 0.213,-0.464 0.222,-0.464C0.23,-0.464 0.234,-0.461 0.234,-0.454C0.234,-0.453 0.234,-0.45 0.233,-0.445C0.226,-0.381 0.222,-0.308 0.222,-0.224Z" style="fill-rule:nonzero;"/>
        </g>
        <g transform="matrix(12,0,0,12,91.3034,43.9915)">
            <path d="M0.365,-0.321C0.364,-0.321 0.355,-0.324 0.335,-0.329C0.316,-0.334 0.3,-0.337 0.288,-0.337C0.259,-0.337 0.236,-0.328 0.219,-0.311C0.201,-0.293 0.193,-0.27 0.193,-0.241C0.193,-0.211 0.202,-0.188 0.221,-0.171C0.24,-0.154 0.265,-0.145 0.295,-0.145C0.309,-0.145 0.325,-0.149 0.343,-0.156C0.361,-0.163 0.37,-0.167 0.369,-0.167C0.374,-0.167 0.381,-0.146 0.39,-0.105C0.398,-0.067 0.401,-0.042 0.401,-0.03C0.401,-0.017 0.381,-0.007 0.341,0.002C0.31,0.009 0.284,0.012 0.265,0.012C0.194,0.012 0.134,-0.012 0.088,-0.06C0.041,-0.108 0.018,-0.168 0.018,-0.24C0.018,-0.312 0.041,-0.372 0.088,-0.42C0.135,-0.469 0.194,-0.493 0.265,-0.493C0.314,-0.493 0.356,-0.483 0.393,-0.462C0.402,-0.457 0.406,-0.453 0.406,-0.449C0.406,-0.444 0.401,-0.425 0.391,-0.391C0.382,-0.358 0.376,-0.338 0.373,-0.332C0.371,-0.325 0.368,-0.321 0.365,-0.321Z" style="fill-rule:nonzero;"/>
        </g>
    </g>
    <g transform="matrix(1,0,0,1,10.65,3.81194)">
        <g transform="matrix(12,0,0,12,11.5384,64.7189)">
            <path d="M0.7,-0.015C0.7,-0.008 0.699,-0.004 0.696,-0.002C0.694,-0.001 0.69,-0.001 0.682,-0C0.662,0.002 0.634,0.003 0.598,0.003C0.547,0.003 0.517,0.002 0.508,-0C0.499,-0.002 0.495,-0.006 0.495,-0.013C0.495,-0.039 0.496,-0.078 0.498,-0.129C0.501,-0.181 0.502,-0.219 0.502,-0.245C0.502,-0.258 0.498,-0.265 0.491,-0.267C0.48,-0.27 0.441,-0.271 0.373,-0.271C0.305,-0.271 0.265,-0.27 0.254,-0.267C0.247,-0.265 0.243,-0.258 0.243,-0.245C0.243,-0.22 0.244,-0.182 0.246,-0.131C0.247,-0.08 0.248,-0.042 0.248,-0.017C0.248,-0.007 0.244,-0.002 0.235,-0C0.224,0.002 0.194,0.003 0.143,0.003C0.099,0.003 0.071,0.002 0.059,-0C0.05,-0.002 0.045,-0.007 0.045,-0.015C0.045,-0.05 0.047,-0.103 0.05,-0.174C0.053,-0.245 0.055,-0.299 0.055,-0.334C0.055,-0.372 0.054,-0.428 0.05,-0.504C0.047,-0.58 0.045,-0.637 0.045,-0.674C0.045,-0.681 0.049,-0.685 0.056,-0.685C0.066,-0.685 0.081,-0.685 0.101,-0.684C0.122,-0.683 0.137,-0.682 0.147,-0.682C0.157,-0.682 0.173,-0.683 0.194,-0.684C0.215,-0.685 0.231,-0.685 0.241,-0.685C0.247,-0.685 0.25,-0.682 0.25,-0.676C0.25,-0.652 0.248,-0.615 0.244,-0.567C0.241,-0.518 0.239,-0.481 0.239,-0.457C0.239,-0.446 0.242,-0.439 0.248,-0.437C0.257,-0.434 0.298,-0.433 0.373,-0.433C0.443,-0.433 0.483,-0.434 0.494,-0.437C0.502,-0.439 0.506,-0.446 0.506,-0.457C0.506,-0.48 0.505,-0.516 0.502,-0.563C0.5,-0.611 0.499,-0.646 0.499,-0.67C0.499,-0.68 0.503,-0.685 0.511,-0.685C0.521,-0.685 0.535,-0.685 0.554,-0.684C0.574,-0.683 0.588,-0.682 0.598,-0.682C0.608,-0.682 0.622,-0.683 0.641,-0.684C0.661,-0.685 0.675,-0.685 0.685,-0.685C0.694,-0.685 0.699,-0.681 0.699,-0.673C0.699,-0.636 0.698,-0.579 0.695,-0.504C0.691,-0.428 0.69,-0.372 0.69,-0.334C0.69,-0.299 0.692,-0.245 0.695,-0.174C0.698,-0.103 0.7,-0.05 0.7,-0.015Z" style="fill-rule:nonzero;"/>
        </g>
        <g transform="matrix(12,0,0,12,20.4799,64.7189)">
            <path d="M0.532,-0.244C0.532,-0.219 0.534,-0.182 0.537,-0.132C0.54,-0.083 0.541,-0.046 0.541,-0.021C0.541,-0.008 0.535,-0.001 0.524,-0C0.484,0.003 0.437,0.004 0.385,0.004C0.379,0.004 0.375,-0.005 0.373,-0.024C0.371,-0.042 0.368,-0.052 0.365,-0.052C0.363,-0.051 0.359,-0.048 0.355,-0.044C0.319,-0.007 0.279,0.011 0.238,0.011C0.174,0.011 0.122,-0.014 0.08,-0.064C0.041,-0.111 0.021,-0.167 0.021,-0.232C0.021,-0.307 0.041,-0.368 0.082,-0.414C0.124,-0.461 0.182,-0.485 0.256,-0.485C0.307,-0.485 0.347,-0.467 0.377,-0.431C0.378,-0.43 0.379,-0.429 0.38,-0.429C0.383,-0.429 0.387,-0.437 0.39,-0.452C0.394,-0.468 0.399,-0.476 0.404,-0.476C0.416,-0.476 0.439,-0.473 0.473,-0.466C0.505,-0.459 0.528,-0.454 0.542,-0.449C0.547,-0.447 0.549,-0.445 0.549,-0.441C0.549,-0.44 0.549,-0.437 0.548,-0.431C0.537,-0.372 0.532,-0.31 0.532,-0.244ZM0.375,-0.241C0.375,-0.269 0.366,-0.292 0.349,-0.31C0.331,-0.328 0.309,-0.337 0.281,-0.337C0.253,-0.337 0.23,-0.328 0.213,-0.31C0.196,-0.292 0.187,-0.269 0.187,-0.241C0.187,-0.215 0.196,-0.192 0.214,-0.173C0.233,-0.154 0.255,-0.145 0.281,-0.145C0.308,-0.145 0.331,-0.154 0.349,-0.172C0.366,-0.19 0.375,-0.213 0.375,-0.241Z" style="fill-rule:nonzero;"/>
        </g>
        <g transform="matrix(12,0,0,12,27.5345,64.7189)">
            <path d="M0.527,-0.014C0.527,-0.005 0.522,-0 0.513,0.001C0.504,0.002 0.48,0.003 0.442,0.003C0.401,0.003 0.375,0.002 0.366,-0C0.356,-0.002 0.351,-0.009 0.351,-0.02C0.351,-0.035 0.352,-0.058 0.353,-0.089C0.354,-0.12 0.354,-0.144 0.354,-0.159C0.354,-0.171 0.354,-0.189 0.353,-0.213C0.352,-0.237 0.352,-0.255 0.352,-0.267C0.352,-0.312 0.333,-0.334 0.294,-0.334C0.281,-0.334 0.266,-0.328 0.25,-0.317C0.231,-0.305 0.222,-0.293 0.222,-0.281L0.222,-0.017C0.222,-0.006 0.217,-0 0.207,0.001C0.196,0.002 0.172,0.003 0.137,0.003C0.099,0.003 0.074,0.002 0.063,-0C0.053,-0.002 0.048,-0.007 0.048,-0.016C0.048,-0.042 0.048,-0.08 0.048,-0.131C0.049,-0.182 0.049,-0.22 0.049,-0.246C0.049,-0.327 0.042,-0.391 0.03,-0.437C0.029,-0.44 0.029,-0.442 0.029,-0.444C0.029,-0.45 0.031,-0.453 0.036,-0.455C0.057,-0.457 0.084,-0.461 0.118,-0.466C0.17,-0.476 0.199,-0.481 0.206,-0.481C0.209,-0.481 0.212,-0.47 0.214,-0.448C0.216,-0.426 0.219,-0.415 0.222,-0.415C0.219,-0.415 0.236,-0.426 0.275,-0.449C0.313,-0.472 0.347,-0.483 0.376,-0.483C0.417,-0.483 0.452,-0.473 0.479,-0.454C0.51,-0.431 0.526,-0.4 0.526,-0.36L0.526,-0.204C0.526,-0.183 0.526,-0.151 0.526,-0.109C0.527,-0.067 0.527,-0.035 0.527,-0.014Z" style="fill-rule:nonzero;"/>
        </g>
        <g transform="matrix(12,0,0,12,34.3373,64.7189)">
            <path d="M0.559,-0.693C0.559,-0.7 0.558,-0.689 0.555,-0.661C0.552,-0.625 0.549,-0.578 0.547,-0.522C0.544,-0.458 0.543,-0.386 0.543,-0.304C0.543,-0.17 0.547,-0.074 0.554,-0.017C0.555,-0.011 0.555,-0.007 0.555,-0.005C0.555,-0.002 0.553,0 0.548,0.001C0.536,0.003 0.493,0.003 0.418,0.003C0.401,0.003 0.391,-0 0.388,-0.007C0.388,-0.019 0.387,-0.032 0.386,-0.044C0.386,-0.047 0.385,-0.049 0.382,-0.052C0.38,-0.051 0.378,-0.049 0.375,-0.046C0.34,-0.011 0.296,0.006 0.243,0.006C0.174,0.006 0.119,-0.018 0.078,-0.066C0.039,-0.112 0.019,-0.17 0.019,-0.24C0.019,-0.311 0.038,-0.37 0.077,-0.416C0.118,-0.464 0.174,-0.489 0.243,-0.489C0.292,-0.489 0.331,-0.473 0.358,-0.442C0.362,-0.437 0.366,-0.434 0.368,-0.434C0.371,-0.434 0.372,-0.438 0.372,-0.447C0.372,-0.472 0.371,-0.509 0.37,-0.559C0.369,-0.609 0.368,-0.646 0.368,-0.671C0.368,-0.68 0.371,-0.686 0.376,-0.687C0.397,-0.688 0.425,-0.69 0.462,-0.693C0.527,-0.701 0.556,-0.705 0.548,-0.705C0.556,-0.705 0.559,-0.701 0.559,-0.693ZM0.375,-0.244C0.375,-0.27 0.366,-0.292 0.348,-0.312C0.33,-0.331 0.309,-0.341 0.283,-0.341C0.257,-0.341 0.235,-0.331 0.219,-0.312C0.204,-0.292 0.196,-0.269 0.196,-0.242C0.196,-0.216 0.204,-0.194 0.22,-0.175C0.236,-0.156 0.257,-0.146 0.283,-0.146C0.309,-0.146 0.331,-0.156 0.349,-0.175C0.366,-0.195 0.375,-0.218 0.375,-0.244Z" style="fill-rule:nonzero;"/>
        </g>
        <g transform="matrix(12,0,0,12,41.4154,64.7189)">
            <path d="M0.571,-0.239C0.571,-0.17 0.551,-0.113 0.512,-0.067C0.471,-0.019 0.416,0.006 0.349,0.006C0.3,0.006 0.261,-0.008 0.231,-0.036C0.229,-0.038 0.227,-0.039 0.225,-0.039C0.222,-0.039 0.219,-0.033 0.216,-0.021C0.213,-0.009 0.21,-0.002 0.206,-0.001C0.201,0.001 0.154,0.001 0.067,0.001C0.046,0.001 0.036,-0.002 0.036,-0.01C0.036,-0.011 0.036,-0.013 0.037,-0.017C0.044,-0.069 0.047,-0.167 0.047,-0.313C0.047,-0.452 0.042,-0.573 0.032,-0.676L0.032,-0.681C0.032,-0.686 0.037,-0.689 0.047,-0.69C0.054,-0.69 0.082,-0.693 0.132,-0.697C0.167,-0.701 0.195,-0.702 0.217,-0.702C0.223,-0.702 0.226,-0.697 0.226,-0.686C0.226,-0.673 0.225,-0.657 0.224,-0.636C0.222,-0.61 0.221,-0.593 0.22,-0.585C0.219,-0.553 0.218,-0.509 0.218,-0.453C0.218,-0.443 0.22,-0.438 0.226,-0.438C0.228,-0.438 0.231,-0.439 0.233,-0.442C0.262,-0.473 0.301,-0.489 0.348,-0.489C0.419,-0.489 0.475,-0.465 0.515,-0.416C0.552,-0.371 0.571,-0.312 0.571,-0.239ZM0.394,-0.244C0.394,-0.271 0.386,-0.294 0.369,-0.313C0.353,-0.331 0.331,-0.341 0.304,-0.341C0.277,-0.341 0.255,-0.331 0.24,-0.313C0.224,-0.294 0.216,-0.271 0.216,-0.243C0.216,-0.215 0.223,-0.191 0.239,-0.174C0.255,-0.155 0.277,-0.146 0.305,-0.146C0.333,-0.146 0.355,-0.156 0.371,-0.175C0.386,-0.193 0.394,-0.216 0.394,-0.244Z" style="fill-rule:nonzero;"/>
        </g>
        <g transform="matrix(12,0,0,12,48.4818,64.7189)">
            <path d="M0.511,-0.24C0.511,-0.166 0.489,-0.106 0.443,-0.06C0.398,-0.013 0.338,0.01 0.264,0.01C0.193,0.01 0.134,-0.013 0.087,-0.059C0.041,-0.104 0.018,-0.163 0.018,-0.234C0.018,-0.31 0.04,-0.371 0.084,-0.418C0.129,-0.465 0.189,-0.489 0.264,-0.489C0.338,-0.489 0.397,-0.466 0.443,-0.42C0.488,-0.374 0.511,-0.314 0.511,-0.24ZM0.351,-0.24C0.351,-0.266 0.343,-0.289 0.327,-0.308C0.311,-0.328 0.291,-0.338 0.265,-0.338C0.239,-0.338 0.218,-0.328 0.202,-0.308C0.186,-0.289 0.178,-0.266 0.178,-0.24C0.178,-0.214 0.186,-0.191 0.202,-0.172C0.218,-0.152 0.239,-0.142 0.265,-0.142C0.291,-0.142 0.312,-0.152 0.328,-0.172C0.343,-0.191 0.351,-0.214 0.351,-0.24Z" style="fill-rule:nonzero;"/>
        </g>
        <g transform="matrix(12,0,0,12,54.8275,64.7189)">
            <path d="M0.511,-0.24C0.511,-0.166 0.489,-0.106 0.443,-0.06C0.398,-0.013 0.338,0.01 0.264,0.01C0.193,0.01 0.134,-0.013 0.087,-0.059C0.041,-0.104 0.018,-0.163 0.018,-0.234C0.018,-0.31 0.04,-0.371 0.084,-0.418C0.129,-0.465 0.189,-0.489 0.264,-0.489C0.338,-0.489 0.397,-0.466 0.443,-0.42C0.488,-0.374 0.511,-0.314 0.511,-0.24ZM0.351,-0.24C0.351,-0.266 0.343,-0.289 0.327,-0.308C0.311,-0.328 0.291,-0.338 0.265,-0.338C0.239,-0.338 0.218,-0.328 0.202,-0.308C0.186,-0.289 0.178,-0.266 0.178,-0.24C0.178,-0.214 0.186,-0.191 0.202,-0.172C0.218,-0.152 0.239,-0.142 0.265,-0.142C0.291,-0.142 0.312,-0.152 0.328,-0.172C0.343,-0.191 0.351,-0.214 0.351,-0.24Z" style="fill-rule:nonzero;"/>
        </g>
        <g transform="matrix(12,0,0,12,61.1732,64.7189)">
            <path d="M0.584,-0.319C0.584,-0.247 0.549,-0.192 0.478,-0.155C0.472,-0.152 0.468,-0.148 0.468,-0.145C0.468,-0.139 0.483,-0.116 0.514,-0.075C0.544,-0.035 0.559,-0.014 0.559,-0.012C0.559,-0.003 0.516,0.001 0.43,0.001C0.396,0.001 0.377,-0.003 0.372,-0.011C0.359,-0.033 0.339,-0.064 0.311,-0.105C0.309,-0.107 0.28,-0.109 0.223,-0.112L0.224,-0.014C0.224,-0.004 0.219,0.001 0.21,0.002C0.204,0.003 0.178,0.003 0.133,0.003C0.093,0.003 0.07,0.002 0.064,0.001C0.055,-0.001 0.051,-0.007 0.051,-0.019L0.051,-0.318C0.051,-0.358 0.049,-0.418 0.046,-0.498C0.043,-0.577 0.042,-0.637 0.042,-0.677C0.042,-0.685 0.046,-0.689 0.055,-0.689C0.072,-0.689 0.098,-0.689 0.133,-0.69C0.142,-0.691 0.158,-0.693 0.18,-0.696C0.2,-0.699 0.216,-0.7 0.227,-0.7C0.232,-0.7 0.235,-0.695 0.235,-0.686C0.235,-0.674 0.234,-0.657 0.232,-0.636C0.23,-0.611 0.228,-0.594 0.228,-0.585C0.225,-0.515 0.224,-0.461 0.224,-0.422C0.224,-0.413 0.225,-0.409 0.227,-0.408C0.23,-0.41 0.234,-0.414 0.239,-0.419C0.281,-0.463 0.333,-0.485 0.393,-0.485C0.45,-0.485 0.495,-0.472 0.529,-0.446C0.566,-0.417 0.584,-0.375 0.584,-0.319ZM0.39,-0.287C0.39,-0.326 0.368,-0.346 0.323,-0.346C0.303,-0.346 0.282,-0.339 0.26,-0.324C0.236,-0.308 0.224,-0.29 0.224,-0.271C0.224,-0.244 0.227,-0.228 0.235,-0.223C0.241,-0.219 0.259,-0.217 0.291,-0.217C0.357,-0.217 0.39,-0.24 0.39,-0.287Z" style="fill-rule:nonzero;"/>
        </g>
    </g>
    <g transform="matrix(0.270217,0,0,0.270217,97.1406,165.94)">
        <path d="M-113.589,-288.383C-113.589,-288.383 -134.2,-138.883 -113.589,-131.438C-113.589,-131.438 -230.079,-113.57 -235.981,-129.651C-235.981,-129.651 -219.655,-275.279 -235.981,-284.511C-235.981,-284.511 -141.645,-299.699 -113.589,-288.383Z"/>
        <g transform="matrix(1.3983,0,0,1.3983,-384.2,-473.058)">
            <path d="M106.734,136.849C106.734,136.849 102.255,91.582 150,91.105L150,223.571C150,223.571 112.452,217.853 108.164,170.203C108.164,170.203 100.064,176.398 95.775,154.479C95.775,154.479 88.628,138.278 96.728,133.037C96.728,133.037 103.399,130.654 106.734,136.849Z" style="fill:rgb(254,196,156);"/>
        </g>
        <g transform="matrix(-1.3983,0,0,1.3983,33.8924,-473.058)">
            <path d="M106.734,136.849C106.734,136.849 102.255,91.582 150,91.105L150,223.571C150,223.571 112.452,217.853 108.164,170.203C108.164,170.203 100.064,176.398 95.775,154.479C95.775,154.479 88.628,138.278 96.728,133.037C96.728,133.037 103.399,130.654 106.734,136.849Z" style="fill:rgb(254,196,156);"/>
        </g>
        <path d="M-180.912,-239.709C-180.912,-239.709 -174.07,-244.772 -175.853,-258.173" style="fill:none;stroke:black;stroke-width:3.7px;"/>
        <g transform="matrix(1.3983,0,0,1.49676,-384.2,-501.256)">
            <path d="M126.652,210.16C126.652,210.16 131.634,227.482 129.265,229.921C129.265,229.921 119.333,241.144 108.111,240.656C108.111,240.656 131.287,285.407 141.29,286.139L160.563,286.383C160.563,286.383 179.104,271.745 192.278,241.982C192.278,241.982 171.489,232.711 172.735,230.759C172.735,230.759 172.053,218.805 173.749,211.486L126.652,210.16Z" style="fill:rgb(254,196,156);"/>
        </g>
        <g transform="matrix(1.3983,0,0,1.78535,-384.2,-558.256)">
            <path d="M173.749,206.212C173.749,206.212 166.695,230.078 149.92,234.575C149.92,234.575 129.647,226.456 130.146,220.585L128.897,212.091C128.897,212.091 143.53,198.209 173.749,206.212Z" style="fill:rgb(209,164,135);"/>
        </g>
        <g transform="matrix(1,0,0,1.03117,-324.455,-368.342)">
            <path d="M209.118,219.533C209.118,219.533 290.58,247.403 300,300L0,300C0,300 29.721,208.451 91.426,219.533C91.426,219.533 177.431,231.799 209.118,219.533Z" style="fill:rgb(86,31,101);"/>
        </g>
        <path d="M-233.029,-233.821C-233.029,-233.821 -180.863,-259.373 -117.585,-234.976C-117.585,-234.976 -116.585,-174.748 -174.455,-171.507C-174.455,-171.507 -229.541,-168.793 -233.029,-233.821Z" style="fill:rgb(91,223,237);"/>
        <g transform="matrix(1,0,0,1,1.23129,0)">
            <path d="M-178.234,-245.527C-178.234,-245.527 -184.172,-237.824 -174.183,-237.977" style="fill:none;stroke:rgb(0,135,169);stroke-width:3.7px;"/>
        </g>
        <path d="M-234.988,-281.599C-234.988,-281.599 -184.631,-315.324 -200.832,-332.716C-200.832,-332.716 -120.88,-329.004 -114.686,-281.831C-114.686,-281.831 -100.659,-342.822 -172.952,-349.97C-172.952,-349.97 -245.221,-349.126 -234.988,-281.599Z"/>
    </g>
</svg>
