<?xml version="1.0" encoding="UTF-8" standalone="no"?>
<!DOCTYPE svg PUBLIC "-//W3C//DTD SVG 1.1//EN" "http://www.w3.org/Graphics/SVG/1.1/DTD/svg11.dtd">
<svg width="100%" height="100%" viewBox="0 0 300 300" version="1.1" xmlns="http://www.w3.org/2000/svg" xmlns:xlink="http://www.w3.org/1999/xlink" xml:space="preserve" xmlns:serif="http://www.serif.com/" style="fill-rule:evenodd;clip-rule:evenodd;stroke-linejoin:round;stroke-miterlimit:2;">
    <g id="Layer1">
        <g transform="matrix(1.3983,0,0,1.49676,-59.7456,-142.265)">
            <path d="M126.652,210.16C126.652,210.16 131.634,227.482 129.265,229.921C129.265,229.921 119.333,241.144 108.111,240.656C108.111,240.656 131.287,285.407 141.29,286.139L160.563,286.383C160.563,286.383 179.104,271.745 192.278,241.982C192.278,241.982 171.489,232.711 172.735,230.759C172.735,230.759 172.053,218.805 173.749,211.486L126.652,210.16Z" style="fill:rgb(254,196,156);"/>
        </g>
        <g transform="matrix(1.52433,0,0,1.52433,-78.6497,-124.348)">
            <path d="M151,91.105C151,91.105 203.939,97.3 182.497,192.598C182.497,192.598 194.886,152.573 193.456,126.842C193.456,126.842 189.454,84.911 150,81.576L151,91.105Z" style="fill:rgb(54,54,52);"/>
        </g>
        <g transform="matrix(1.3983,0,0,1.56149,-56.1139,-127.38)">
            <path d="M149,81.576C149,81.576 171.061,92.485 170.108,107.281C170.108,107.281 150.889,90.579 126.668,107.281C126.668,107.281 139.328,82.529 149,81.576Z" style="fill:rgb(54,54,52);"/>
        </g>
        <g transform="matrix(1.3983,0,0,1.78535,-59.7456,-199.265)">
            <path d="M173.749,206.212C173.749,206.212 166.695,230.078 149.92,234.575C149.92,234.575 129.647,226.456 130.146,220.585L128.897,212.091C128.897,212.091 143.53,198.209 173.749,206.212Z" style="fill:rgb(209,164,135);"/>
        </g>
        <g transform="matrix(1.3983,0,0,1.3983,-58.3473,-114.067)">
            <path d="M106.734,136.849C106.734,136.849 102.255,91.582 150,91.105L150,223.571C150,223.571 112.452,217.853 108.164,170.203C108.164,170.203 100.064,176.398 95.775,154.479C95.775,154.479 88.628,138.278 96.728,133.037C96.728,133.037 103.399,130.654 106.734,136.849Z" style="fill:rgb(254,196,156);"/>
        </g>
        <g transform="matrix(-1.52433,0,0,1.52433,378.537,-124.348)">
            <path d="M151,91.105C151,91.105 203.939,97.3 182.497,192.598C182.497,192.598 194.886,152.573 193.456,126.842C193.456,126.842 189.454,84.911 150,81.576L151,91.105Z" style="fill:rgb(54,54,52);"/>
        </g>
        <g transform="matrix(-1.3983,0,0,1.3983,361.032,-114.067)">
            <path d="M151,91.105C151,91.105 155.32,140.184 197.498,132.084C197.498,132.084 199.078,91.105 151,81.576" style="fill:rgb(54,54,52);"/>
        </g>
        <g transform="matrix(-1.3983,0,0,1.3983,358.347,-114.067)">
            <path d="M106.734,136.849C106.734,136.849 102.255,91.582 150,91.105L150,223.571C150,223.571 112.452,217.853 108.164,170.203C108.164,170.203 100.064,176.398 95.775,154.479C95.775,154.479 88.628,138.278 96.728,133.037C96.728,133.037 103.399,130.654 106.734,136.849Z" style="fill:rgb(254,196,156);"/>
        </g>
        <g transform="matrix(1.3983,0,0,1.3983,-59.754,-114.067)">
            <path d="M151,91.105C151,91.105 155.32,140.184 197.498,132.084C197.498,132.084 199.078,91.105 151,81.576" style="fill:rgb(54,54,52);"/>
        </g>
        <g transform="matrix(1,0,0,1.03117,0,-9.35126)">
            <path d="M209.118,219.533C209.118,219.533 290.58,247.403 300,300L0,300C0,300 29.721,208.451 91.426,219.533C91.426,219.533 177.431,231.799 209.118,219.533Z" style="fill:rgb(101,59,31);"/>
        </g>
    </g>
</svg>
