<?xml version="1.0" encoding="UTF-8" standalone="no"?>
<!DOCTYPE svg PUBLIC "-//W3C//DTD SVG 1.1//EN" "http://www.w3.org/Graphics/SVG/1.1/DTD/svg11.dtd">
<svg width="100%" height="100%" viewBox="0 0 100 150" version="1.1" xmlns="http://www.w3.org/2000/svg" xmlns:xlink="http://www.w3.org/1999/xlink" xml:space="preserve" xmlns:serif="http://www.serif.com/" style="fill-rule:evenodd;clip-rule:evenodd;stroke-linecap:round;stroke-linejoin:round;stroke-miterlimit:1.5;">
    <g transform="matrix(0.270217,0,0,0.270217,97.1406,165.94)">
        <path d="M-180.912,-239.709C-180.912,-239.709 -174.07,-244.772 -175.853,-258.173" style="fill:none;stroke:black;stroke-width:3.7px;"/>
    </g>
    <g transform="matrix(0.377845,0,0,0.404451,-6.67671,30.4927)">
        <path d="M126.652,210.16C126.652,210.16 131.634,227.482 129.265,229.921C129.265,229.921 119.333,241.144 108.111,240.656C108.111,240.656 131.287,285.407 141.29,286.139L160.563,286.383C160.563,286.383 179.104,271.745 192.278,241.982C192.278,241.982 171.489,232.711 172.735,230.759C172.735,230.759 172.053,218.805 173.749,211.486L126.652,210.16Z" style="fill:rgb(254,196,156);"/>
    </g>
    <g transform="matrix(0.377845,0,0,0.48243,-6.67671,15.0903)">
        <path d="M173.749,206.212C173.749,206.212 166.695,230.078 149.92,234.575C149.92,234.575 129.647,226.456 130.146,220.585L128.897,212.091C128.897,212.091 143.53,198.209 173.749,206.212Z" style="fill:rgb(209,164,135);"/>
    </g>
    <g transform="matrix(0.270217,0,0,0.278639,9.46752,66.4082)">
        <path d="M209.118,219.533C209.118,219.533 290.58,247.403 300,300L0,300C0,300 29.721,208.451 91.426,219.533C91.426,219.533 177.431,231.799 209.118,219.533Z" style="fill:rgb(208,69,0);"/>
    </g>
    <g transform="matrix(0.270217,0,0,0.270217,97.4733,165.94)">
        <path d="M-178.234,-245.527C-178.234,-245.527 -184.172,-237.824 -174.183,-237.977" style="fill:none;stroke:rgb(0,135,169);stroke-width:3.7px;"/>
    </g>
    <g transform="matrix(-0.377845,0,0,0.377845,106.299,38.1121)">
        <path d="M106.734,136.849C106.734,136.849 102.255,91.582 150,91.105L150,223.571C150,223.571 112.452,217.853 108.164,170.203C108.164,170.203 100.064,176.398 95.775,154.479C95.775,154.479 88.628,138.278 96.728,133.037C96.728,133.037 103.399,130.654 106.734,136.849Z" style="fill:rgb(254,196,156);"/>
    </g>
    <g transform="matrix(0.377845,0,0,0.377845,-6.67671,38.1121)">
        <path d="M106.734,136.849C106.734,136.849 102.255,91.582 150,91.105L150,223.571C150,223.571 112.452,217.853 108.164,170.203C108.164,170.203 100.064,176.398 95.775,154.479C95.775,154.479 88.628,138.278 96.728,133.037C96.728,133.037 103.399,130.654 106.734,136.849Z" style="fill:rgb(254,196,156);"/>
    </g>
    <path d="M33.968,89.721C33.968,89.721 49.457,83.722 49.622,75C49.622,75 53.218,90.103 65.797,90.103C65.797,90.103 68.486,71.932 49.702,72.536C49.702,72.536 32.252,71.805 33.968,89.721Z" style="stroke:black;stroke-width:1px;"/>
    <g transform="matrix(0.5,0,0,1,32.2033,0)">
        <path d="M65.931,90.103C65.931,90.103 66.674,102.341 65.931,102.341C65.931,102.341 64.992,99.602 64.895,101.167C64.895,101.167 64.602,88.989 64.407,90.103L65.931,90.103Z" style="stroke:black;stroke-width:1.26px;"/>
    </g>
    <g transform="matrix(0.5,0,0,1.07927,1.64574,-7.13662)">
        <path d="M65.931,90.103C65.931,90.103 66.674,102.341 65.931,102.341C65.931,102.341 64.992,99.602 64.895,101.167C64.895,101.167 64.602,88.989 64.407,90.103L65.931,90.103Z" style="stroke:black;stroke-width:1.19px;"/>
    </g>
    <path d="M64.407,101.167C64.407,101.167 65.387,116.32 49.89,121.297C49.89,121.297 37.906,119.395 34.978,102.341L33.849,102.341C33.849,102.341 38.088,120.755 50,122.587C50,122.587 65.047,118.022 65.334,101.167L64.407,101.167Z" style="stroke:black;stroke-width:1px;"/>
    <g transform="matrix(1,0,0,1,-16.0152,1.21982)">
        <g transform="matrix(12,0,0,12,19.5826,15.7339)">
            <path d="M0.584,-0.065C0.584,-0.033 0.583,-0.014 0.58,-0.008C0.576,-0.001 0.565,0.002 0.546,0.002C0.543,0.002 0.537,0.002 0.527,0.002C0.517,0.002 0.509,0.002 0.502,0.002C0.496,0.002 0.486,0.002 0.472,0.001C0.459,0 0.449,-0 0.443,-0C0.438,-0 0.414,-0.031 0.373,-0.094C0.331,-0.156 0.309,-0.188 0.308,-0.188C0.301,-0.182 0.277,-0.15 0.237,-0.089C0.199,-0.032 0.176,-0.002 0.17,-0C0.165,0.001 0.153,0.002 0.133,0.002C0.067,0.002 0.033,-0.001 0.033,-0.008C0.033,-0.015 0.033,-0.025 0.032,-0.038C0.031,-0.05 0.031,-0.06 0.031,-0.066C0.031,-0.106 0.033,-0.13 0.038,-0.137C0.038,-0.138 0.065,-0.173 0.119,-0.244C0.162,-0.301 0.184,-0.334 0.184,-0.342C0.184,-0.35 0.162,-0.383 0.119,-0.439C0.091,-0.474 0.064,-0.509 0.037,-0.544C0.034,-0.548 0.032,-0.555 0.032,-0.565C0.031,-0.572 0.031,-0.581 0.032,-0.593C0.033,-0.607 0.033,-0.615 0.033,-0.616C0.033,-0.623 0.033,-0.633 0.031,-0.646C0.03,-0.66 0.03,-0.67 0.03,-0.677C0.03,-0.683 0.035,-0.686 0.047,-0.686C0.054,-0.686 0.065,-0.686 0.08,-0.685C0.095,-0.684 0.106,-0.683 0.113,-0.683C0.119,-0.683 0.129,-0.683 0.142,-0.684C0.154,-0.685 0.164,-0.685 0.17,-0.685C0.175,-0.685 0.199,-0.653 0.241,-0.59C0.283,-0.527 0.305,-0.495 0.307,-0.495C0.314,-0.499 0.338,-0.532 0.379,-0.595C0.418,-0.655 0.441,-0.685 0.447,-0.685L0.563,-0.685C0.574,-0.685 0.58,-0.682 0.58,-0.677L0.58,-0.558C0.58,-0.55 0.555,-0.513 0.505,-0.447C0.454,-0.382 0.429,-0.347 0.429,-0.343C0.429,-0.338 0.451,-0.306 0.496,-0.247C0.548,-0.178 0.575,-0.142 0.577,-0.139C0.582,-0.132 0.584,-0.107 0.584,-0.065Z" style="fill-rule:nonzero;"/>
        </g>
        <g transform="matrix(12,0,0,12,26.9772,15.7339)">
            <path d="M0.532,-0.244C0.532,-0.219 0.534,-0.182 0.537,-0.132C0.54,-0.083 0.541,-0.046 0.541,-0.021C0.541,-0.008 0.535,-0.001 0.524,-0C0.484,0.003 0.437,0.004 0.385,0.004C0.379,0.004 0.375,-0.005 0.373,-0.024C0.371,-0.042 0.368,-0.052 0.365,-0.052C0.363,-0.051 0.359,-0.048 0.355,-0.044C0.319,-0.007 0.279,0.011 0.238,0.011C0.174,0.011 0.122,-0.014 0.08,-0.064C0.041,-0.111 0.021,-0.167 0.021,-0.232C0.021,-0.307 0.041,-0.368 0.082,-0.414C0.124,-0.461 0.182,-0.485 0.256,-0.485C0.307,-0.485 0.347,-0.467 0.377,-0.431C0.378,-0.43 0.379,-0.429 0.38,-0.429C0.383,-0.429 0.387,-0.437 0.39,-0.452C0.394,-0.468 0.399,-0.476 0.404,-0.476C0.416,-0.476 0.439,-0.473 0.473,-0.466C0.505,-0.459 0.528,-0.454 0.542,-0.449C0.547,-0.447 0.549,-0.445 0.549,-0.441C0.549,-0.44 0.549,-0.437 0.548,-0.431C0.537,-0.372 0.532,-0.31 0.532,-0.244ZM0.375,-0.241C0.375,-0.269 0.366,-0.292 0.349,-0.31C0.331,-0.328 0.309,-0.337 0.281,-0.337C0.253,-0.337 0.23,-0.328 0.213,-0.31C0.196,-0.292 0.187,-0.269 0.187,-0.241C0.187,-0.215 0.196,-0.192 0.214,-0.173C0.233,-0.154 0.255,-0.145 0.281,-0.145C0.308,-0.145 0.331,-0.154 0.349,-0.172C0.366,-0.19 0.375,-0.213 0.375,-0.241Z" style="fill-rule:nonzero;"/>
        </g>
        <g transform="matrix(12,0,0,12,34.0318,15.7339)">
            <path d="M0.527,-0.014C0.527,-0.005 0.522,-0 0.513,0.001C0.504,0.002 0.48,0.003 0.442,0.003C0.401,0.003 0.375,0.002 0.366,-0C0.356,-0.002 0.351,-0.009 0.351,-0.02C0.351,-0.035 0.352,-0.058 0.353,-0.089C0.354,-0.12 0.354,-0.144 0.354,-0.159C0.354,-0.171 0.354,-0.189 0.353,-0.213C0.352,-0.237 0.352,-0.255 0.352,-0.267C0.352,-0.312 0.333,-0.334 0.294,-0.334C0.281,-0.334 0.266,-0.328 0.25,-0.317C0.231,-0.305 0.222,-0.293 0.222,-0.281L0.222,-0.017C0.222,-0.006 0.217,-0 0.207,0.001C0.196,0.002 0.172,0.003 0.137,0.003C0.099,0.003 0.074,0.002 0.063,-0C0.053,-0.002 0.048,-0.007 0.048,-0.016C0.048,-0.042 0.048,-0.08 0.048,-0.131C0.049,-0.182 0.049,-0.22 0.049,-0.246C0.049,-0.327 0.042,-0.391 0.03,-0.437C0.029,-0.44 0.029,-0.442 0.029,-0.444C0.029,-0.45 0.031,-0.453 0.036,-0.455C0.057,-0.457 0.084,-0.461 0.118,-0.466C0.17,-0.476 0.199,-0.481 0.206,-0.481C0.209,-0.481 0.212,-0.47 0.214,-0.448C0.216,-0.426 0.219,-0.415 0.222,-0.415C0.219,-0.415 0.236,-0.426 0.275,-0.449C0.313,-0.472 0.347,-0.483 0.376,-0.483C0.417,-0.483 0.452,-0.473 0.479,-0.454C0.51,-0.431 0.526,-0.4 0.526,-0.36L0.526,-0.204C0.526,-0.183 0.526,-0.151 0.526,-0.109C0.527,-0.067 0.527,-0.035 0.527,-0.014Z" style="fill-rule:nonzero;"/>
        </g>
        <g transform="matrix(12,0,0,12,40.8346,15.7339)">
            <path d="M0.559,-0.693C0.559,-0.7 0.558,-0.689 0.555,-0.661C0.552,-0.625 0.549,-0.578 0.547,-0.522C0.544,-0.458 0.543,-0.386 0.543,-0.304C0.543,-0.17 0.547,-0.074 0.554,-0.017C0.555,-0.011 0.555,-0.007 0.555,-0.005C0.555,-0.002 0.553,0 0.548,0.001C0.536,0.003 0.493,0.003 0.418,0.003C0.401,0.003 0.391,-0 0.388,-0.007C0.388,-0.019 0.387,-0.032 0.386,-0.044C0.386,-0.047 0.385,-0.049 0.382,-0.052C0.38,-0.051 0.378,-0.049 0.375,-0.046C0.34,-0.011 0.296,0.006 0.243,0.006C0.174,0.006 0.119,-0.018 0.078,-0.066C0.039,-0.112 0.019,-0.17 0.019,-0.24C0.019,-0.311 0.038,-0.37 0.077,-0.416C0.118,-0.464 0.174,-0.489 0.243,-0.489C0.292,-0.489 0.331,-0.473 0.358,-0.442C0.362,-0.437 0.366,-0.434 0.368,-0.434C0.371,-0.434 0.372,-0.438 0.372,-0.447C0.372,-0.472 0.371,-0.509 0.37,-0.559C0.369,-0.609 0.368,-0.646 0.368,-0.671C0.368,-0.68 0.371,-0.686 0.376,-0.687C0.397,-0.688 0.425,-0.69 0.462,-0.693C0.527,-0.701 0.556,-0.705 0.548,-0.705C0.556,-0.705 0.559,-0.701 0.559,-0.693ZM0.375,-0.244C0.375,-0.27 0.366,-0.292 0.348,-0.312C0.33,-0.331 0.309,-0.341 0.283,-0.341C0.257,-0.341 0.235,-0.331 0.219,-0.312C0.204,-0.292 0.196,-0.269 0.196,-0.242C0.196,-0.216 0.204,-0.194 0.22,-0.175C0.236,-0.156 0.257,-0.146 0.283,-0.146C0.309,-0.146 0.331,-0.156 0.349,-0.175C0.366,-0.195 0.375,-0.218 0.375,-0.244Z" style="fill-rule:nonzero;"/>
        </g>
        <g transform="matrix(12,0,0,12,47.9127,15.7339)">
            <path d="M0.489,-0.265C0.489,-0.232 0.478,-0.214 0.457,-0.209C0.453,-0.208 0.42,-0.205 0.356,-0.198C0.318,-0.194 0.26,-0.189 0.184,-0.183C0.189,-0.162 0.202,-0.146 0.226,-0.135C0.244,-0.126 0.266,-0.121 0.29,-0.121C0.319,-0.121 0.348,-0.129 0.377,-0.145C0.39,-0.152 0.402,-0.16 0.415,-0.168C0.421,-0.165 0.433,-0.148 0.449,-0.118C0.465,-0.088 0.473,-0.069 0.473,-0.061C0.473,-0.059 0.471,-0.055 0.466,-0.05C0.426,-0.007 0.364,0.014 0.281,0.014C0.203,0.014 0.141,-0.008 0.093,-0.054C0.044,-0.1 0.02,-0.161 0.02,-0.238C0.02,-0.313 0.042,-0.374 0.085,-0.422C0.13,-0.471 0.19,-0.496 0.264,-0.496C0.327,-0.496 0.38,-0.473 0.423,-0.428C0.467,-0.382 0.489,-0.328 0.489,-0.265ZM0.318,-0.295C0.318,-0.315 0.311,-0.333 0.296,-0.348C0.282,-0.363 0.265,-0.371 0.245,-0.371C0.225,-0.371 0.208,-0.362 0.194,-0.345C0.182,-0.329 0.176,-0.311 0.176,-0.289C0.176,-0.28 0.18,-0.276 0.189,-0.276C0.214,-0.276 0.251,-0.28 0.302,-0.287C0.313,-0.289 0.318,-0.291 0.318,-0.295Z" style="fill-rule:nonzero;"/>
        </g>
        <g transform="matrix(12,0,0,12,53.9244,15.7339)">
            <path d="M0.365,-0.304C0.365,-0.292 0.358,-0.285 0.344,-0.285C0.338,-0.285 0.329,-0.286 0.317,-0.286C0.305,-0.287 0.296,-0.288 0.291,-0.288C0.264,-0.288 0.245,-0.283 0.235,-0.275C0.226,-0.266 0.221,-0.249 0.221,-0.224C0.221,-0.21 0.221,-0.188 0.221,-0.16C0.222,-0.131 0.222,-0.11 0.222,-0.096C0.222,-0.087 0.223,-0.073 0.224,-0.054C0.225,-0.035 0.226,-0.021 0.226,-0.012C0.226,-0.004 0.221,-0 0.21,0.001C0.194,0.002 0.17,0.003 0.138,0.003C0.107,0.003 0.083,0.002 0.064,-0C0.053,-0.001 0.048,-0.007 0.048,-0.016C0.048,-0.042 0.048,-0.081 0.048,-0.133C0.049,-0.185 0.049,-0.224 0.049,-0.25C0.049,-0.326 0.042,-0.389 0.028,-0.439C0.027,-0.442 0.027,-0.444 0.027,-0.446C0.027,-0.451 0.029,-0.454 0.034,-0.456C0.052,-0.458 0.078,-0.462 0.113,-0.467C0.164,-0.477 0.191,-0.482 0.192,-0.482C0.198,-0.482 0.202,-0.472 0.204,-0.451C0.205,-0.431 0.208,-0.42 0.212,-0.42C0.208,-0.42 0.221,-0.429 0.252,-0.446C0.284,-0.463 0.314,-0.472 0.343,-0.472C0.361,-0.472 0.37,-0.468 0.37,-0.46C0.37,-0.451 0.369,-0.437 0.367,-0.42C0.365,-0.401 0.364,-0.388 0.364,-0.38C0.364,-0.37 0.364,-0.358 0.364,-0.342C0.365,-0.323 0.365,-0.31 0.365,-0.304Z" style="fill-rule:nonzero;"/>
        </g>
        <g transform="matrix(12,0,0,12,61.4947,15.7339)">
            <path d="M0.682,-0.346C0.682,-0.25 0.651,-0.167 0.59,-0.097C0.535,-0.034 0.459,-0.001 0.361,0.002C0.342,0.003 0.29,0.003 0.205,0.003C0.189,0.003 0.165,0.002 0.133,0.001C0.101,0 0.077,-0 0.061,-0C0.052,-0 0.047,-0.004 0.047,-0.011C0.047,-0.047 0.048,-0.101 0.051,-0.173C0.054,-0.244 0.055,-0.298 0.055,-0.334C0.055,-0.371 0.054,-0.427 0.051,-0.502C0.048,-0.577 0.047,-0.633 0.047,-0.67C0.047,-0.677 0.052,-0.681 0.061,-0.682C0.084,-0.685 0.122,-0.686 0.175,-0.686C0.275,-0.686 0.34,-0.685 0.37,-0.682C0.447,-0.674 0.507,-0.654 0.551,-0.623C0.592,-0.594 0.624,-0.553 0.648,-0.5C0.671,-0.45 0.682,-0.399 0.682,-0.346ZM0.495,-0.346C0.495,-0.401 0.479,-0.446 0.446,-0.481C0.413,-0.517 0.369,-0.535 0.314,-0.535C0.264,-0.535 0.239,-0.528 0.239,-0.515C0.239,-0.496 0.238,-0.467 0.238,-0.428C0.237,-0.39 0.237,-0.361 0.237,-0.342C0.237,-0.323 0.237,-0.295 0.238,-0.257C0.238,-0.219 0.239,-0.19 0.239,-0.171C0.239,-0.157 0.265,-0.15 0.317,-0.15C0.373,-0.15 0.417,-0.169 0.45,-0.206C0.48,-0.242 0.495,-0.288 0.495,-0.346Z" style="fill-rule:nonzero;"/>
        </g>
        <g transform="matrix(12,0,0,12,70.0494,15.7339)">
            <path d="M0.365,-0.304C0.365,-0.292 0.358,-0.285 0.344,-0.285C0.338,-0.285 0.329,-0.286 0.317,-0.286C0.305,-0.287 0.296,-0.288 0.291,-0.288C0.264,-0.288 0.245,-0.283 0.235,-0.275C0.226,-0.266 0.221,-0.249 0.221,-0.224C0.221,-0.21 0.221,-0.188 0.221,-0.16C0.222,-0.131 0.222,-0.11 0.222,-0.096C0.222,-0.087 0.223,-0.073 0.224,-0.054C0.225,-0.035 0.226,-0.021 0.226,-0.012C0.226,-0.004 0.221,-0 0.21,0.001C0.194,0.002 0.17,0.003 0.138,0.003C0.107,0.003 0.083,0.002 0.064,-0C0.053,-0.001 0.048,-0.007 0.048,-0.016C0.048,-0.042 0.048,-0.081 0.048,-0.133C0.049,-0.185 0.049,-0.224 0.049,-0.25C0.049,-0.326 0.042,-0.389 0.028,-0.439C0.027,-0.442 0.027,-0.444 0.027,-0.446C0.027,-0.451 0.029,-0.454 0.034,-0.456C0.052,-0.458 0.078,-0.462 0.113,-0.467C0.164,-0.477 0.191,-0.482 0.192,-0.482C0.198,-0.482 0.202,-0.472 0.204,-0.451C0.205,-0.431 0.208,-0.42 0.212,-0.42C0.208,-0.42 0.221,-0.429 0.252,-0.446C0.284,-0.463 0.314,-0.472 0.343,-0.472C0.361,-0.472 0.37,-0.468 0.37,-0.46C0.37,-0.451 0.369,-0.437 0.367,-0.42C0.365,-0.401 0.364,-0.388 0.364,-0.38C0.364,-0.37 0.364,-0.358 0.364,-0.342C0.365,-0.323 0.365,-0.31 0.365,-0.304Z" style="fill-rule:nonzero;"/>
        </g>
        <g transform="matrix(12,0,0,12,74.6197,15.7339)">
            <path d="M0.235,-0.587C0.235,-0.53 0.203,-0.502 0.139,-0.502C0.112,-0.502 0.089,-0.509 0.071,-0.523C0.052,-0.539 0.042,-0.56 0.042,-0.587C0.042,-0.612 0.052,-0.633 0.072,-0.649C0.091,-0.664 0.113,-0.672 0.139,-0.672C0.165,-0.672 0.187,-0.664 0.205,-0.649C0.225,-0.633 0.235,-0.612 0.235,-0.587ZM0.222,-0.224C0.222,-0.2 0.223,-0.165 0.224,-0.118C0.225,-0.071 0.225,-0.036 0.225,-0.012C0.225,-0.005 0.221,-0.001 0.213,-0C0.202,0.002 0.177,0.003 0.138,0.003C0.099,0.003 0.074,0.002 0.063,-0C0.056,-0.001 0.051,-0.003 0.05,-0.006C0.049,-0.008 0.049,-0.013 0.049,-0.021C0.049,-0.043 0.049,-0.077 0.05,-0.122C0.051,-0.167 0.052,-0.201 0.052,-0.224C0.052,-0.317 0.048,-0.39 0.041,-0.445C0.04,-0.45 0.04,-0.453 0.04,-0.455C0.04,-0.462 0.044,-0.465 0.053,-0.465C0.062,-0.465 0.076,-0.464 0.095,-0.462C0.114,-0.46 0.128,-0.459 0.137,-0.459C0.147,-0.459 0.161,-0.46 0.18,-0.461C0.199,-0.463 0.213,-0.464 0.222,-0.464C0.23,-0.464 0.234,-0.461 0.234,-0.454C0.234,-0.453 0.234,-0.45 0.233,-0.445C0.226,-0.381 0.222,-0.308 0.222,-0.224Z" style="fill-rule:nonzero;"/>
        </g>
        <g transform="matrix(12,0,0,12,77.9186,15.7339)">
            <path d="M0.527,-0.014C0.527,-0.005 0.522,-0 0.513,0.001C0.504,0.002 0.48,0.003 0.442,0.003C0.401,0.003 0.375,0.002 0.366,-0C0.356,-0.002 0.351,-0.009 0.351,-0.02C0.351,-0.035 0.352,-0.058 0.353,-0.089C0.354,-0.12 0.354,-0.144 0.354,-0.159C0.354,-0.171 0.354,-0.189 0.353,-0.213C0.352,-0.237 0.352,-0.255 0.352,-0.267C0.352,-0.312 0.333,-0.334 0.294,-0.334C0.281,-0.334 0.266,-0.328 0.25,-0.317C0.231,-0.305 0.222,-0.293 0.222,-0.281L0.222,-0.017C0.222,-0.006 0.217,-0 0.207,0.001C0.196,0.002 0.172,0.003 0.137,0.003C0.099,0.003 0.074,0.002 0.063,-0C0.053,-0.002 0.048,-0.007 0.048,-0.016C0.048,-0.042 0.048,-0.08 0.048,-0.131C0.049,-0.182 0.049,-0.22 0.049,-0.246C0.049,-0.327 0.042,-0.391 0.03,-0.437C0.029,-0.44 0.029,-0.442 0.029,-0.444C0.029,-0.45 0.031,-0.453 0.036,-0.455C0.057,-0.457 0.084,-0.461 0.118,-0.466C0.17,-0.476 0.199,-0.481 0.206,-0.481C0.209,-0.481 0.212,-0.47 0.214,-0.448C0.216,-0.426 0.219,-0.415 0.222,-0.415C0.219,-0.415 0.236,-0.426 0.275,-0.449C0.313,-0.472 0.347,-0.483 0.376,-0.483C0.417,-0.483 0.452,-0.473 0.479,-0.454C0.51,-0.431 0.526,-0.4 0.526,-0.36L0.526,-0.204C0.526,-0.183 0.526,-0.151 0.526,-0.109C0.527,-0.067 0.527,-0.035 0.527,-0.014Z" style="fill-rule:nonzero;"/>
        </g>
        <g transform="matrix(12,0,0,12,84.7213,15.7339)">
            <path d="M0.527,-0.014C0.527,-0.005 0.522,-0 0.513,0.001C0.504,0.002 0.48,0.003 0.442,0.003C0.401,0.003 0.375,0.002 0.366,-0C0.356,-0.002 0.351,-0.009 0.351,-0.02C0.351,-0.035 0.352,-0.058 0.353,-0.089C0.354,-0.12 0.354,-0.144 0.354,-0.159C0.354,-0.171 0.354,-0.189 0.353,-0.213C0.352,-0.237 0.352,-0.255 0.352,-0.267C0.352,-0.312 0.333,-0.334 0.294,-0.334C0.281,-0.334 0.266,-0.328 0.25,-0.317C0.231,-0.305 0.222,-0.293 0.222,-0.281L0.222,-0.017C0.222,-0.006 0.217,-0 0.207,0.001C0.196,0.002 0.172,0.003 0.137,0.003C0.099,0.003 0.074,0.002 0.063,-0C0.053,-0.002 0.048,-0.007 0.048,-0.016C0.048,-0.042 0.048,-0.08 0.048,-0.131C0.049,-0.182 0.049,-0.22 0.049,-0.246C0.049,-0.327 0.042,-0.391 0.03,-0.437C0.029,-0.44 0.029,-0.442 0.029,-0.444C0.029,-0.45 0.031,-0.453 0.036,-0.455C0.057,-0.457 0.084,-0.461 0.118,-0.466C0.17,-0.476 0.199,-0.481 0.206,-0.481C0.209,-0.481 0.212,-0.47 0.214,-0.448C0.216,-0.426 0.219,-0.415 0.222,-0.415C0.219,-0.415 0.236,-0.426 0.275,-0.449C0.313,-0.472 0.347,-0.483 0.376,-0.483C0.417,-0.483 0.452,-0.473 0.479,-0.454C0.51,-0.431 0.526,-0.4 0.526,-0.36L0.526,-0.204C0.526,-0.183 0.526,-0.151 0.526,-0.109C0.527,-0.067 0.527,-0.035 0.527,-0.014Z" style="fill-rule:nonzero;"/>
        </g>
        <g transform="matrix(12,0,0,12,91.524,15.7339)">
            <path d="M0.532,-0.244C0.532,-0.219 0.534,-0.182 0.537,-0.132C0.54,-0.083 0.541,-0.046 0.541,-0.021C0.541,-0.008 0.535,-0.001 0.524,-0C0.484,0.003 0.437,0.004 0.385,0.004C0.379,0.004 0.375,-0.005 0.373,-0.024C0.371,-0.042 0.368,-0.052 0.365,-0.052C0.363,-0.051 0.359,-0.048 0.355,-0.044C0.319,-0.007 0.279,0.011 0.238,0.011C0.174,0.011 0.122,-0.014 0.08,-0.064C0.041,-0.111 0.021,-0.167 0.021,-0.232C0.021,-0.307 0.041,-0.368 0.082,-0.414C0.124,-0.461 0.182,-0.485 0.256,-0.485C0.307,-0.485 0.347,-0.467 0.377,-0.431C0.378,-0.43 0.379,-0.429 0.38,-0.429C0.383,-0.429 0.387,-0.437 0.39,-0.452C0.394,-0.468 0.399,-0.476 0.404,-0.476C0.416,-0.476 0.439,-0.473 0.473,-0.466C0.505,-0.459 0.528,-0.454 0.542,-0.449C0.547,-0.447 0.549,-0.445 0.549,-0.441C0.549,-0.44 0.549,-0.437 0.548,-0.431C0.537,-0.372 0.532,-0.31 0.532,-0.244ZM0.375,-0.241C0.375,-0.269 0.366,-0.292 0.349,-0.31C0.331,-0.328 0.309,-0.337 0.281,-0.337C0.253,-0.337 0.23,-0.328 0.213,-0.31C0.196,-0.292 0.187,-0.269 0.187,-0.241C0.187,-0.215 0.196,-0.192 0.214,-0.173C0.233,-0.154 0.255,-0.145 0.281,-0.145C0.308,-0.145 0.331,-0.154 0.349,-0.172C0.366,-0.19 0.375,-0.213 0.375,-0.241Z" style="fill-rule:nonzero;"/>
        </g>
        <g transform="matrix(12,0,0,12,98.5787,15.7339)">
            <path d="M0.527,-0.014C0.527,-0.005 0.522,-0 0.513,0.001C0.504,0.002 0.48,0.003 0.442,0.003C0.401,0.003 0.375,0.002 0.366,-0C0.356,-0.002 0.351,-0.009 0.351,-0.02C0.351,-0.035 0.352,-0.058 0.353,-0.089C0.354,-0.12 0.354,-0.144 0.354,-0.159C0.354,-0.171 0.354,-0.189 0.353,-0.213C0.352,-0.237 0.352,-0.255 0.352,-0.267C0.352,-0.312 0.333,-0.334 0.294,-0.334C0.281,-0.334 0.266,-0.328 0.25,-0.317C0.231,-0.305 0.222,-0.293 0.222,-0.281L0.222,-0.017C0.222,-0.006 0.217,-0 0.207,0.001C0.196,0.002 0.172,0.003 0.137,0.003C0.099,0.003 0.074,0.002 0.063,-0C0.053,-0.002 0.048,-0.007 0.048,-0.016C0.048,-0.042 0.048,-0.08 0.048,-0.131C0.049,-0.182 0.049,-0.22 0.049,-0.246C0.049,-0.327 0.042,-0.391 0.03,-0.437C0.029,-0.44 0.029,-0.442 0.029,-0.444C0.029,-0.45 0.031,-0.453 0.036,-0.455C0.057,-0.457 0.084,-0.461 0.118,-0.466C0.17,-0.476 0.199,-0.481 0.206,-0.481C0.209,-0.481 0.212,-0.47 0.214,-0.448C0.216,-0.426 0.219,-0.415 0.222,-0.415C0.219,-0.415 0.236,-0.426 0.275,-0.449C0.313,-0.472 0.347,-0.483 0.376,-0.483C0.417,-0.483 0.452,-0.473 0.479,-0.454C0.51,-0.431 0.526,-0.4 0.526,-0.36L0.526,-0.204C0.526,-0.183 0.526,-0.151 0.526,-0.109C0.527,-0.067 0.527,-0.035 0.527,-0.014Z" style="fill-rule:nonzero;"/>
        </g>
        <g transform="matrix(12,0,0,12,105.381,15.7339)">
            <path d="M0.196,-0.597C0.196,-0.543 0.184,-0.484 0.16,-0.421C0.158,-0.415 0.154,-0.412 0.149,-0.411C0.141,-0.41 0.131,-0.409 0.117,-0.409C0.108,-0.409 0.098,-0.41 0.089,-0.411C0.075,-0.413 0.062,-0.443 0.051,-0.502C0.042,-0.549 0.038,-0.585 0.038,-0.612L0.038,-0.672C0.038,-0.679 0.04,-0.684 0.044,-0.685C0.049,-0.687 0.073,-0.688 0.114,-0.688C0.158,-0.688 0.182,-0.687 0.187,-0.685C0.193,-0.682 0.196,-0.653 0.196,-0.597Z" style="fill-rule:nonzero;"/>
        </g>
        <g transform="matrix(12,0,0,12,108.165,15.7339)">
            <path d="M0.327,-0.395C0.327,-0.392 0.325,-0.387 0.32,-0.382C0.311,-0.384 0.302,-0.385 0.292,-0.385C0.273,-0.385 0.257,-0.381 0.244,-0.373C0.229,-0.363 0.221,-0.349 0.221,-0.331C0.221,-0.32 0.229,-0.305 0.246,-0.288C0.271,-0.261 0.286,-0.243 0.292,-0.234C0.309,-0.21 0.317,-0.183 0.317,-0.155C0.317,-0.138 0.314,-0.121 0.307,-0.102C0.3,-0.082 0.29,-0.067 0.279,-0.057C0.255,-0.036 0.227,-0.019 0.194,-0.004C0.16,0.011 0.127,0.018 0.098,0.018C0.092,0.018 0.077,0 0.054,-0.035C0.032,-0.07 0.021,-0.092 0.021,-0.1C0.021,-0.103 0.022,-0.104 0.026,-0.105C0.049,-0.109 0.072,-0.113 0.095,-0.118C0.123,-0.127 0.138,-0.142 0.138,-0.163C0.138,-0.177 0.129,-0.194 0.113,-0.212C0.083,-0.245 0.068,-0.263 0.066,-0.265C0.05,-0.288 0.042,-0.313 0.042,-0.339C0.042,-0.388 0.066,-0.429 0.116,-0.463C0.16,-0.494 0.207,-0.509 0.258,-0.509C0.263,-0.509 0.276,-0.491 0.296,-0.456C0.317,-0.421 0.327,-0.401 0.327,-0.395Z" style="fill-rule:nonzero;"/>
        </g>
    </g>
    <g transform="matrix(1,0,0,1,9.09143,0.457433)">
        <g transform="matrix(12,0,0,12,15.7707,28.847)">
            <path d="M0.627,-0.005C0.627,-0.003 0.624,-0.001 0.617,-0C0.605,0.002 0.574,0.003 0.524,0.003C0.481,0.003 0.452,0.002 0.437,-0C0.43,-0.001 0.426,-0.002 0.425,-0.002C0.423,-0.003 0.421,-0.007 0.418,-0.012C0.413,-0.025 0.406,-0.044 0.396,-0.069C0.384,-0.101 0.364,-0.149 0.337,-0.213C0.331,-0.226 0.318,-0.233 0.296,-0.234C0.306,-0.233 0.289,-0.233 0.246,-0.233C0.241,-0.233 0.239,-0.225 0.239,-0.208C0.239,-0.186 0.241,-0.153 0.245,-0.109C0.249,-0.065 0.251,-0.032 0.251,-0.01C0.251,-0.004 0.25,-0.001 0.247,-0C0.242,0 0.237,0.001 0.233,0.001C0.214,0.002 0.184,0.003 0.143,0.003C0.097,0.003 0.069,0.002 0.059,-0C0.05,-0.002 0.045,-0.007 0.045,-0.015C0.045,-0.051 0.047,-0.105 0.05,-0.177C0.053,-0.25 0.055,-0.304 0.055,-0.34C0.055,-0.478 0.052,-0.585 0.046,-0.662L0.045,-0.669C0.045,-0.674 0.05,-0.678 0.061,-0.68C0.071,-0.682 0.121,-0.684 0.21,-0.686C0.27,-0.687 0.318,-0.688 0.354,-0.688C0.428,-0.688 0.489,-0.671 0.536,-0.638C0.589,-0.6 0.615,-0.545 0.615,-0.474C0.615,-0.427 0.608,-0.389 0.595,-0.36C0.581,-0.332 0.556,-0.305 0.519,-0.278C0.512,-0.273 0.508,-0.268 0.508,-0.263C0.508,-0.264 0.528,-0.223 0.567,-0.141C0.607,-0.059 0.627,-0.013 0.627,-0.005ZM0.422,-0.443C0.422,-0.483 0.409,-0.51 0.383,-0.525C0.363,-0.537 0.331,-0.543 0.288,-0.543C0.257,-0.543 0.241,-0.538 0.239,-0.529C0.237,-0.518 0.236,-0.486 0.236,-0.433L0.237,-0.367C0.237,-0.366 0.242,-0.364 0.252,-0.362C0.272,-0.359 0.293,-0.358 0.315,-0.358C0.386,-0.358 0.422,-0.386 0.422,-0.443Z" style="fill-rule:nonzero;"/>
        </g>
        <g transform="matrix(12,0,0,12,23.4172,28.847)">
            <path d="M0.489,-0.265C0.489,-0.232 0.478,-0.214 0.457,-0.209C0.453,-0.208 0.42,-0.205 0.356,-0.198C0.318,-0.194 0.26,-0.189 0.184,-0.183C0.189,-0.162 0.202,-0.146 0.226,-0.135C0.244,-0.126 0.266,-0.121 0.29,-0.121C0.319,-0.121 0.348,-0.129 0.377,-0.145C0.39,-0.152 0.402,-0.16 0.415,-0.168C0.421,-0.165 0.433,-0.148 0.449,-0.118C0.465,-0.088 0.473,-0.069 0.473,-0.061C0.473,-0.059 0.471,-0.055 0.466,-0.05C0.426,-0.007 0.364,0.014 0.281,0.014C0.203,0.014 0.141,-0.008 0.093,-0.054C0.044,-0.1 0.02,-0.161 0.02,-0.238C0.02,-0.313 0.042,-0.374 0.085,-0.422C0.13,-0.471 0.19,-0.496 0.264,-0.496C0.327,-0.496 0.38,-0.473 0.423,-0.428C0.467,-0.382 0.489,-0.328 0.489,-0.265ZM0.318,-0.295C0.318,-0.315 0.311,-0.333 0.296,-0.348C0.282,-0.363 0.265,-0.371 0.245,-0.371C0.225,-0.371 0.208,-0.362 0.194,-0.345C0.182,-0.329 0.176,-0.311 0.176,-0.289C0.176,-0.28 0.18,-0.276 0.189,-0.276C0.214,-0.276 0.251,-0.28 0.302,-0.287C0.313,-0.289 0.318,-0.291 0.318,-0.295Z" style="fill-rule:nonzero;"/>
        </g>
        <g transform="matrix(12,0,0,12,29.4289,28.847)">
            <path d="M0.327,-0.395C0.327,-0.392 0.325,-0.387 0.32,-0.382C0.311,-0.384 0.302,-0.385 0.292,-0.385C0.273,-0.385 0.257,-0.381 0.244,-0.373C0.229,-0.363 0.221,-0.349 0.221,-0.331C0.221,-0.32 0.229,-0.305 0.246,-0.288C0.271,-0.261 0.286,-0.243 0.292,-0.234C0.309,-0.21 0.317,-0.183 0.317,-0.155C0.317,-0.138 0.314,-0.121 0.307,-0.102C0.3,-0.082 0.29,-0.067 0.279,-0.057C0.255,-0.036 0.227,-0.019 0.194,-0.004C0.16,0.011 0.127,0.018 0.098,0.018C0.092,0.018 0.077,0 0.054,-0.035C0.032,-0.07 0.021,-0.092 0.021,-0.1C0.021,-0.103 0.022,-0.104 0.026,-0.105C0.049,-0.109 0.072,-0.113 0.095,-0.118C0.123,-0.127 0.138,-0.142 0.138,-0.163C0.138,-0.177 0.129,-0.194 0.113,-0.212C0.083,-0.245 0.068,-0.263 0.066,-0.265C0.05,-0.288 0.042,-0.313 0.042,-0.339C0.042,-0.388 0.066,-0.429 0.116,-0.463C0.16,-0.494 0.207,-0.509 0.258,-0.509C0.263,-0.509 0.276,-0.491 0.296,-0.456C0.317,-0.421 0.327,-0.401 0.327,-0.395Z" style="fill-rule:nonzero;"/>
        </g>
        <g transform="matrix(12,0,0,12,33.7004,28.847)">
            <path d="M0.544,-0.444C0.544,-0.42 0.543,-0.384 0.541,-0.335C0.538,-0.287 0.537,-0.251 0.537,-0.227C0.537,-0.204 0.538,-0.168 0.54,-0.122C0.541,-0.075 0.542,-0.04 0.542,-0.017C0.542,-0.008 0.538,-0.002 0.53,-0C0.517,0.003 0.491,0.005 0.451,0.005C0.416,0.005 0.391,0.004 0.377,0.002C0.371,0.001 0.367,-0.003 0.365,-0.01C0.364,-0.02 0.363,-0.029 0.362,-0.039C0.361,-0.054 0.358,-0.062 0.355,-0.062C0.36,-0.062 0.344,-0.05 0.306,-0.028C0.269,-0.006 0.235,0.005 0.204,0.005C0.118,0.005 0.067,-0.034 0.051,-0.112C0.044,-0.148 0.04,-0.2 0.04,-0.269C0.04,-0.343 0.046,-0.402 0.058,-0.445C0.062,-0.458 0.068,-0.465 0.078,-0.465C0.093,-0.465 0.116,-0.465 0.146,-0.464C0.177,-0.464 0.2,-0.464 0.215,-0.464C0.225,-0.464 0.23,-0.46 0.23,-0.451C0.23,-0.449 0.23,-0.445 0.229,-0.441C0.222,-0.397 0.219,-0.352 0.219,-0.306C0.219,-0.25 0.221,-0.211 0.224,-0.19C0.23,-0.154 0.251,-0.136 0.288,-0.136C0.302,-0.136 0.318,-0.143 0.335,-0.155C0.351,-0.168 0.36,-0.181 0.361,-0.195C0.361,-0.207 0.362,-0.289 0.362,-0.44C0.362,-0.451 0.363,-0.457 0.364,-0.459C0.366,-0.462 0.372,-0.464 0.382,-0.464C0.398,-0.464 0.422,-0.464 0.454,-0.463C0.486,-0.463 0.51,-0.463 0.526,-0.463C0.536,-0.463 0.541,-0.46 0.543,-0.456C0.544,-0.453 0.544,-0.449 0.544,-0.444Z" style="fill-rule:nonzero;"/>
        </g>
        <g transform="matrix(12,0,0,12,40.6965,28.847)">
            <path d="M0.822,-0.018C0.822,-0.007 0.817,-0 0.807,0.001C0.797,0.002 0.773,0.003 0.735,0.003C0.695,0.003 0.67,0.002 0.661,-0C0.651,-0.002 0.646,-0.01 0.646,-0.024C0.646,-0.039 0.646,-0.061 0.647,-0.091C0.648,-0.121 0.649,-0.143 0.649,-0.158C0.649,-0.215 0.648,-0.256 0.647,-0.28C0.645,-0.319 0.627,-0.338 0.592,-0.338C0.576,-0.338 0.561,-0.331 0.546,-0.319C0.531,-0.306 0.523,-0.292 0.521,-0.276C0.52,-0.262 0.519,-0.222 0.519,-0.156C0.519,-0.14 0.52,-0.117 0.521,-0.086C0.521,-0.055 0.522,-0.032 0.522,-0.016C0.522,-0.005 0.517,-0 0.508,-0L0.36,-0C0.351,-0 0.346,-0.007 0.346,-0.02C0.346,-0.035 0.347,-0.058 0.348,-0.089C0.349,-0.119 0.349,-0.143 0.349,-0.158C0.349,-0.17 0.349,-0.188 0.348,-0.213C0.347,-0.237 0.347,-0.256 0.347,-0.268C0.347,-0.315 0.329,-0.338 0.294,-0.338C0.28,-0.338 0.264,-0.332 0.248,-0.321C0.229,-0.309 0.22,-0.297 0.22,-0.283C0.22,-0.254 0.22,-0.209 0.221,-0.15C0.221,-0.091 0.221,-0.047 0.221,-0.018C0.221,-0.01 0.22,-0.005 0.218,-0.003C0.216,-0.001 0.211,0 0.203,0.001C0.188,0.002 0.165,0.003 0.134,0.003C0.113,0.003 0.09,0.002 0.064,-0C0.056,-0.001 0.052,-0.002 0.05,-0.003C0.049,-0.005 0.048,-0.01 0.048,-0.018C0.048,-0.044 0.048,-0.083 0.048,-0.135C0.049,-0.187 0.049,-0.226 0.049,-0.252C0.049,-0.305 0.045,-0.365 0.037,-0.432C0.036,-0.436 0.036,-0.439 0.036,-0.441C0.036,-0.446 0.038,-0.45 0.043,-0.452C0.05,-0.455 0.064,-0.458 0.083,-0.459C0.108,-0.462 0.122,-0.463 0.127,-0.464C0.13,-0.465 0.143,-0.468 0.166,-0.474C0.181,-0.479 0.194,-0.481 0.204,-0.481C0.21,-0.481 0.214,-0.47 0.214,-0.447C0.214,-0.424 0.215,-0.413 0.218,-0.413C0.221,-0.414 0.225,-0.417 0.229,-0.42C0.258,-0.443 0.281,-0.458 0.298,-0.467C0.323,-0.479 0.351,-0.485 0.38,-0.485C0.41,-0.485 0.437,-0.478 0.46,-0.465C0.486,-0.45 0.503,-0.429 0.511,-0.402C0.528,-0.425 0.552,-0.445 0.583,-0.461C0.613,-0.477 0.642,-0.485 0.671,-0.485C0.714,-0.485 0.749,-0.475 0.776,-0.455C0.806,-0.433 0.822,-0.401 0.822,-0.359C0.822,-0.342 0.821,-0.316 0.82,-0.281C0.819,-0.246 0.819,-0.22 0.819,-0.203C0.819,-0.183 0.819,-0.152 0.82,-0.111C0.821,-0.069 0.822,-0.039 0.822,-0.018Z" style="fill-rule:nonzero;"/>
        </g>
        <g transform="matrix(12,0,0,12,51.173,28.847)">
            <path d="M0.489,-0.265C0.489,-0.232 0.478,-0.214 0.457,-0.209C0.453,-0.208 0.42,-0.205 0.356,-0.198C0.318,-0.194 0.26,-0.189 0.184,-0.183C0.189,-0.162 0.202,-0.146 0.226,-0.135C0.244,-0.126 0.266,-0.121 0.29,-0.121C0.319,-0.121 0.348,-0.129 0.377,-0.145C0.39,-0.152 0.402,-0.16 0.415,-0.168C0.421,-0.165 0.433,-0.148 0.449,-0.118C0.465,-0.088 0.473,-0.069 0.473,-0.061C0.473,-0.059 0.471,-0.055 0.466,-0.05C0.426,-0.007 0.364,0.014 0.281,0.014C0.203,0.014 0.141,-0.008 0.093,-0.054C0.044,-0.1 0.02,-0.161 0.02,-0.238C0.02,-0.313 0.042,-0.374 0.085,-0.422C0.13,-0.471 0.19,-0.496 0.264,-0.496C0.327,-0.496 0.38,-0.473 0.423,-0.428C0.467,-0.382 0.489,-0.328 0.489,-0.265ZM0.318,-0.295C0.318,-0.315 0.311,-0.333 0.296,-0.348C0.282,-0.363 0.265,-0.371 0.245,-0.371C0.225,-0.371 0.208,-0.362 0.194,-0.345C0.182,-0.329 0.176,-0.311 0.176,-0.289C0.176,-0.28 0.18,-0.276 0.189,-0.276C0.214,-0.276 0.251,-0.28 0.302,-0.287C0.313,-0.289 0.318,-0.291 0.318,-0.295ZM0.154,-0.525C0.148,-0.525 0.145,-0.528 0.145,-0.535L0.147,-0.56C0.147,-0.564 0.146,-0.57 0.145,-0.578C0.144,-0.586 0.144,-0.592 0.144,-0.596C0.144,-0.601 0.147,-0.604 0.154,-0.607C0.17,-0.613 0.201,-0.629 0.247,-0.655C0.266,-0.67 0.297,-0.691 0.337,-0.719C0.339,-0.721 0.342,-0.722 0.347,-0.724C0.349,-0.723 0.352,-0.722 0.355,-0.719C0.362,-0.711 0.374,-0.7 0.391,-0.686C0.4,-0.681 0.413,-0.673 0.431,-0.661C0.436,-0.658 0.438,-0.654 0.438,-0.651C0.438,-0.649 0.436,-0.645 0.432,-0.641C0.403,-0.614 0.36,-0.588 0.303,-0.564C0.245,-0.54 0.197,-0.527 0.159,-0.525L0.154,-0.525Z" style="fill-rule:nonzero;"/>
        </g>
    </g>
</svg>
