<?xml version="1.0" standalone="no"?>
<!DOCTYPE svg PUBLIC "-//W3C//DTD SVG 20010904//EN"
 "http://www.w3.org/TR/2001/REC-SVG-20010904/DTD/svg10.dtd">
<svg version="1.0" xmlns="http://www.w3.org/2000/svg"
 width="10008.000000pt" height="10008.000000pt" viewBox="0 0 10008.000000 10008.000000"
 preserveAspectRatio="xMidYMid meet">
<metadata>
Created by potrace 1.11, written by Peter Selinger 2001-2013
</metadata>
<g transform="translate(0.000000,10008.000000) scale(0.100000,-0.100000)"
fill="#000000" stroke="none">
<path d="M49657 100015 c-1 -1 -85 -5 -187 -9 -102 -4 -205 -9 -230 -11 -56
-4 -336 -35 -370 -40 -14 -2 -45 -7 -70 -10 -25 -3 -97 -15 -160 -26 -63 -12
-126 -23 -140 -25 -14 -3 -32 -7 -40 -9 -8 -3 -33 -7 -55 -11 -61 -9 -428
-101 -540 -136 -248 -76 -501 -168 -695 -251 -117 -51 -290 -129 -305 -138 -5
-4 -80 -42 -165 -86 -320 -164 -750 -441 -1010 -650 -304 -244 -611 -528 -824
-763 -161 -178 -415 -497 -537 -675 -19 -27 -37 -51 -41 -53 -5 -2 -8 -7 -8
-12 0 -4 -25 -45 -56 -91 -31 -46 -74 -113 -95 -149 -22 -36 -44 -72 -49 -80
-24 -38 -100 -171 -100 -175 0 -2 -14 -28 -31 -57 -35 -59 -162 -310 -204
-403 -47 -105 -127 -290 -129 -300 -2 -5 -9 -23 -15 -40 -123 -294 -285 -856
-337 -1164 -3 -18 -8 -43 -10 -55 -3 -11 -9 -48 -15 -81 -5 -33 -12 -71 -15
-85 -2 -14 -7 -44 -10 -66 -2 -23 -7 -51 -9 -62 -2 -12 -7 -52 -10 -89 -4 -37
-9 -75 -10 -84 -2 -9 -6 -52 -10 -95 -4 -43 -9 -95 -11 -114 -23 -224 -23
-804 1 -1055 2 -22 6 -69 9 -105 6 -62 20 -187 32 -275 3 -22 7 -56 10 -75 3
-19 7 -46 9 -60 3 -14 7 -41 10 -60 3 -19 8 -46 10 -60 3 -14 7 -36 10 -50 3
-14 10 -50 16 -80 5 -30 12 -66 15 -80 5 -25 40 -173 59 -250 3 -11 7 -29 9
-39 34 -152 183 -613 245 -756 5 -11 37 -87 71 -170 110 -264 310 -652 453
-880 55 -88 200 -310 206 -315 3 -3 19 -25 36 -50 28 -43 84 -119 95 -130 3
-3 25 -32 50 -65 24 -33 50 -66 57 -75 7 -8 34 -42 60 -75 52 -65 66 -81 192
-225 121 -138 446 -459 591 -584 167 -145 162 -141 265 -221 553 -432 1124
-752 1780 -1000 155 -58 475 -162 555 -180 8 -2 69 -17 135 -34 66 -17 140
-35 165 -40 224 -45 300 -60 330 -65 19 -3 46 -8 60 -10 14 -3 43 -7 65 -10
22 -4 51 -8 65 -11 14 -2 50 -7 80 -10 30 -3 66 -7 80 -9 14 -2 54 -7 90 -11
66 -7 78 -8 260 -21 135 -11 703 -11 840 -1 58 4 134 10 170 13 35 2 76 6 90
9 14 2 54 6 90 10 66 6 78 8 160 20 161 24 235 36 305 50 39 8 84 16 100 19
67 13 144 30 300 69 487 121 998 318 1459 560 162 86 499 285 504 299 2 4 8 8
13 8 14 0 217 141 392 273 96 72 333 265 383 311 7 6 57 53 112 104 759 701
1337 1557 1703 2520 115 302 216 651 293 1007 8 39 17 90 21 115 4 24 8 47 10
50 1 3 6 25 9 50 3 25 8 54 10 66 2 12 7 45 11 75 3 30 8 61 10 69 2 8 7 40
10 70 3 30 8 66 10 80 2 14 6 61 10 105 4 44 9 88 11 98 9 48 19 347 18 572 0
294 -12 533 -39 750 -10 83 -17 132 -20 155 -2 14 -14 86 -25 160 -23 149 -89
465 -124 590 -8 30 -24 91 -36 135 -88 333 -287 841 -468 1195 -108 212 -279
509 -338 587 -13 17 -24 34 -24 38 0 15 -321 461 -350 485 -3 3 -21 25 -40 50
-137 179 -514 579 -715 757 -131 116 -134 119 -285 241 -209 169 -339 263
-545 397 -66 43 -132 86 -147 96 -15 11 -30 19 -34 19 -3 0 -18 8 -32 19 -15
10 -47 29 -72 43 -25 14 -73 41 -107 61 -98 56 -391 202 -494 247 -52 22 -102
45 -111 50 -92 52 -735 276 -878 305 -8 2 -51 13 -94 25 -44 11 -107 27 -140
34 -214 48 -213 47 -286 60 -99 17 -271 44 -320 50 -19 3 -54 7 -77 10 -93 13
-131 17 -208 22 -44 3 -91 7 -105 10 -58 9 -603 26 -613 19z"/>
<path d="M68139 98685 c-2 -1 -58 -6 -124 -10 -66 -3 -131 -8 -145 -10 -25 -3
-137 -15 -195 -20 -32 -3 -104 -13 -145 -20 -14 -2 -45 -7 -70 -10 -88 -12
-227 -37 -365 -66 -77 -17 -151 -33 -165 -35 -26 -5 -297 -79 -415 -113 -76
-21 -297 -97 -330 -111 -11 -5 -56 -23 -100 -39 -327 -119 -826 -368 -1145
-572 -228 -144 -453 -305 -635 -454 -146 -119 -144 -117 -185 -155 -21 -19
-62 -55 -91 -80 -131 -110 -429 -415 -596 -609 -165 -191 -443 -562 -521 -694
-7 -12 -38 -60 -67 -107 -30 -47 -81 -130 -112 -185 -32 -55 -62 -107 -68
-116 -44 -75 -243 -483 -293 -600 -87 -205 -214 -545 -228 -614 -1 -5 -9 -30
-17 -55 -41 -121 -153 -571 -173 -696 -3 -20 -8 -46 -10 -58 -19 -97 -49 -298
-59 -401 -4 -33 -8 -70 -10 -83 -2 -12 -7 -57 -10 -100 -3 -42 -8 -93 -10
-112 -7 -52 -17 -348 -18 -480 0 -121 11 -449 18 -503 2 -18 6 -66 10 -107 3
-41 8 -93 11 -115 2 -22 6 -62 9 -90 3 -27 8 -61 10 -75 2 -14 7 -45 10 -70 4
-25 8 -58 11 -75 3 -16 7 -43 10 -60 56 -347 154 -736 272 -1075 46 -132 114
-314 136 -362 8 -18 36 -82 61 -143 43 -101 185 -391 232 -475 37 -66 87 -155
97 -175 6 -11 43 -71 81 -133 39 -63 75 -121 80 -130 24 -40 197 -294 205
-302 3 -3 23 -30 45 -60 68 -95 242 -310 358 -442 124 -141 435 -453 567 -569
47 -40 87 -76 90 -79 60 -60 387 -312 560 -431 81 -56 318 -209 325 -209 2 0
24 -13 48 -30 25 -16 48 -30 52 -30 4 0 19 -8 33 -18 56 -39 393 -213 567
-292 142 -65 467 -191 641 -248 157 -52 226 -72 469 -138 50 -13 207 -49 255
-58 14 -2 59 -11 100 -20 41 -8 91 -17 110 -20 19 -3 44 -7 55 -10 11 -2 40
-7 65 -10 25 -3 54 -8 65 -10 11 -2 49 -7 85 -11 36 -4 67 -8 70 -10 3 -1 39
-6 80 -9 41 -4 89 -9 105 -11 17 -2 77 -6 135 -10 58 -4 132 -8 165 -11 75 -5
604 -5 665 0 25 2 92 7 150 11 144 10 255 21 320 30 14 2 48 7 75 10 28 4 61
8 75 10 14 3 43 7 65 10 37 5 168 29 225 40 14 3 48 9 75 15 42 8 204 43 255
55 8 2 15 4 15 5 0 1 7 3 15 5 257 55 723 213 1056 361 127 55 458 217 479
233 5 5 46 28 90 51 44 24 109 61 145 83 36 22 80 48 98 58 18 11 45 28 60 38
15 10 83 56 152 101 202 134 424 305 684 525 122 103 554 541 652 662 18 21
62 74 99 118 176 211 376 495 566 805 112 183 285 521 384 750 62 144 172 426
180 460 2 8 12 40 23 70 49 138 146 474 168 583 2 10 6 28 10 39 3 11 7 30 9
41 1 12 5 33 9 47 3 14 8 36 10 50 2 14 9 46 15 72 14 62 51 291 66 413 4 28
8 61 11 75 2 14 6 54 9 90 3 36 7 79 10 95 5 35 14 178 21 320 5 115 5 481 -1
570 -2 33 -6 108 -9 166 -3 58 -8 121 -10 140 -3 19 -7 65 -11 103 -3 38 -7
78 -10 90 -2 11 -7 44 -10 71 -9 83 -24 194 -30 215 -2 8 -6 33 -10 55 -8 58
-15 97 -20 125 -3 14 -7 34 -9 45 -19 95 -81 358 -102 430 -14 50 -32 115 -40
145 -48 181 -195 578 -302 820 -66 149 -228 469 -302 595 -29 50 -61 105 -72
124 -27 47 -95 154 -108 168 -5 7 -10 14 -10 17 0 9 -227 338 -266 385 -7 9
-48 61 -91 116 -43 55 -82 105 -88 111 -5 6 -30 36 -55 65 -97 116 -231 261
-380 409 -184 185 -268 261 -524 474 -26 22 -115 90 -199 153 -84 62 -156 116
-162 121 -42 32 -323 213 -395 254 -25 14 -85 49 -135 78 -235 137 -616 317
-895 423 -191 73 -492 173 -575 192 -11 2 -54 13 -95 25 -85 23 -314 77 -363
85 -18 4 -50 10 -72 15 -46 10 -168 31 -205 35 -14 2 -38 6 -55 9 -30 5 -75
12 -137 20 -131 17 -179 22 -298 31 -47 4 -98 9 -115 12 -34 5 -771 14 -776 8z"/>
<path d="M32188 91056 c-1 -2 -66 -6 -143 -10 -192 -8 -316 -19 -480 -41 -22
-2 -58 -7 -80 -10 -22 -2 -51 -7 -65 -9 -14 -3 -43 -8 -65 -11 -36 -5 -74 -11
-130 -21 -149 -27 -142 -26 -265 -54 -52 -12 -106 -23 -120 -26 -14 -3 -34 -8
-45 -11 -11 -4 -24 -8 -30 -9 -79 -16 -409 -114 -505 -149 -25 -9 -52 -18 -60
-20 -18 -4 -308 -116 -363 -139 -21 -9 -67 -30 -103 -46 -35 -17 -67 -30 -71
-30 -10 0 -415 -205 -505 -256 -209 -118 -615 -382 -723 -471 -5 -5 -39 -31
-75 -58 -126 -96 -272 -218 -390 -324 -132 -119 -410 -397 -510 -511 -46 -52
-97 -111 -114 -130 -56 -64 -151 -183 -245 -309 -90 -119 -321 -455 -321 -466
0 -3 -16 -28 -35 -55 -19 -27 -35 -52 -35 -54 0 -3 -14 -29 -31 -58 -126 -212
-265 -489 -374 -743 -41 -96 -75 -178 -75 -181 0 -3 -6 -20 -14 -37 -8 -18
-31 -79 -51 -137 -20 -58 -43 -122 -51 -142 -21 -58 -95 -305 -109 -368 -2 -8
-13 -49 -24 -91 -20 -74 -74 -312 -85 -374 -8 -40 -36 -203 -42 -240 -7 -41
-11 -71 -19 -130 -3 -27 -8 -61 -10 -75 -7 -48 -14 -116 -21 -195 -3 -44 -8
-96 -10 -115 -23 -221 -23 -814 1 -1040 2 -19 6 -69 9 -110 3 -41 8 -84 10
-95 3 -17 12 -93 21 -175 9 -82 37 -243 76 -435 139 -690 416 -1411 772 -2010
58 -98 224 -360 239 -380 5 -5 46 -62 91 -125 80 -113 175 -240 187 -250 3 -3
21 -25 40 -50 43 -56 51 -65 186 -220 114 -130 373 -395 508 -519 140 -128
407 -346 561 -458 97 -70 419 -282 525 -346 503 -301 1102 -552 1673 -702 76
-20 146 -38 155 -40 9 -1 58 -13 107 -24 50 -12 106 -24 125 -27 19 -3 64 -12
100 -19 125 -26 410 -66 575 -81 33 -3 78 -7 100 -9 236 -24 900 -24 1080 0
16 2 62 6 100 10 113 9 311 34 435 55 63 11 129 22 145 25 17 3 50 10 75 15
25 5 61 12 80 15 19 3 43 8 52 11 9 3 25 6 35 8 313 62 909 261 1248 416 202
93 459 224 565 288 19 12 42 25 50 29 25 11 242 145 292 180 26 18 52 33 57
33 5 0 11 3 13 8 2 4 28 24 58 44 110 74 342 248 463 348 315 259 610 552 875
870 132 158 121 144 223 280 505 676 886 1461 1093 2255 20 77 41 156 46 175
9 32 62 287 74 355 2 17 7 39 10 51 2 12 7 45 11 75 3 30 8 61 10 69 2 8 6 33
9 55 17 130 26 207 31 265 3 36 8 83 10 105 25 237 25 927 1 1120 -2 17 -7 66
-11 110 -4 44 -9 88 -10 97 -2 9 -6 43 -10 75 -3 32 -8 65 -10 73 -2 8 -7 42
-10 75 -4 32 -8 62 -10 65 -1 3 -6 27 -9 53 -4 26 -11 71 -17 100 -6 29 -12
63 -15 77 -10 54 -47 220 -71 315 -14 55 -26 107 -28 115 -7 33 -88 302 -121
400 -220 651 -562 1302 -970 1847 -204 271 -348 436 -616 708 -525 530 -1098
942 -1763 1269 -304 149 -448 210 -750 316 -265 93 -632 194 -845 233 -14 3
-74 14 -135 26 -60 11 -126 23 -145 26 -122 17 -253 35 -305 40 -33 4 -73 8
-90 10 -16 2 -66 6 -110 10 -44 3 -102 8 -130 10 -60 6 -622 15 -627 11z"/>
<path d="M84577 87863 c-1 0 -72 -4 -157 -8 -85 -3 -171 -8 -190 -10 -38 -4
-153 -15 -210 -20 -40 -3 -134 -15 -170 -20 -14 -2 -45 -6 -70 -10 -25 -3 -56
-8 -70 -10 -14 -3 -41 -7 -60 -10 -224 -36 -552 -110 -755 -171 -33 -10 -64
-19 -70 -20 -5 -1 -62 -18 -125 -39 -222 -72 -425 -151 -655 -253 -217 -96
-425 -203 -702 -363 -146 -84 -568 -372 -650 -444 -6 -5 -26 -21 -44 -35 -36
-28 -197 -158 -215 -175 -6 -5 -44 -39 -85 -75 -106 -94 -225 -208 -358 -344
-148 -152 -145 -149 -216 -231 -33 -39 -65 -74 -71 -80 -6 -5 -40 -46 -75 -90
-35 -44 -67 -82 -70 -85 -15 -13 -225 -298 -301 -410 -70 -102 -278 -435 -278
-444 0 -2 -29 -55 -64 -119 -56 -101 -188 -363 -191 -377 0 -3 -13 -32 -29
-65 -129 -275 -320 -830 -386 -1120 -7 -27 -14 -57 -16 -65 -24 -90 -87 -416
-99 -515 -4 -27 -8 -57 -10 -65 -2 -8 -7 -37 -10 -65 -3 -27 -9 -68 -12 -90
-6 -45 -8 -63 -17 -185 -4 -47 -9 -98 -11 -115 -21 -163 -21 -811 0 -995 2
-19 7 -71 10 -115 10 -107 19 -193 30 -265 2 -14 7 -45 10 -70 3 -25 8 -56 10
-70 4 -29 18 -113 20 -120 1 -3 5 -27 9 -55 4 -27 12 -66 16 -85 5 -19 12 -51
15 -70 3 -19 11 -55 16 -80 6 -25 13 -55 15 -67 2 -11 24 -97 48 -190 96 -364
223 -723 362 -1021 19 -40 34 -75 34 -78 0 -7 109 -226 169 -339 158 -298 451
-744 646 -983 88 -108 201 -242 258 -307 78 -88 399 -411 487 -490 689 -620
1490 -1089 2347 -1374 215 -72 522 -157 663 -185 14 -2 58 -12 97 -20 40 -9
87 -18 105 -21 18 -3 44 -8 58 -10 50 -10 66 -13 145 -25 44 -6 91 -13 105
-15 14 -3 50 -7 80 -11 30 -3 62 -8 71 -9 9 -2 52 -6 95 -10 43 -4 93 -9 109
-11 92 -12 315 -19 580 -19 310 0 493 8 675 29 25 3 68 8 95 11 28 3 61 7 75
10 14 2 48 7 75 10 45 5 199 29 250 39 11 2 36 6 55 10 19 3 46 9 60 12 14 3
39 8 55 10 274 48 828 216 1155 352 301 124 739 343 887 444 23 15 44 28 47
28 6 0 257 161 266 170 3 3 41 29 85 59 362 247 798 630 1115 980 47 52 90 99
95 105 53 59 261 318 310 386 22 30 45 61 52 68 12 13 224 330 302 452 22 36
41 70 41 77 0 6 4 13 8 15 10 4 112 186 200 360 191 373 365 822 467 1203 20
71 40 144 45 160 10 33 67 291 76 344 3 18 8 43 10 55 11 57 43 246 48 289 10
79 18 141 21 157 2 8 6 47 10 85 3 39 8 88 10 110 27 258 27 1003 0 1166 -2
13 -6 58 -9 99 -3 41 -8 86 -10 100 -3 14 -7 50 -11 80 -9 79 -21 164 -30 210
-3 14 -7 39 -10 55 -2 17 -9 57 -15 90 -6 33 -14 74 -16 90 -9 48 -72 318 -93
397 -82 306 -217 696 -315 910 -14 31 -26 59 -26 63 0 21 -220 455 -310 610
-12 22 -34 60 -48 85 -38 67 -176 283 -250 390 -65 94 -240 330 -251 340 -4 3
-22 25 -41 50 -19 25 -59 74 -89 110 -53 62 -67 79 -161 185 -102 116 -456
460 -591 575 -128 110 -309 255 -393 315 -15 11 -47 34 -70 51 -46 34 -225
156 -241 164 -5 3 -48 30 -95 61 -47 30 -105 66 -130 80 -25 13 -46 27 -48 32
-2 4 -7 7 -12 7 -5 0 -48 23 -97 51 -121 71 -411 215 -568 283 -71 31 -139 61
-150 66 -241 106 -824 288 -1105 344 -286 57 -522 95 -685 111 -33 3 -82 8
-110 10 -92 10 -169 15 -315 21 -137 6 -460 11 -463 7z"/>
<path d="M54276 76608 c-7 -13 -28 -50 -46 -83 -18 -33 -52 -96 -76 -140 -23
-44 -68 -127 -98 -185 -77 -144 -391 -772 -450 -900 -27 -58 -66 -141 -86
-185 -69 -147 -101 -218 -206 -457 -57 -131 -104 -240 -104 -244 0 -3 -12 -30
-26 -61 -46 -103 -271 -675 -363 -925 -75 -205 -216 -607 -225 -643 -2 -5 -6
-17 -9 -25 -8 -21 -99 -303 -101 -315 -2 -8 -26 -86 -74 -240 -3 -11 -6 -22
-7 -25 0 -3 -11 -37 -23 -75 -12 -39 -24 -81 -27 -93 -2 -12 -6 -26 -9 -30 -2
-4 -14 -44 -26 -87 -12 -44 -30 -109 -40 -145 -80 -284 -148 -548 -235 -915
-22 -91 -85 -376 -101 -450 -2 -11 -6 -31 -9 -45 -3 -14 -7 -34 -9 -45 -2 -11
-16 -76 -30 -145 -14 -69 -27 -138 -30 -155 -3 -16 -8 -39 -10 -50 -19 -95
-49 -261 -66 -360 -23 -137 -28 -160 -35 -195 -3 -14 -7 -41 -9 -60 -5 -41
-15 -105 -22 -140 -7 -35 -10 -57 -19 -119 -3 -30 -8 -62 -10 -72 -6 -28 -39
-263 -50 -354 -4 -27 -8 -61 -10 -75 -3 -14 -7 -47 -10 -75 -3 -27 -8 -61 -10
-75 -2 -14 -7 -50 -10 -80 -3 -30 -8 -66 -10 -80 -2 -14 -7 -58 -10 -98 -4
-41 -8 -81 -10 -90 -1 -9 -6 -51 -10 -92 -3 -41 -8 -86 -10 -100 -2 -14 -6
-54 -10 -90 -3 -36 -8 -81 -10 -100 -2 -19 -7 -69 -11 -110 -3 -41 -7 -92 -9
-112 -2 -20 -6 -79 -10 -130 -3 -51 -8 -109 -10 -128 -2 -19 -7 -80 -10 -135
-3 -55 -7 -120 -10 -145 -3 -25 -7 -88 -10 -140 -2 -52 -7 -147 -10 -210 -25
-495 -30 -736 -30 -1440 0 -587 6 -995 20 -1245 2 -38 6 -137 10 -220 3 -82 8
-179 10 -215 3 -36 7 -110 10 -165 4 -55 8 -129 10 -165 2 -36 7 -108 10 -160
3 -52 8 -117 10 -145 2 -27 7 -85 10 -128 3 -43 8 -95 10 -115 2 -20 6 -77 10
-127 3 -49 8 -103 10 -120 2 -16 7 -66 10 -110 3 -44 8 -91 10 -105 2 -14 7
-63 10 -110 3 -47 8 -98 10 -115 2 -16 7 -61 10 -98 4 -37 8 -76 10 -85 1 -9
6 -60 10 -112 4 -52 8 -97 10 -100 2 -4 8 -57 20 -170 5 -53 16 -148 25 -220
5 -41 12 -102 16 -135 3 -33 8 -67 9 -75 2 -8 6 -44 10 -80 4 -36 8 -72 10
-80 2 -8 6 -44 10 -80 4 -36 8 -72 10 -80 2 -9 6 -43 10 -75 4 -33 9 -67 10
-76 2 -9 6 -40 10 -70 7 -56 9 -72 20 -149 13 -86 14 -95 25 -175 6 -44 12
-91 14 -105 2 -14 7 -47 11 -73 4 -27 8 -58 10 -69 3 -11 7 -46 11 -77 3 -31
8 -58 9 -61 2 -3 6 -26 9 -50 4 -25 9 -56 11 -70 2 -14 7 -45 10 -70 3 -25 12
-85 21 -134 8 -49 17 -105 19 -125 3 -20 7 -47 10 -61 2 -14 7 -38 9 -55 30
-188 50 -310 62 -380 2 -11 16 -89 30 -174 26 -153 29 -173 39 -221 2 -14 7
-41 10 -60 7 -41 23 -135 30 -170 4 -22 26 -143 40 -225 3 -16 14 -75 25 -130
10 -55 24 -127 29 -160 6 -33 13 -71 16 -85 3 -14 8 -41 11 -60 4 -19 8 -44
11 -55 2 -11 19 -101 38 -200 19 -99 37 -191 40 -205 5 -28 24 -121 31 -160 3
-14 12 -59 20 -100 9 -41 18 -86 20 -100 3 -14 23 -113 45 -220 23 -107 43
-206 45 -220 5 -25 18 -88 98 -465 24 -115 47 -223 50 -240 3 -16 19 -91 35
-165 47 -212 192 -871 201 -915 10 -47 115 -509 166 -735 20 -85 38 -162 39
-170 2 -8 20 -85 40 -170 20 -85 38 -164 40 -175 1 -11 26 -119 55 -240 28
-121 53 -227 55 -235 2 -8 11 -46 20 -85 9 -38 19 -81 21 -94 3 -14 19 -81 36
-150 16 -69 32 -137 34 -149 3 -13 11 -49 20 -80 8 -32 17 -73 20 -92 3 -19 8
-38 10 -41 2 -4 6 -24 10 -45 3 -22 10 -47 15 -56 5 -10 8 -18 5 -18 -3 0 0
-15 5 -32 5 -18 12 -49 15 -68 3 -19 8 -37 9 -41 2 -3 15 -54 29 -115 14 -60
48 -206 76 -324 28 -118 54 -226 56 -240 5 -23 20 -86 28 -120 7 -26 86 -364
90 -385 6 -26 29 -127 68 -285 16 -69 31 -132 33 -140 45 -204 55 -246 95
-415 10 -44 26 -109 34 -145 8 -36 29 -126 46 -200 18 -74 34 -146 36 -160 3
-14 10 -43 16 -65 5 -22 12 -47 13 -55 2 -8 8 -35 14 -60 5 -25 12 -56 15 -70
2 -14 19 -86 36 -160 17 -74 34 -146 36 -160 3 -14 11 -52 20 -85 8 -33 17
-71 19 -85 17 -79 25 -116 49 -220 15 -63 33 -146 41 -185 8 -38 24 -110 35
-160 23 -102 58 -260 70 -320 5 -22 16 -71 24 -110 9 -38 19 -83 22 -100 2
-16 11 -57 19 -90 8 -33 21 -94 29 -136 9 -42 18 -83 20 -90 3 -8 8 -31 11
-53 3 -21 7 -42 10 -46 3 -4 7 -25 11 -46 3 -22 10 -56 15 -77 6 -21 12 -50
14 -65 3 -22 27 -135 50 -242 24 -111 34 -164 31 -167 -2 -2 -64 5 -137 16
-74 11 -156 23 -184 27 -27 3 -52 8 -55 9 -3 2 -37 6 -75 10 -39 4 -72 9 -75
10 -3 2 -44 9 -90 15 -133 18 -151 20 -210 30 -55 10 -82 14 -175 25 -50 6
-92 12 -130 19 -23 4 -129 18 -160 21 -21 2 -46 6 -255 35 -120 17 -205 28
-335 45 -22 3 -53 7 -70 9 -16 2 -57 7 -90 10 -33 4 -91 11 -130 17 -106 15
-105 15 -355 45 -25 3 -56 7 -70 9 -14 2 -52 7 -85 10 -33 4 -71 8 -85 10 -22
4 -109 14 -165 20 -22 2 -123 14 -170 20 -16 2 -57 7 -90 10 -33 3 -76 8 -95
10 -19 3 -56 8 -82 10 -51 5 -113 12 -168 20 -19 3 -60 7 -90 9 -30 3 -71 7
-90 10 -36 5 -111 13 -295 31 -33 4 -73 8 -90 10 -16 2 -61 7 -100 10 -38 3
-83 8 -100 10 -16 2 -61 7 -100 11 -38 3 -83 7 -100 9 -16 2 -61 6 -100 10
-38 3 -88 8 -110 10 -22 3 -71 7 -110 11 -38 3 -81 7 -95 9 -14 1 -61 5 -105
9 -44 4 -100 9 -125 11 -143 13 -189 17 -220 20 -19 2 -71 6 -115 9 -44 4
-100 9 -125 11 -25 2 -81 7 -125 10 -44 3 -100 7 -125 10 -45 4 -106 9 -250
20 -89 6 -192 14 -275 20 -33 2 -100 7 -150 10 -49 3 -112 7 -140 10 -49 4
-149 11 -310 20 -44 2 -116 7 -160 10 -119 8 -348 21 -530 29 -264 13 -325 16
-410 21 -49 3 -153 8 -230 11 -77 2 -187 7 -245 9 -58 3 -186 7 -285 10 -99 3
-234 8 -300 10 -798 27 -2591 27 -3385 0 -63 -2 -200 -6 -305 -10 -104 -3
-230 -8 -280 -11 -49 -2 -144 -6 -210 -9 -66 -3 -156 -7 -200 -9 -44 -3 -134
-8 -200 -11 -66 -3 -154 -8 -195 -10 -41 -3 -115 -7 -165 -10 -165 -9 -402
-25 -595 -40 -36 -3 -96 -7 -134 -10 -37 -2 -96 -6 -130 -9 -79 -7 -173 -15
-261 -22 -38 -2 -92 -7 -120 -9 -93 -9 -170 -16 -215 -19 -98 -9 -187 -17
-220 -21 -19 -3 -70 -7 -112 -10 -43 -4 -86 -8 -96 -10 -10 -2 -58 -6 -108
-10 -49 -4 -91 -9 -94 -10 -3 -2 -43 -6 -90 -10 -47 -4 -92 -8 -100 -10 -8 -2
-49 -6 -90 -10 -112 -11 -122 -12 -165 -18 -22 -3 -65 -9 -95 -12 -30 -3 -71
-8 -90 -10 -19 -2 -60 -7 -90 -10 -30 -3 -66 -8 -80 -10 -14 -2 -50 -7 -80
-10 -30 -3 -62 -8 -70 -10 -8 -2 -46 -6 -83 -10 -37 -3 -76 -8 -86 -10 -10 -2
-42 -6 -72 -9 -30 -3 -63 -8 -74 -10 -11 -2 -45 -7 -76 -10 -31 -4 -65 -8 -75
-10 -11 -2 -41 -7 -69 -10 -27 -4 -99 -14 -160 -22 -60 -9 -125 -17 -144 -20
-19 -2 -46 -6 -60 -9 -14 -2 -46 -7 -71 -10 -45 -6 -75 -11 -127 -20 -16 -2
-46 -7 -68 -9 -22 -3 -49 -7 -60 -10 -11 -2 -45 -7 -75 -11 -60 -9 -78 -11
-130 -20 -19 -4 -105 -17 -190 -31 -199 -32 -210 -33 -240 -39 -14 -3 -41 -7
-60 -10 -30 -5 -85 -14 -172 -30 -64 -12 -377 -67 -403 -71 -27 -4 -81 -15
-155 -29 -53 -11 -86 -17 -119 -21 -18 -2 -36 -6 -40 -9 -4 -2 -30 -7 -57 -11
-27 -3 -52 -8 -55 -10 -3 -2 -21 -6 -40 -9 -19 -3 -79 -15 -134 -26 -55 -11
-113 -22 -130 -25 -16 -3 -59 -11 -95 -19 -36 -8 -76 -17 -90 -19 -65 -12
-317 -65 -330 -70 -8 -3 -28 -7 -45 -10 -16 -2 -61 -12 -100 -21 -38 -9 -79
-18 -90 -20 -11 -2 -92 -20 -180 -39 -88 -20 -170 -39 -181 -41 -60 -13 -415
-98 -524 -125 -69 -17 -135 -33 -147 -36 -12 -2 -34 -9 -48 -14 -14 -5 -25 -7
-25 -5 0 2 -11 0 -25 -5 -14 -5 -36 -12 -48 -14 -12 -2 -42 -9 -67 -15 -25 -7
-54 -14 -65 -16 -11 -3 -56 -14 -100 -25 -44 -12 -87 -23 -95 -25 -8 -2 -42
-11 -75 -20 -33 -9 -112 -29 -175 -46 -122 -32 -226 -61 -378 -104 -52 -15
-99 -28 -105 -29 -19 -4 -96 -25 -167 -46 -36 -11 -166 -49 -290 -85 -265 -78
-513 -153 -660 -200 -58 -18 -172 -54 -255 -80 -146 -47 -835 -277 -945 -316
-30 -11 -70 -25 -88 -30 -66 -20 -668 -239 -684 -249 -10 -5 -22 -10 -27 -10
-5 0 -22 -5 -38 -12 -15 -6 -30 -12 -33 -12 -3 -1 -30 -11 -60 -23 -30 -12
-122 -47 -205 -78 -143 -54 -815 -321 -879 -349 -17 -8 -53 -23 -81 -34 -54
-22 -441 -185 -490 -206 -16 -8 -79 -35 -140 -61 -60 -26 -128 -55 -150 -65
-22 -10 -85 -38 -140 -63 -131 -59 -179 -80 -185 -82 -7 -2 -69 -31 -230 -105
-74 -34 -160 -74 -190 -87 -30 -14 -107 -50 -170 -80 -63 -31 -144 -69 -180
-85 -109 -51 -1036 -513 -1190 -593 -173 -91 -356 -188 -425 -225 -27 -15 -95
-51 -150 -80 -55 -29 -104 -56 -110 -60 -5 -4 -46 -27 -90 -50 -186 -100 -644
-358 -663 -373 -14 -11 6 -20 168 -76 181 -63 487 -133 640 -146 19 -2 71 -7
115 -12 151 -15 625 -7 720 12 11 2 46 7 78 10 31 3 97 13 145 21 48 8 99 17
114 19 15 2 54 9 88 15 33 6 77 13 98 16 20 2 44 6 52 9 8 2 33 7 55 10 23 3
52 8 65 10 45 9 334 57 370 61 19 2 44 6 55 8 11 3 43 8 70 11 28 4 57 8 65
10 13 4 173 29 255 40 17 3 138 20 270 40 132 19 258 38 280 40 22 3 51 8 65
10 14 2 45 7 70 10 55 8 68 9 245 34 77 11 165 22 195 26 30 3 66 8 80 10 23
4 59 9 153 20 51 7 110 14 155 20 65 8 365 45 407 50 22 2 63 7 90 10 28 3 67
8 88 11 22 4 60 8 85 10 53 3 127 11 187 19 63 9 104 13 185 21 41 3 82 8 90
9 17 3 105 12 197 20 34 3 70 7 80 9 10 2 54 7 98 10 76 7 106 10 208 21 23 2
78 7 122 11 44 3 96 7 115 9 19 2 67 7 105 10 39 3 93 8 120 11 28 2 82 7 120
10 39 2 84 6 100 9 17 2 77 7 135 10 58 4 116 8 130 10 14 2 68 7 120 10 52 3
113 7 135 10 22 2 83 7 135 10 52 3 124 8 160 11 36 2 103 6 150 9 47 2 117 7
155 9 39 3 113 8 165 11 52 3 127 8 165 10 39 2 129 7 200 10 72 3 162 8 200
10 68 5 259 13 440 20 360 13 446 16 570 20 488 14 830 19 1535 19 814 0 1304
-7 1875 -29 330 -13 373 -14 480 -20 61 -3 164 -7 230 -10 66 -3 154 -8 195
-10 41 -3 118 -7 170 -10 120 -7 222 -13 330 -20 47 -4 114 -8 150 -10 71 -4
191 -12 285 -20 33 -2 101 -7 150 -10 50 -3 110 -8 135 -11 25 -2 81 -7 125
-10 44 -2 96 -6 115 -9 19 -2 69 -6 110 -10 125 -10 163 -13 225 -19 33 -3 89
-8 125 -11 36 -3 83 -7 105 -10 22 -2 67 -7 100 -10 33 -3 78 -7 100 -10 22
-2 69 -7 105 -10 36 -3 108 -10 160 -16 52 -6 113 -12 135 -14 74 -7 150 -16
175 -20 14 -2 54 -7 90 -10 36 -3 81 -8 100 -10 19 -3 60 -7 90 -10 30 -4 69
-8 85 -10 17 -2 50 -6 75 -9 59 -7 287 -35 325 -41 17 -2 57 -7 90 -10 33 -3
67 -8 75 -10 8 -2 42 -7 75 -11 68 -7 96 -10 145 -18 31 -5 141 -20 231 -31
17 -2 42 -6 57 -9 15 -3 50 -8 77 -11 28 -3 79 -10 115 -16 36 -5 112 -16 170
-24 58 -8 119 -17 135 -20 17 -3 91 -14 165 -25 74 -11 146 -22 160 -25 14 -2
43 -7 65 -10 22 -4 92 -15 155 -25 63 -11 133 -22 155 -25 22 -3 51 -8 65 -11
14 -2 37 -7 53 -9 15 -3 54 -9 87 -15 33 -6 70 -12 82 -14 82 -13 115 -19 133
-22 11 -2 40 -7 65 -10 25 -3 48 -8 51 -10 3 -1 59 -12 125 -23 65 -12 130
-23 144 -26 23 -5 148 -27 225 -40 17 -3 41 -8 55 -10 14 -3 36 -8 50 -10 14
-3 36 -7 50 -10 14 -2 63 -12 110 -20 47 -9 103 -20 125 -25 22 -5 65 -14 95
-20 30 -5 109 -21 175 -34 66 -14 131 -27 145 -29 14 -3 61 -13 105 -22 44 -9
91 -19 105 -21 28 -5 42 -8 280 -60 91 -20 176 -38 190 -40 14 -3 53 -11 86
-19 34 -8 73 -16 85 -19 13 -2 53 -11 89 -20 36 -8 76 -17 90 -20 14 -2 115
-25 225 -51 110 -26 207 -48 215 -50 53 -12 184 -44 380 -92 124 -30 232 -56
240 -58 23 -5 527 -134 590 -152 30 -8 71 -19 90 -23 61 -14 244 -63 410 -110
19 -6 118 -33 220 -61 102 -27 199 -54 215 -60 17 -5 188 -54 380 -110 193
-55 384 -112 426 -125 42 -14 85 -26 95 -29 11 -2 136 -40 279 -85 143 -45
294 -92 335 -105 437 -134 1399 -461 1925 -653 55 -20 102 -37 105 -37 3 0 19
-6 35 -12 17 -7 165 -62 330 -123 294 -109 490 -183 530 -200 11 -5 49 -20 85
-34 155 -58 687 -269 737 -292 17 -8 34 -14 37 -14 3 0 59 -22 124 -49 64 -27
239 -99 387 -161 149 -61 288 -120 310 -130 129 -60 206 -95 255 -117 302
-136 764 -389 1058 -580 112 -72 381 -260 392 -273 3 -3 37 -30 75 -60 296
-230 605 -530 805 -779 19 -25 40 -49 45 -55 19 -21 121 -161 182 -251 163
-241 323 -553 424 -830 37 -101 118 -368 125 -414 3 -19 10 -45 15 -58 5 -13
7 -23 4 -23 -2 0 1 -15 6 -32 5 -18 12 -49 15 -68 3 -19 7 -42 9 -50 3 -8 7
-33 10 -55 4 -22 8 -51 11 -65 11 -68 32 -247 39 -350 6 -76 12 -355 20 -930
3 -228 8 -498 10 -600 2 -102 7 -322 10 -490 3 -168 8 -381 10 -475 2 -93 7
-276 10 -405 3 -129 7 -327 10 -440 3 -113 7 -295 10 -405 11 -546 17 -796 20
-960 15 -687 19 -1123 19 -2190 0 -665 -3 -1338 -7 -1495 -5 -157 -10 -352
-12 -435 -3 -137 -7 -231 -20 -565 -7 -162 -14 -322 -19 -410 -3 -41 -7 -133
-11 -205 -3 -71 -8 -152 -10 -180 -3 -27 -7 -99 -11 -160 -10 -176 -11 -195
-18 -290 -4 -49 -9 -119 -12 -155 -2 -36 -6 -87 -9 -115 -3 -27 -7 -86 -10
-130 -3 -44 -7 -98 -10 -120 -2 -22 -7 -71 -10 -110 -9 -116 -21 -243 -30
-325 -2 -19 -7 -66 -10 -105 -3 -38 -8 -86 -10 -105 -10 -77 -14 -118 -20
-175 -8 -79 -15 -144 -20 -175 -2 -14 -6 -54 -10 -90 -4 -36 -8 -76 -10 -90
-5 -31 -22 -168 -30 -235 -4 -27 -8 -61 -10 -75 -2 -14 -7 -49 -10 -79 -4 -30
-8 -63 -11 -74 -2 -10 -6 -45 -10 -76 -3 -31 -8 -58 -9 -61 -2 -3 -6 -34 -10
-70 -4 -36 -8 -67 -10 -70 -2 -3 -6 -34 -10 -70 -4 -36 -8 -67 -10 -70 -2 -3
-6 -29 -10 -59 -4 -30 -9 -63 -11 -75 -7 -35 -25 -149 -30 -186 -3 -19 -11
-71 -19 -115 -8 -44 -17 -97 -21 -119 -3 -21 -8 -48 -10 -60 -2 -11 -7 -34 -9
-51 -18 -101 -67 -366 -75 -395 -5 -19 -11 -51 -14 -70 -7 -44 -23 -124 -86
-435 -55 -268 -61 -295 -64 -310 -3 -11 -15 -71 -20 -95 -2 -8 -6 -26 -9 -40
-4 -14 -25 -113 -47 -220 -37 -174 -74 -347 -156 -720 -30 -135 -60 -269 -74
-325 -6 -22 -12 -51 -15 -65 -3 -14 -23 -101 -45 -195 -22 -93 -42 -179 -44
-190 -4 -19 -42 -179 -91 -385 -12 -52 -46 -192 -75 -310 -28 -118 -53 -222
-55 -230 -2 -8 -13 -53 -25 -100 -12 -47 -23 -92 -25 -100 -2 -8 -29 -116 -60
-240 -31 -124 -59 -234 -61 -245 -5 -27 -24 -98 -74 -290 -23 -88 -43 -167
-45 -175 -2 -8 -13 -53 -25 -100 -12 -47 -24 -92 -26 -100 -2 -8 -29 -112 -60
-230 -31 -118 -58 -222 -60 -230 -7 -30 -227 -845 -264 -980 -11 -41 -23 -86
-26 -100 -2 -14 -9 -36 -14 -50 -5 -14 -18 -61 -30 -105 -12 -44 -28 -102 -36
-130 -7 -27 -66 -237 -129 -465 -64 -228 -120 -428 -126 -445 -5 -16 -50 -174
-100 -350 -92 -327 -214 -750 -314 -1090 -31 -104 -58 -197 -60 -205 -2 -8
-13 -46 -25 -85 -11 -38 -30 -101 -41 -139 -11 -37 -96 -323 -189 -635 -92
-311 -191 -642 -219 -736 -28 -93 -58 -191 -67 -217 -8 -26 -17 -53 -18 -60
-2 -7 -11 -40 -21 -73 -10 -33 -20 -64 -21 -70 -1 -5 -21 -71 -44 -145 -74
-240 -112 -364 -120 -395 -5 -16 -24 -82 -43 -145 -20 -63 -63 -204 -96 -313
-34 -109 -63 -202 -65 -206 -3 -4 -7 -18 -10 -32 -2 -13 -16 -60 -29 -104 -38
-122 -141 -455 -181 -590 -21 -66 -50 -160 -65 -210 -16 -49 -36 -117 -45
-150 -10 -33 -22 -71 -27 -85 -5 -14 -27 -85 -49 -158 -22 -72 -58 -192 -81
-265 -45 -147 -78 -254 -84 -277 -3 -8 -27 -87 -54 -175 -27 -88 -160 -524
-296 -970 -136 -445 -249 -817 -252 -825 -4 -8 -7 -19 -8 -25 -2 -5 -15 -48
-30 -95 -15 -47 -28 -92 -30 -100 -5 -18 -15 -51 -145 -480 -56 -184 -107
-351 -112 -370 -5 -19 -26 -87 -45 -150 -46 -151 -132 -441 -138 -460 -2 -8
-13 -46 -25 -85 -59 -197 -139 -466 -186 -630 -19 -66 -42 -141 -50 -166 -8
-25 -16 -54 -18 -65 -3 -10 -14 -48 -25 -84 -22 -72 -66 -224 -210 -722 l-98
-338 10264 0 10263 0 1 25 c1 14 2 28 3 33 1 4 6 32 10 62 5 30 10 64 12 75 2
11 6 36 9 55 3 19 7 44 9 55 2 11 7 40 10 65 3 25 8 56 11 70 2 13 7 42 10 65
3 22 8 51 10 65 2 14 7 43 10 65 3 23 7 50 9 61 2 12 7 45 11 74 4 29 9 62 11
74 2 11 6 38 9 61 3 22 8 51 10 65 2 14 7 45 10 70 3 25 10 72 15 105 5 33 12
80 15 105 3 25 8 56 10 70 2 14 7 45 10 70 4 25 8 56 10 70 2 14 9 61 15 105
6 44 13 91 15 105 2 14 7 48 10 75 3 28 7 61 10 75 2 14 7 49 10 79 4 30 8 61
10 70 1 9 6 41 9 72 4 31 9 67 11 80 3 13 7 44 10 69 3 25 10 81 15 125 6 44
13 98 16 120 2 22 7 51 9 65 2 14 7 54 11 90 3 36 7 72 9 80 2 8 6 44 10 80 3
36 8 72 10 80 2 8 7 44 10 80 4 36 8 76 10 90 2 14 7 50 10 80 3 30 8 66 10
80 2 14 6 52 10 86 3 33 7 71 10 85 2 13 6 51 10 83 3 33 8 73 10 90 3 17 7
54 10 81 7 75 14 145 20 190 2 22 7 67 10 100 4 33 8 71 10 85 2 14 7 57 10
95 3 39 8 84 9 100 2 17 7 62 11 100 3 39 8 81 10 95 2 14 7 57 10 95 4 39 8
81 10 95 2 14 6 59 10 100 3 41 8 95 11 120 6 57 11 106 19 200 3 41 8 91 10
110 8 74 21 220 30 338 3 45 8 90 9 100 2 9 7 60 11 112 3 52 8 111 10 130 2
19 6 73 10 120 3 47 8 105 10 130 6 63 13 162 20 255 3 44 8 103 10 130 2 28
6 88 10 135 3 47 8 112 10 145 7 91 14 189 20 300 3 55 8 123 10 150 3 28 7
93 10 145 3 52 7 131 10 175 21 353 28 477 50 930 2 55 7 152 10 215 3 63 8
169 10 235 2 66 7 185 10 265 18 507 31 977 41 1530 5 327 5 1901 -1 2215 -5
307 -15 718 -20 890 -10 335 -16 497 -20 595 -6 167 -16 408 -20 495 -2 44 -6
148 -10 230 -3 83 -8 170 -10 195 -2 25 -7 108 -11 185 -3 77 -7 158 -9 180
-1 22 -6 103 -10 180 -4 77 -9 156 -10 175 -1 19 -5 85 -9 145 -4 61 -9 137
-11 170 -3 33 -7 101 -10 150 -3 50 -7 113 -10 140 -2 28 -7 91 -10 140 -3 50
-8 113 -10 140 -2 28 -6 86 -10 130 -3 44 -8 103 -10 130 -3 28 -7 86 -10 130
-6 81 -11 142 -20 238 -3 28 -7 84 -10 122 -3 39 -7 88 -10 110 -2 22 -7 76
-11 120 -10 137 -13 168 -19 225 -3 30 -8 80 -10 110 -3 30 -7 79 -10 108 -3
28 -8 78 -11 110 -3 31 -7 73 -9 92 -2 19 -7 64 -10 100 -4 36 -8 79 -10 95
-2 17 -6 63 -10 104 -4 41 -8 82 -10 90 -1 9 -6 54 -10 101 -3 47 -8 92 -10
100 -2 8 -7 49 -10 90 -4 41 -8 82 -10 90 -2 8 -6 49 -10 90 -4 41 -9 82 -10
91 -2 9 -6 52 -10 95 -4 43 -9 81 -10 84 -2 3 -6 39 -10 80 -4 41 -8 82 -10
90 -2 8 -6 44 -10 80 -3 36 -8 76 -10 90 -3 14 -7 50 -9 80 -3 30 -8 71 -11
90 -2 19 -7 55 -10 80 -4 25 -8 59 -10 75 -3 17 -12 86 -20 155 -8 69 -17 139
-20 155 -2 17 -7 53 -10 80 -4 28 -8 61 -10 75 -2 14 -9 63 -15 110 -6 47 -13
96 -15 110 -2 14 -6 45 -9 70 -5 47 -24 177 -31 220 -2 14 -11 77 -20 140 -8
63 -17 126 -20 140 -2 14 -9 61 -15 105 -6 44 -13 91 -15 105 -15 93 -25 161
-30 200 -3 25 -10 70 -15 100 -5 30 -11 72 -14 92 -9 57 -17 110 -21 138 -13
80 -17 107 -20 125 -3 24 -53 333 -59 373 -3 15 -8 43 -11 62 -3 19 -10 60
-15 90 -9 50 -13 79 -25 150 -8 47 -46 275 -51 305 -15 81 -25 140 -34 193 -6
31 -13 73 -15 92 -3 19 -10 55 -15 80 -5 25 -12 61 -15 80 -3 19 -16 94 -30
165 -13 72 -26 144 -28 160 -3 17 -8 41 -11 55 -3 14 -8 37 -10 53 -6 32 -24
131 -31 167 -3 14 -12 63 -21 110 -20 105 -23 119 -29 150 -2 14 -16 86 -31
160 -14 74 -27 142 -29 150 -3 12 -21 105 -51 255 -2 11 -6 29 -8 40 -7 31
-67 327 -72 355 -3 14 -12 54 -20 88 -8 35 -23 108 -34 161 -11 53 -22 106
-24 117 -8 34 -67 305 -93 424 -14 63 -29 134 -34 157 -4 23 -17 79 -28 125
-11 46 -22 97 -25 113 -3 17 -17 75 -30 130 -14 55 -27 111 -29 125 -3 14 -10
43 -15 65 -6 22 -13 51 -16 65 -7 37 -10 50 -51 220 -20 85 -38 162 -40 170
-2 8 -8 35 -14 60 -7 25 -14 54 -16 66 -3 11 -32 131 -66 265 -33 134 -63 253
-65 264 -2 11 -33 135 -69 275 -36 140 -68 266 -71 280 -2 14 -9 39 -14 55 -5
17 -22 82 -39 145 -16 63 -39 151 -52 195 -12 44 -25 96 -30 115 -4 19 -15 60
-23 90 -48 179 -111 409 -156 570 -28 102 -53 192 -55 200 -2 8 -15 56 -30
105 -15 50 -33 113 -40 140 -7 28 -46 160 -85 295 -40 135 -75 259 -80 275
-11 41 -110 373 -177 590 -30 99 -68 223 -83 275 -16 52 -54 174 -85 270 -30
96 -57 180 -58 185 -6 19 -19 61 -99 310 -126 394 -404 1227 -538 1610 -21 61
-66 189 -99 285 -34 96 -66 184 -71 195 -5 11 -24 65 -43 120 -61 174 -191
531 -315 865 -85 228 -258 685 -269 710 -3 8 -7 17 -8 20 -1 3 -5 14 -10 25
-4 11 -17 43 -27 70 -10 28 -23 59 -27 70 -5 11 -28 70 -51 130 -23 61 -48
124 -55 140 -7 17 -24 59 -38 95 -97 248 -141 359 -153 385 -7 17 -31 77 -54
135 -22 58 -45 114 -50 125 -13 28 -128 310 -152 370 -10 28 -25 64 -33 80 -7
17 -51 122 -98 235 -71 172 -378 892 -437 1025 -10 22 -77 175 -150 340 -73
165 -147 333 -166 373 -19 40 -34 74 -34 76 0 2 -18 44 -41 93 -23 48 -47 102
-54 118 -20 44 -310 675 -357 775 -22 47 -52 112 -68 145 -16 33 -51 107 -78
165 -62 131 -129 272 -220 460 -38 80 -100 208 -137 285 -89 185 -609 1226
-720 1441 -142 275 -324 624 -385 739 -21 39 -60 113 -87 165 -55 105 -79 150
-240 450 -128 238 -157 291 -228 420 -53 97 -70 128 -167 305 -31 55 -67 120
-80 145 -76 135 -124 220 -148 265 -49 89 -100 180 -110 195 -6 8 -13 22 -17
30 -4 8 -49 89 -101 180 -52 91 -105 185 -119 210 -21 38 -72 127 -103 180
-50 85 -107 183 -128 220 -53 95 -375 645 -492 840 -68 113 -128 214 -134 225
-6 11 -58 98 -116 193 -58 95 -109 180 -115 190 -5 10 -39 65 -74 122 -35 58
-93 152 -128 210 -35 58 -68 112 -73 120 -6 8 -24 38 -40 65 -49 80 -53 86
-96 155 -23 36 -93 148 -156 250 -63 102 -140 225 -171 273 -31 48 -57 92 -57
97 0 9 703 360 1375 685 311 151 473 229 580 280 61 29 178 85 260 125 83 40
191 92 240 115 50 24 149 71 220 105 72 34 171 81 220 105 50 23 153 73 230
110 77 37 167 80 200 95 33 15 128 60 210 100 83 40 182 87 220 105 87 41 288
136 465 222 74 36 180 87 235 113 180 85 307 146 478 229 92 44 240 116 330
160 954 462 2158 1073 2722 1381 28 15 95 51 150 80 55 29 105 56 110 60 6 4
46 27 90 50 104 56 473 262 645 360 74 43 153 88 175 100 140 78 588 345 935
557 817 498 1659 1100 2390 1707 80 66 147 123 150 126 3 3 55 48 115 100 61
52 126 109 145 127 19 17 46 41 60 53 134 114 496 456 745 705 234 235 427
438 636 669 24 27 52 58 62 68 29 30 378 438 422 493 22 28 42 52 45 55 3 3
24 28 45 55 22 28 43 52 46 55 10 9 265 335 348 445 97 129 103 137 175 235
30 41 59 80 63 85 8 9 56 77 205 289 69 98 343 507 420 626 291 453 647 1068
932 1613 66 127 326 645 326 650 0 2 35 78 79 168 97 203 203 440 199 444 -4
4 -42 -26 -258 -196 -74 -59 -268 -211 -430 -339 -162 -128 -311 -245 -330
-260 -19 -15 -150 -118 -290 -229 -140 -111 -325 -257 -410 -324 -85 -68 -261
-206 -390 -307 -129 -102 -239 -188 -245 -193 -49 -40 -471 -364 -581 -447
-76 -57 -141 -107 -144 -110 -3 -3 -68 -52 -145 -109 -77 -58 -141 -108 -143
-113 -2 -4 -8 -8 -12 -8 -5 0 -85 -55 -177 -123 -92 -68 -251 -181 -353 -252
-102 -72 -189 -133 -195 -138 -35 -27 -127 -87 -135 -87 -4 0 -10 -4 -12 -8
-1 -5 -30 -26 -63 -47 -33 -22 -64 -43 -70 -48 -11 -10 -422 -280 -566 -373
-52 -33 -191 -120 -309 -194 -118 -73 -231 -143 -250 -155 -37 -24 -362 -218
-463 -276 -33 -19 -71 -41 -85 -50 -33 -20 -465 -264 -544 -307 -32 -18 -84
-46 -115 -63 -32 -17 -76 -42 -98 -54 -22 -13 -94 -51 -160 -86 -66 -34 -165
-87 -220 -116 -112 -60 -884 -445 -985 -491 -36 -16 -112 -52 -170 -80 -58
-27 -127 -60 -155 -72 -27 -13 -106 -49 -175 -80 -188 -86 -197 -90 -440 -195
-124 -53 -238 -103 -255 -110 -82 -36 -234 -99 -360 -150 -77 -30 -149 -60
-160 -65 -33 -16 -438 -174 -615 -240 -91 -34 -199 -74 -240 -90 -41 -16 -102
-38 -135 -50 -33 -11 -67 -23 -75 -27 -8 -3 -19 -7 -25 -9 -5 -1 -55 -19 -110
-39 -290 -107 -1461 -493 -1549 -511 -11 -2 -47 -12 -80 -23 -82 -26 -207 -63
-341 -101 -60 -17 -121 -35 -135 -39 -29 -10 -42 -14 -310 -86 -113 -30 -218
-59 -235 -65 -26 -8 -132 -35 -175 -45 -8 -2 -94 -25 -190 -50 -96 -25 -232
-59 -302 -75 -70 -17 -139 -35 -153 -40 -14 -5 -25 -8 -25 -5 0 2 -15 -1 -32
-6 -25 -7 -337 -81 -483 -114 -224 -50 -993 -213 -1095 -231 -14 -3 -95 -18
-180 -35 -173 -33 -241 -46 -285 -54 -16 -3 -104 -18 -195 -34 -91 -17 -181
-33 -200 -36 -19 -3 -62 -10 -95 -16 -33 -6 -73 -13 -90 -16 -16 -2 -57 -9
-90 -15 -70 -12 -71 -12 -195 -32 -52 -8 -113 -17 -135 -20 -22 -3 -76 -10
-120 -15 -290 -37 -428 -46 -715 -45 -205 0 -370 7 -429 19 -10 2 -42 6 -71
10 -29 4 -62 9 -74 11 -12 2 -37 7 -56 10 -79 14 -250 58 -333 85 -525 174
-908 500 -1215 1034 -28 49 -152 302 -152 310 0 3 -8 25 -19 48 -19 44 -30 72
-32 85 0 4 -4 12 -9 17 -11 14 -105 302 -135 415 -14 52 -41 154 -60 225 -34
128 -152 568 -181 675 -9 30 -24 87 -34 125 -10 39 -46 169 -80 290 -34 121
-91 326 -127 455 -35 129 -71 258 -79 285 -8 28 -16 57 -18 65 -3 12 -59 208
-130 455 -2 6 -6 24 -11 40 -4 17 -39 138 -77 270 -38 132 -71 247 -73 255 -1
8 -44 157 -94 330 -51 173 -93 322 -95 330 -2 8 -29 101 -59 205 -97 332 -139
480 -142 490 -1 6 -7 23 -13 38 -7 16 -12 33 -12 40 0 6 -12 49 -26 96 -15 48
-27 91 -28 96 -1 6 -10 37 -20 70 -10 33 -20 67 -22 75 -2 8 -22 78 -45 155
-22 77 -49 169 -59 205 -11 36 -42 144 -70 240 -28 96 -57 195 -64 220 -8 25
-25 86 -39 135 -14 50 -41 146 -62 215 -20 69 -42 148 -50 175 -7 28 -23 82
-35 120 -11 39 -23 77 -25 85 -1 8 -19 71 -40 140 -20 69 -38 132 -40 140 -3
13 -162 575 -295 1040 -22 80 -52 188 -66 240 -14 52 -29 109 -35 125 -9 29
-157 565 -164 595 -2 8 -31 116 -65 240 -81 295 -227 845 -250 940 -10 41 -25
100 -33 130 -21 76 -168 650 -173 675 -2 10 -20 82 -40 160 -20 77 -38 151
-40 165 -3 14 -9 39 -14 55 -7 24 -90 366 -105 435 -6 28 -44 185 -79 332 -20
81 -38 161 -41 179 -3 18 -8 35 -10 39 -2 4 -7 22 -10 41 -3 19 -18 84 -32
144 -14 61 -29 130 -34 154 -5 23 -13 59 -18 80 -6 20 -13 52 -16 71 -3 19
-14 71 -25 115 -18 79 -37 161 -45 200 -11 59 -47 243 -50 260 -11 61 -35 206
-40 240 -3 23 -7 50 -9 60 -2 11 -7 45 -11 75 -3 30 -8 66 -10 80 -2 14 -7 52
-10 85 -4 33 -8 71 -10 85 -4 26 -25 245 -30 315 -2 22 -6 81 -9 130 -4 50 -9
117 -11 150 -26 359 -26 1294 0 1875 2 58 7 168 11 245 3 77 7 172 9 210 4 84
14 279 20 390 3 44 7 130 10 191 3 62 7 147 10 190 2 44 7 131 10 194 3 63 8
151 10 195 2 44 7 148 10 230 4 83 8 186 10 230 11 237 25 965 19 965 -2 0
-10 -10 -18 -22z"/>
<path d="M21608 75555 c-2 -1 -77 -5 -168 -9 -91 -3 -174 -8 -185 -10 -11 -2
-56 -7 -100 -11 -44 -3 -96 -9 -115 -11 -41 -6 -75 -10 -145 -19 -81 -10 -108
-14 -135 -20 -14 -3 -45 -8 -70 -11 -25 -3 -63 -9 -85 -14 -22 -5 -54 -11 -72
-14 -143 -26 -456 -103 -628 -156 -55 -17 -107 -32 -116 -34 -9 -2 -83 -28
-165 -56 -421 -147 -829 -338 -1214 -567 -290 -173 -577 -377 -834 -593 -82
-69 -166 -138 -185 -154 -70 -58 -479 -473 -573 -581 -444 -512 -787 -1048
-1061 -1657 -138 -306 -259 -646 -351 -983 -35 -130 -104 -439 -120 -540 -3
-16 -12 -70 -20 -120 -8 -49 -17 -112 -21 -140 -3 -27 -8 -61 -10 -75 -14 -86
-33 -293 -42 -460 -14 -238 -7 -832 11 -940 2 -14 7 -61 11 -105 3 -44 10
-109 15 -145 5 -36 12 -92 16 -125 3 -33 8 -62 9 -65 2 -3 6 -30 10 -60 3 -30
10 -71 15 -90 5 -19 11 -53 14 -75 4 -22 18 -92 31 -156 14 -63 27 -125 30
-138 2 -12 7 -31 10 -41 3 -10 8 -28 10 -40 13 -66 94 -346 146 -503 179 -539
441 -1076 760 -1559 45 -68 85 -125 88 -128 4 -3 15 -18 25 -35 48 -76 233
-315 368 -475 138 -163 464 -498 625 -640 53 -47 101 -89 107 -95 6 -5 34 -28
61 -50 28 -21 52 -42 55 -45 3 -3 55 -45 115 -92 652 -509 1356 -875 2146
-1119 175 -53 523 -140 669 -165 14 -2 48 -9 75 -14 28 -5 66 -12 85 -15 19
-3 42 -8 50 -10 8 -2 42 -7 75 -10 33 -4 68 -9 77 -11 10 -3 41 -7 69 -9 28
-2 63 -6 78 -9 14 -3 63 -8 108 -11 46 -3 93 -8 104 -10 90 -18 695 -25 917
-11 172 10 230 14 287 21 100 12 121 15 170 20 28 3 77 10 110 15 33 5 78 11
100 15 59 8 97 15 125 20 43 9 73 15 135 26 55 10 205 43 315 70 875 216 1755
649 2475 1217 364 288 691 605 995 967 376 446 753 1053 974 1570 26 61 54
124 61 141 63 138 223 601 260 754 2 8 22 85 44 170 22 85 41 157 41 160 0 6
11 68 16 90 13 62 44 222 48 255 4 22 10 65 16 95 9 58 17 113 26 195 3 28 7
61 9 74 2 12 7 60 10 105 3 44 8 95 10 111 23 176 23 859 0 1055 -3 19 -7 64
-10 100 -5 57 -13 130 -31 265 -10 78 -15 111 -24 165 -5 30 -12 71 -15 90
-18 107 -82 406 -105 490 -122 441 -214 707 -355 1025 -80 182 -251 523 -285
570 -4 6 -19 30 -32 55 -54 96 -72 128 -145 244 -42 67 -84 130 -95 142 -10
11 -18 23 -18 27 0 24 -382 521 -495 643 -5 7 -37 43 -70 80 -136 156 -469
479 -645 626 -278 232 -412 329 -837 604 -28 19 -54 34 -56 34 -3 0 -34 17
-68 38 -329 199 -832 424 -1266 566 -222 72 -610 173 -773 200 -14 2 -63 11
-110 20 -82 15 -98 18 -185 31 -22 3 -51 7 -65 10 -33 5 -101 13 -175 20 -33
3 -71 8 -85 10 -14 3 -65 7 -115 10 -49 3 -117 8 -150 11 -62 6 -582 14 -587
9z"/>
<path d="M64128 72985 c-2 -2 -70 -6 -153 -10 -82 -4 -168 -8 -190 -10 -22 -2
-71 -6 -110 -10 -38 -3 -81 -7 -95 -10 -14 -2 -50 -7 -80 -10 -30 -4 -66 -8
-80 -10 -76 -12 -339 -55 -360 -60 -14 -3 -36 -7 -50 -9 -78 -12 -429 -100
-585 -147 -186 -56 -563 -192 -690 -250 -362 -162 -543 -255 -840 -432 -11 -7
-103 -66 -205 -133 -525 -343 -982 -748 -1417 -1254 -35 -41 -230 -287 -255
-321 -9 -13 -48 -67 -85 -119 -107 -148 -219 -321 -351 -545 -101 -171 -273
-519 -348 -702 -19 -49 -41 -101 -48 -118 -11 -26 -89 -229 -101 -265 -1 -3
-4 -12 -8 -20 -10 -26 -99 -304 -102 -321 -2 -9 -12 -47 -23 -85 -18 -61 -76
-287 -86 -339 -30 -141 -52 -258 -71 -375 -12 -72 -14 -87 -25 -170 -6 -47
-13 -96 -15 -110 -2 -14 -6 -56 -10 -95 -4 -38 -8 -83 -10 -100 -27 -219 -27
-923 0 -1175 2 -19 6 -69 10 -110 4 -41 9 -82 10 -90 2 -8 6 -44 10 -80 3 -36
8 -72 10 -80 3 -8 7 -31 9 -50 3 -19 10 -64 16 -100 6 -36 13 -76 15 -90 43
-276 205 -869 305 -1115 4 -11 27 -69 50 -130 104 -271 289 -654 422 -874 21
-34 38 -65 38 -67 0 -6 152 -246 218 -344 54 -79 195 -275 239 -330 234 -296
361 -438 623 -695 226 -223 440 -405 700 -597 190 -140 476 -327 623 -407 29
-16 81 -45 117 -65 199 -113 551 -276 811 -377 362 -139 877 -283 1199 -333
19 -3 44 -7 55 -10 11 -2 42 -7 68 -10 27 -4 56 -9 65 -11 10 -1 40 -6 67 -9
28 -4 64 -9 80 -11 69 -9 207 -24 290 -30 306 -25 814 -25 1090 0 192 17 217
20 370 41 143 20 172 24 300 48 11 2 36 6 55 10 19 3 45 8 58 11 12 3 32 7 45
10 74 15 189 43 302 72 72 19 137 36 145 38 39 10 315 98 395 126 115 41 434
170 502 203 29 14 55 26 58 26 10 0 335 164 403 204 35 20 65 36 67 36 4 0
199 115 245 144 385 247 646 444 973 736 163 145 478 475 626 655 182 223 284
358 408 545 95 143 140 212 159 245 6 11 42 72 79 135 188 319 395 768 520
1130 97 281 195 638 230 839 3 19 8 37 10 40 2 4 6 26 10 51 4 25 8 47 10 50
2 3 11 56 20 118 9 62 18 122 20 134 3 11 7 46 11 77 3 31 8 64 10 74 2 10 6
48 9 85 4 37 8 78 10 92 2 14 7 72 10 130 4 58 9 128 11 155 5 55 5 607 0 670
-2 22 -6 92 -10 155 -4 63 -9 126 -11 140 -2 14 -7 54 -10 90 -3 36 -8 76 -10
90 -2 14 -7 50 -10 80 -4 30 -9 62 -10 70 -1 8 -6 40 -10 70 -4 30 -23 134
-42 230 -19 96 -37 186 -39 200 -27 135 -155 588 -194 685 -4 11 -20 56 -36
100 -129 374 -366 868 -594 1235 -99 160 -212 325 -328 480 -64 85 -118 157
-121 160 -4 3 -19 23 -36 45 -16 21 -36 46 -45 55 -8 8 -25 29 -38 45 -13 17
-38 46 -55 65 -18 19 -66 73 -107 119 -320 360 -744 729 -1185 1033 -97 67
-469 298 -479 298 -2 0 -33 16 -68 36 -88 50 -356 184 -458 229 -47 20 -103
45 -125 55 -35 16 -70 30 -85 35 -3 1 -18 7 -35 14 -255 108 -723 254 -1015
317 -41 9 -102 22 -136 29 -58 13 -116 24 -159 30 -11 2 -47 8 -80 13 -33 6
-78 14 -100 17 -22 3 -53 7 -70 10 -16 2 -52 7 -80 10 -27 3 -63 8 -80 10 -16
2 -61 7 -100 10 -38 3 -88 8 -110 10 -140 14 -736 30 -747 20z"/>
<path d="M92707 70964 c-1 -1 -87 -5 -192 -8 -104 -4 -206 -9 -225 -11 -19 -2
-75 -6 -125 -10 -49 -3 -101 -8 -115 -10 -14 -2 -50 -7 -80 -10 -30 -3 -66 -8
-80 -10 -14 -2 -45 -7 -70 -10 -25 -3 -56 -8 -70 -10 -14 -3 -41 -7 -60 -10
-131 -21 -312 -56 -440 -87 -47 -11 -92 -21 -100 -23 -218 -47 -784 -239
-1013 -344 -37 -17 -70 -31 -73 -31 -13 0 -419 -204 -524 -263 -237 -133 -570
-347 -705 -454 -6 -4 -46 -35 -90 -68 -44 -33 -82 -62 -85 -65 -3 -3 -41 -34
-85 -70 -419 -338 -851 -795 -1168 -1235 -48 -66 -90 -124 -95 -130 -17 -23
-181 -273 -203 -311 -13 -23 -55 -95 -93 -160 -158 -269 -354 -687 -466 -994
-61 -167 -139 -403 -156 -475 -1 -5 -18 -68 -37 -140 -20 -71 -38 -144 -40
-162 -3 -17 -8 -36 -11 -41 -3 -4 -7 -19 -10 -33 -2 -13 -16 -82 -30 -154 -14
-71 -28 -145 -31 -162 -3 -18 -7 -45 -10 -60 -8 -54 -14 -89 -20 -143 -4 -30
-9 -62 -10 -70 -12 -65 -29 -247 -42 -440 -10 -147 -10 -679 0 -835 11 -175
16 -236 21 -275 3 -19 8 -60 11 -90 6 -53 41 -305 49 -345 2 -11 11 -58 20
-105 32 -170 50 -251 88 -400 94 -368 212 -711 366 -1060 71 -163 253 -518
319 -622 12 -21 23 -40 23 -43 0 -7 166 -268 239 -375 104 -153 296 -409 367
-490 12 -14 53 -61 90 -105 272 -319 708 -727 1024 -959 36 -27 67 -51 70 -55
3 -3 32 -24 65 -47 33 -22 96 -66 141 -97 273 -188 696 -426 974 -547 41 -18
98 -43 125 -55 86 -40 433 -174 490 -189 6 -2 17 -6 25 -9 8 -3 69 -22 135
-42 66 -20 140 -43 165 -50 63 -19 318 -83 360 -90 19 -3 51 -10 70 -15 59
-15 287 -56 364 -65 21 -2 46 -7 55 -9 9 -3 41 -8 71 -11 57 -6 97 -11 165
-19 37 -5 132 -13 237 -21 90 -7 387 -18 483 -18 111 0 430 12 485 18 19 2 71
6 115 10 44 3 150 15 235 26 205 26 213 28 300 44 41 8 89 17 105 20 60 10
232 47 310 67 44 11 87 21 96 23 44 9 317 89 424 124 512 168 1017 408 1475
699 113 73 309 205 345 234 6 4 53 40 105 79 444 334 885 769 1225 1209 37 47
73 93 80 102 26 31 199 281 256 368 162 247 355 599 467 850 205 460 328 828
433 1290 42 185 49 222 69 350 7 41 14 83 16 94 2 10 12 91 24 180 18 146 23
193 35 336 21 246 21 804 0 1000 -2 19 -6 71 -10 115 -3 44 -8 91 -10 105 -2
14 -6 50 -10 80 -4 30 -8 66 -10 80 -2 14 -9 59 -14 100 -17 115 -21 141 -31
190 -7 38 -22 120 -22 127 0 2 -4 22 -10 45 -5 24 -12 54 -14 68 -37 193 -161
621 -254 873 -102 276 -294 700 -390 862 -9 17 -31 55 -47 85 -72 133 -162
279 -255 418 -40 59 -75 112 -78 117 -3 6 -17 26 -31 45 -14 19 -58 79 -98
133 -40 54 -79 106 -86 115 -8 10 -44 55 -81 102 -162 204 -526 588 -725 765
-265 237 -538 445 -868 660 -46 30 -84 55 -86 55 -1 0 -43 25 -93 55 -50 30
-115 68 -144 83 -29 16 -70 39 -92 51 -118 67 -382 194 -546 263 -52 21 -108
45 -125 53 -283 125 -960 320 -1280 370 -66 10 -99 15 -125 20 -49 10 -66 13
-125 20 -33 4 -67 9 -75 10 -8 1 -46 5 -85 10 -38 4 -77 9 -86 10 -9 2 -56 6
-105 10 -49 4 -105 9 -124 11 -19 2 -127 6 -240 10 -113 3 -222 7 -243 8 -20
1 -38 1 -40 0z"/>
<path d="M41349 64336 c-2 -2 -53 -7 -114 -10 -125 -8 -202 -14 -260 -20 -22
-3 -67 -8 -100 -11 -33 -3 -69 -8 -80 -10 -11 -2 -42 -7 -70 -10 -284 -36
-752 -143 -1070 -245 -88 -28 -167 -54 -175 -57 -8 -3 -19 -7 -25 -9 -45 -11
-353 -135 -463 -185 -34 -16 -65 -29 -68 -29 -8 0 -346 -169 -420 -210 -218
-120 -586 -348 -614 -379 -3 -3 -27 -22 -55 -40 -369 -255 -814 -655 -1136
-1021 -289 -329 -565 -713 -776 -1081 -73 -125 -277 -525 -314 -614 -4 -11
-18 -42 -30 -69 -81 -185 -217 -570 -288 -811 -36 -126 -116 -468 -136 -586
-3 -19 -8 -41 -10 -49 -2 -8 -6 -35 -9 -60 -3 -25 -8 -54 -10 -65 -4 -24 -19
-116 -20 -130 -1 -5 -5 -44 -10 -85 -5 -41 -10 -83 -12 -94 -3 -18 -10 -92
-19 -201 -25 -304 -25 -847 0 -1080 2 -22 7 -69 10 -104 3 -36 8 -79 10 -95 2
-17 9 -74 16 -126 6 -52 12 -102 14 -110 3 -16 14 -86 21 -135 3 -16 16 -88
30 -160 14 -71 28 -141 30 -155 10 -49 76 -306 105 -407 81 -281 188 -575 312
-858 89 -204 307 -612 432 -810 58 -91 188 -288 200 -302 5 -6 21 -28 35 -47
22 -31 93 -126 205 -272 25 -33 108 -133 140 -170 6 -6 35 -40 65 -75 188
-217 433 -458 685 -674 39 -33 72 -63 75 -66 3 -3 79 -63 170 -133 193 -149
538 -382 730 -492 132 -76 491 -261 580 -298 133 -57 227 -98 245 -106 87 -39
444 -165 570 -201 90 -26 325 -90 345 -94 8 -2 33 -8 55 -13 44 -12 366 -76
430 -87 22 -3 56 -8 75 -11 19 -2 62 -9 95 -14 33 -5 85 -11 115 -15 30 -3 71
-8 90 -10 19 -3 69 -8 110 -11 41 -3 91 -7 110 -9 232 -21 786 -21 996 0 23 2
72 7 110 10 38 3 89 8 114 11 25 3 63 7 85 10 22 2 51 7 65 9 14 2 47 7 74 10
27 3 88 12 135 20 47 8 100 17 116 20 456 77 1070 269 1528 477 85 39 394 194
455 228 15 8 51 29 81 45 30 17 61 35 70 40 9 6 50 30 91 54 111 66 409 267
535 361 103 77 244 188 255 201 3 3 33 28 67 56 34 29 81 69 104 90 23 21 70
63 103 93 154 141 383 378 530 550 55 63 110 128 124 144 88 102 357 478 459
642 153 244 341 592 425 784 9 19 26 57 38 85 12 27 42 99 67 160 24 60 48
119 53 130 5 11 25 67 46 125 20 58 40 114 44 125 9 22 68 211 99 320 53 186
131 532 156 690 3 22 8 51 10 65 2 14 11 72 19 130 13 96 18 135 32 270 2 25
6 63 9 85 19 171 26 728 11 950 -15 231 -29 377 -52 530 -7 49 -11 77 -19 135
-50 351 -180 847 -325 1240 -24 63 -49 132 -56 153 -8 20 -18 45 -23 55 -5 9
-26 58 -46 107 -37 90 -205 446 -215 455 -3 3 -23 39 -44 80 -32 61 -138 246
-199 345 -67 108 -272 409 -324 475 -6 8 -46 60 -89 115 -229 297 -587 676
-854 905 -14 12 -38 33 -53 46 -133 118 -484 385 -616 469 -9 6 -44 29 -78 53
-34 23 -67 42 -72 42 -6 0 -11 5 -11 10 0 6 -4 10 -9 10 -5 0 -51 26 -102 59
-157 98 -439 247 -689 364 -339 158 -886 342 -1258 423 -97 21 -252 52 -287
58 -16 3 -70 12 -120 20 -126 21 -149 24 -245 36 -145 17 -163 19 -240 25 -41
4 -91 9 -110 11 -43 6 -785 15 -791 10z"/>
<path d="M20577 57254 c-1 -1 -103 -4 -227 -8 -124 -3 -252 -8 -285 -10 -74
-6 -180 -16 -220 -21 -16 -2 -74 -9 -128 -15 -53 -6 -107 -13 -120 -15 -12 -2
-49 -8 -82 -14 -33 -5 -76 -12 -95 -15 -19 -3 -71 -12 -115 -21 -44 -9 -91
-18 -105 -21 -14 -3 -54 -12 -90 -20 -36 -9 -74 -17 -85 -20 -11 -2 -47 -11
-80 -19 -33 -9 -67 -17 -75 -19 -376 -95 -812 -256 -1210 -449 -378 -182 -821
-457 -1145 -709 -464 -361 -935 -836 -1238 -1249 -9 -13 -43 -58 -73 -99 -205
-275 -457 -696 -618 -1033 -110 -230 -296 -686 -296 -727 0 -6 -4 -18 -9 -28
-8 -14 -39 -104 -47 -137 -2 -5 -10 -35 -19 -65 -20 -67 -104 -377 -109 -405
-2 -11 -14 -63 -25 -115 -12 -52 -24 -111 -27 -130 -3 -19 -11 -69 -19 -110
-8 -41 -17 -97 -21 -125 -4 -27 -8 -59 -10 -70 -3 -11 -7 -38 -9 -60 -3 -22
-10 -74 -15 -115 -5 -41 -12 -111 -16 -155 -4 -44 -8 -93 -10 -110 -17 -187
-23 -599 -10 -830 13 -254 14 -260 31 -415 3 -19 7 -62 10 -95 4 -33 8 -66 10
-73 3 -7 7 -34 10 -60 7 -59 23 -163 35 -222 5 -25 11 -58 14 -75 2 -16 14
-73 26 -125 11 -52 23 -106 26 -120 3 -14 12 -52 21 -85 8 -33 17 -68 19 -79
2 -10 11 -44 20 -75 9 -31 17 -60 18 -66 29 -132 203 -619 297 -832 195 -443
432 -858 702 -1231 87 -122 255 -337 321 -413 17 -19 60 -69 96 -110 83 -95
462 -475 559 -559 40 -36 79 -70 85 -75 6 -6 58 -49 116 -95 58 -47 107 -87
110 -90 21 -22 233 -176 360 -262 432 -293 830 -504 1315 -696 100 -40 416
-151 445 -157 8 -2 69 -19 135 -39 99 -29 316 -85 392 -101 123 -25 277 -55
313 -60 25 -3 52 -8 60 -10 8 -3 33 -7 55 -10 22 -3 49 -7 60 -9 11 -2 49 -7
85 -11 36 -4 72 -9 80 -10 21 -4 147 -17 195 -20 22 -1 87 -6 145 -11 200 -17
851 -10 1045 11 22 2 65 7 95 10 30 3 89 10 130 15 41 5 95 12 120 15 115 14
527 93 625 120 28 7 73 19 100 26 60 14 93 24 295 85 206 62 466 158 670 246
14 6 27 12 30 13 42 15 381 181 500 246 247 133 667 405 830 535 8 7 76 61
150 120 243 193 522 453 720 670 30 33 73 80 95 105 36 39 172 200 202 239 6
8 23 29 36 45 37 46 187 247 227 305 19 28 42 59 50 70 8 10 42 61 74 112 32
51 74 116 91 143 34 52 130 218 190 326 64 118 245 490 245 505 0 3 11 29 24
57 109 239 254 675 336 1012 32 132 36 148 45 198 3 15 12 58 20 96 8 38 19
97 25 132 5 35 12 73 14 84 3 17 12 74 21 140 2 11 6 45 10 75 3 30 8 66 10
80 2 14 7 59 11 100 3 41 8 89 10 105 25 234 25 915 0 1135 -3 19 -7 64 -11
100 -11 124 -16 165 -20 185 -2 11 -7 43 -10 70 -3 28 -10 75 -15 105 -5 30
-12 71 -15 90 -3 19 -10 60 -16 90 -6 30 -13 69 -16 85 -3 17 -14 68 -24 115
-11 47 -22 96 -25 110 -16 78 -91 348 -137 495 -58 182 -173 494 -188 510 -5
5 -9 15 -9 21 0 30 -202 453 -304 637 -14 26 -37 66 -50 90 -124 224 -357 572
-530 792 -62 79 -203 251 -231 281 -5 6 -44 49 -85 95 -81 92 -362 374 -451
454 -30 28 -86 77 -125 110 -38 33 -71 62 -74 65 -31 32 -333 265 -440 339
-171 119 -405 271 -417 271 -4 0 -14 6 -22 14 -9 7 -43 28 -76 46 -33 18 -96
53 -139 78 -144 81 -498 248 -671 316 -93 37 -177 71 -185 75 -15 8 -333 113
-450 149 -63 19 -359 96 -410 106 -14 3 -81 16 -150 30 -69 14 -141 28 -160
31 -19 3 -42 8 -50 10 -8 2 -37 6 -65 10 -27 3 -63 8 -80 10 -56 9 -106 15
-153 20 -26 3 -63 7 -82 10 -46 6 -141 15 -210 20 -88 7 -480 22 -483 19z"/>
<path d="M91088 52265 c-2 -2 -59 -6 -128 -10 -195 -12 -202 -12 -257 -19 -29
-3 -77 -9 -105 -12 -29 -3 -64 -7 -78 -9 -14 -2 -50 -7 -80 -10 -30 -4 -62 -9
-70 -10 -8 -1 -35 -6 -60 -10 -25 -4 -54 -9 -65 -11 -10 -2 -37 -6 -60 -10
-22 -3 -71 -12 -110 -21 -38 -8 -83 -17 -100 -20 -134 -21 -564 -142 -780
-218 -71 -25 -137 -48 -145 -50 -25 -6 -237 -93 -360 -147 -915 -401 -1752
-1030 -2405 -1808 -342 -407 -633 -853 -867 -1330 -53 -107 -117 -244 -142
-305 -26 -60 -51 -119 -56 -130 -74 -155 -268 -768 -314 -995 -3 -14 -17 -79
-31 -145 -14 -66 -34 -174 -45 -240 -26 -161 -36 -228 -45 -320 -3 -33 -8 -71
-10 -85 -2 -14 -7 -61 -10 -105 -4 -44 -9 -93 -10 -109 -6 -50 -18 -368 -18
-476 0 -119 12 -461 18 -506 2 -16 6 -65 10 -109 7 -86 14 -155 20 -195 2 -14
6 -50 10 -80 4 -30 8 -66 10 -80 22 -140 39 -240 55 -320 11 -52 22 -110 25
-129 3 -19 8 -37 10 -41 2 -4 7 -22 10 -41 3 -19 15 -70 27 -114 11 -44 21
-84 22 -90 1 -5 10 -37 20 -70 10 -33 20 -67 21 -75 5 -22 40 -134 66 -215 12
-38 24 -74 25 -80 5 -17 64 -179 73 -200 5 -11 15 -36 22 -55 139 -381 383
-854 645 -1250 126 -191 285 -413 314 -440 3 -3 21 -25 40 -50 19 -25 39 -50
45 -56 5 -7 26 -31 45 -55 31 -39 134 -156 240 -273 155 -171 493 -487 675
-632 116 -92 194 -152 225 -174 19 -13 37 -27 40 -30 13 -14 152 -110 159
-110 5 0 11 -3 13 -8 2 -4 48 -37 103 -73 362 -239 790 -461 1182 -615 65 -25
132 -52 148 -59 154 -65 727 -233 885 -259 38 -6 50 -9 120 -25 25 -5 74 -15
110 -20 36 -6 75 -13 86 -15 24 -5 65 -11 139 -22 28 -3 58 -8 69 -10 10 -2
44 -6 75 -9 31 -4 65 -8 76 -10 11 -1 54 -6 95 -9 41 -4 98 -9 125 -12 266
-23 816 -23 1060 1 22 2 69 7 105 10 65 6 135 14 178 20 13 2 53 7 90 11 37 3
69 8 72 9 3 2 26 6 50 10 149 20 443 80 580 116 41 11 84 22 95 25 11 2 67 18
125 35 58 17 119 34 135 39 148 40 571 202 782 299 214 98 631 319 674 357 8
8 18 14 22 14 3 0 64 37 134 83 546 352 1043 785 1457 1272 38 44 80 94 95
111 14 17 35 43 46 58 11 16 25 33 30 40 46 50 218 287 309 426 232 353 392
645 554 1010 138 309 309 820 363 1078 5 24 11 47 13 51 3 4 8 22 11 39 3 18
12 60 20 94 8 35 16 74 18 88 5 24 16 83 23 125 12 65 44 268 49 315 4 30 8
66 10 80 2 14 7 57 11 95 4 39 8 84 10 100 26 243 26 951 0 1185 -2 19 -7 64
-11 100 -22 215 -74 541 -120 745 -9 39 -18 80 -21 92 -2 12 -8 33 -13 45 -5
13 -9 26 -9 31 -4 66 -165 588 -233 752 -7 17 -13 35 -14 40 -16 66 -240 550
-335 724 -86 156 -113 206 -139 248 -14 23 -46 75 -70 115 -47 78 -221 340
-231 348 -4 3 -22 27 -40 55 -19 27 -40 56 -46 65 -7 8 -42 53 -79 100 -123
158 -137 175 -264 320 -180 204 -412 437 -577 580 -51 45 -180 154 -205 175
-13 11 -62 50 -109 85 -47 36 -87 68 -90 71 -43 48 -511 357 -715 472 -44 24
-98 55 -120 67 -168 95 -512 254 -725 337 -63 24 -124 48 -135 53 -22 10 -162
59 -185 65 -8 3 -67 21 -130 41 -167 52 -456 130 -550 148 -14 2 -70 14 -125
25 -116 23 -250 47 -316 56 -25 3 -57 8 -70 10 -23 3 -74 10 -161 20 -88 10
-135 15 -208 20 -41 3 -100 8 -130 11 -57 6 -686 14 -692 9z"/>
<path d="M28247 40894 c-1 -1 -74 -4 -162 -8 -88 -4 -176 -8 -195 -10 -19 -3
-66 -7 -105 -11 -90 -8 -154 -15 -185 -20 -14 -2 -63 -9 -110 -15 -47 -6 -98
-14 -115 -16 -16 -3 -39 -7 -50 -9 -35 -5 -176 -31 -215 -40 -14 -3 -38 -8
-55 -11 -43 -7 -266 -60 -355 -84 -323 -86 -743 -238 -1030 -372 -245 -114
-606 -308 -727 -390 -23 -15 -46 -28 -51 -28 -5 0 -15 -7 -22 -15 -7 -8 -37
-29 -66 -46 -30 -17 -60 -36 -67 -43 -7 -7 -24 -19 -37 -26 -14 -7 -36 -22
-50 -32 -14 -11 -68 -50 -120 -88 -52 -38 -99 -73 -105 -77 -5 -5 -39 -31 -75
-58 -199 -152 -367 -302 -615 -550 -207 -207 -354 -369 -470 -520 -16 -21 -42
-52 -56 -69 -48 -56 -249 -335 -249 -345 0 -5 -4 -11 -8 -13 -4 -1 -34 -43
-67 -93 -32 -49 -73 -113 -92 -141 -18 -28 -33 -54 -33 -57 0 -3 -13 -25 -29
-49 -15 -24 -42 -68 -58 -98 -17 -30 -41 -73 -53 -95 -35 -59 -202 -392 -227
-450 -12 -27 -44 -104 -73 -170 -28 -66 -60 -142 -70 -170 -76 -208 -95 -261
-121 -340 -80 -245 -186 -655 -214 -835 -3 -14 -13 -79 -24 -145 -64 -394 -85
-647 -85 -1060 -1 -230 8 -490 18 -575 3 -19 7 -66 10 -105 4 -38 8 -81 10
-95 3 -14 7 -52 11 -85 10 -99 65 -422 92 -545 14 -63 26 -119 28 -125 5 -25
17 -75 31 -128 9 -32 17 -66 19 -75 2 -9 20 -71 39 -137 279 -959 769 -1837
1442 -2585 103 -115 395 -407 489 -490 377 -332 748 -600 1140 -825 128 -73
451 -239 575 -294 182 -82 653 -261 725 -275 6 -1 48 -14 95 -29 168 -51 558
-147 662 -161 18 -3 42 -7 53 -9 11 -3 56 -10 100 -17 44 -7 89 -14 99 -16 27
-5 174 -25 211 -29 17 -1 64 -6 105 -9 41 -4 91 -9 110 -11 207 -25 981 -25
1108 0 13 2 60 7 105 10 45 3 93 8 107 10 46 6 104 15 150 20 190 25 497 84
700 135 289 74 695 207 885 290 22 10 85 37 140 60 211 89 662 323 792 411 24
16 46 29 49 29 10 0 364 240 464 315 275 206 477 381 731 635 435 433 771 871
1073 1399 110 191 256 483 331 661 31 74 61 144 66 155 67 146 259 746 285
889 3 16 7 32 9 36 2 3 6 17 9 31 2 13 16 78 30 144 28 133 32 153 46 240 5
33 12 71 15 84 2 14 7 47 10 75 3 28 8 58 10 66 2 8 7 44 10 80 4 36 8 72 10
80 1 8 6 51 10 95 3 44 8 96 10 115 18 165 24 663 11 900 -10 183 -13 219 -33
390 -3 30 -7 66 -8 80 -6 52 -47 315 -50 321 -2 3 -7 28 -10 55 -4 27 -13 76
-20 109 -8 33 -17 76 -20 95 -22 133 -144 559 -222 779 -157 443 -391 936
-598 1261 -159 251 -391 579 -502 710 -130 155 -216 255 -262 305 -96 103
-373 377 -450 445 -41 36 -83 74 -95 85 -97 93 -430 348 -637 488 -138 93
-451 287 -464 287 -3 0 -24 11 -46 25 -60 39 -397 206 -534 265 -318 138 -570
226 -975 341 -87 24 -380 89 -470 104 -19 3 -57 10 -85 15 -27 5 -67 12 -87
15 -21 3 -55 7 -75 10 -21 3 -49 8 -63 10 -14 2 -52 7 -85 10 -33 4 -67 8 -75
10 -8 2 -53 7 -100 10 -47 4 -101 9 -120 11 -111 11 -693 27 -703 18z"/>
<path d="M80527 36923 c-1 -1 -70 -4 -152 -8 -83 -3 -168 -8 -190 -10 -22 -2
-76 -7 -120 -10 -43 -4 -88 -8 -100 -10 -11 -1 -47 -6 -80 -10 -33 -3 -71 -9
-85 -11 -23 -4 -45 -7 -137 -19 -21 -3 -47 -7 -58 -9 -41 -8 -191 -35 -222
-39 -17 -3 -36 -7 -40 -10 -5 -3 -28 -8 -52 -12 -95 -14 -617 -155 -686 -184
-11 -5 -63 -24 -115 -42 -904 -310 -1769 -855 -2485 -1566 -555 -552 -1033
-1242 -1350 -1950 -36 -81 -70 -157 -75 -168 -50 -109 -230 -615 -244 -682 -1
-10 -6 -25 -9 -33 -20 -47 -123 -484 -142 -600 -3 -19 -8 -42 -10 -50 -2 -8
-7 -31 -10 -50 -3 -19 -8 -46 -10 -60 -19 -110 -39 -265 -49 -370 -4 -41 -9
-86 -11 -100 -4 -25 -13 -148 -20 -275 -6 -100 -6 -573 -1 -680 6 -101 13
-201 21 -290 6 -58 9 -90 20 -175 3 -22 7 -59 10 -82 3 -24 10 -72 15 -108 5
-36 12 -81 14 -101 3 -20 8 -42 10 -50 3 -8 7 -30 10 -49 10 -63 16 -93 52
-254 19 -88 37 -162 39 -166 2 -4 7 -20 10 -36 3 -16 12 -54 20 -84 9 -30 18
-63 20 -73 16 -71 112 -363 168 -512 43 -114 53 -139 82 -210 7 -16 25 -59 40
-95 108 -258 322 -664 483 -915 69 -107 184 -279 191 -285 4 -3 23 -30 44 -60
20 -30 47 -67 59 -82 13 -15 39 -49 58 -75 19 -27 41 -54 48 -61 7 -8 25 -30
40 -50 15 -20 39 -50 53 -67 15 -16 68 -79 120 -140 88 -103 444 -466 555
-565 114 -102 298 -253 434 -357 127 -96 454 -321 551 -378 268 -157 304 -176
539 -291 118 -58 224 -109 235 -114 116 -52 382 -155 526 -205 162 -56 492
-151 584 -169 11 -2 60 -14 109 -26 88 -21 269 -56 336 -66 19 -2 73 -11 120
-19 47 -7 110 -17 140 -20 30 -3 66 -8 80 -10 14 -2 54 -7 90 -10 36 -3 85 -8
110 -10 261 -27 900 -27 1155 0 22 2 70 6 107 9 37 3 77 8 90 10 13 3 47 8 76
11 103 11 272 38 417 66 55 11 111 23 125 25 283 52 868 235 1165 364 353 153
672 317 872 446 28 19 54 34 57 34 7 0 408 269 416 279 3 3 50 40 105 81 92
69 306 242 345 279 9 9 54 50 101 91 88 79 339 328 424 421 485 533 869 1113
1160 1754 64 142 80 178 81 184 0 3 6 17 11 31 63 146 186 501 239 688 52 184
122 485 148 635 3 15 9 53 15 85 11 66 17 107 26 177 3 28 8 61 10 75 7 40 14
100 20 165 4 33 8 76 10 95 27 279 27 1082 0 1190 -2 8 -7 49 -10 90 -4 41 -8
82 -10 90 -2 8 -6 44 -10 80 -3 36 -8 72 -10 80 -2 8 -7 35 -10 60 -3 25 -10
68 -15 95 -5 28 -12 66 -14 85 -3 19 -19 100 -36 180 -17 80 -33 156 -36 170
-5 25 -29 115 -65 250 -78 286 -206 641 -342 945 -37 82 -235 476 -263 522
-61 100 -89 149 -93 158 -18 47 -327 500 -418 615 -6 8 -53 67 -103 130 -321
404 -755 824 -1194 1154 -196 148 -528 365 -708 464 -32 18 -84 46 -115 64
-103 56 -365 184 -478 232 -60 26 -123 53 -140 61 -138 62 -616 227 -755 260
-8 2 -78 20 -155 39 -136 35 -388 89 -470 100 -22 4 -62 10 -90 16 -27 5 -88
14 -135 20 -47 6 -103 13 -125 17 -22 3 -51 6 -65 8 -14 1 -61 6 -105 10 -113
11 -130 12 -315 20 -153 7 -469 12 -473 8z"/>
<path d="M43887 30304 c-1 -1 -85 -5 -186 -9 -101 -4 -191 -8 -200 -10 -9 -1
-55 -6 -103 -10 -49 -3 -97 -8 -108 -10 -11 -2 -46 -7 -78 -10 -83 -8 -122
-13 -167 -20 -22 -3 -49 -8 -60 -9 -36 -6 -110 -18 -125 -21 -8 -2 -55 -10
-105 -19 -236 -43 -795 -190 -868 -228 -10 -5 -26 -11 -35 -13 -17 -3 -298
-107 -337 -124 -11 -5 -49 -21 -85 -36 -75 -31 -92 -38 -215 -94 -49 -23 -103
-49 -120 -58 -16 -9 -37 -20 -45 -24 -109 -54 -147 -73 -176 -89 -18 -11 -64
-36 -101 -56 -187 -103 -487 -295 -678 -435 -55 -40 -102 -76 -105 -79 -3 -3
-32 -25 -65 -50 -33 -25 -73 -57 -90 -71 -16 -15 -64 -54 -105 -88 -176 -145
-512 -472 -660 -641 -36 -40 -81 -92 -101 -114 -183 -209 -540 -700 -619 -851
-3 -5 -30 -53 -61 -105 -32 -52 -75 -129 -98 -170 -68 -123 -271 -540 -271
-556 0 -3 -11 -29 -24 -57 -71 -153 -222 -587 -275 -790 -11 -43 -22 -81 -24
-85 -4 -6 -70 -290 -83 -357 -27 -135 -30 -154 -48 -265 -19 -122 -25 -161
-31 -218 -3 -26 -7 -58 -10 -72 -2 -14 -7 -59 -11 -100 -4 -41 -8 -88 -10
-105 -26 -257 -26 -931 1 -1164 2 -20 9 -85 16 -146 6 -60 13 -117 14 -126 2
-9 6 -40 10 -69 4 -29 9 -62 11 -74 2 -12 7 -41 10 -66 3 -25 7 -52 9 -60 2
-8 7 -31 10 -50 14 -82 49 -245 81 -380 20 -80 37 -152 39 -160 32 -136 161
-522 241 -724 56 -141 67 -167 150 -346 269 -587 677 -1199 1124 -1684 143
-155 391 -396 535 -521 39 -33 72 -62 75 -66 3 -3 73 -59 156 -125 456 -359
880 -618 1416 -863 184 -84 722 -282 831 -306 12 -2 56 -14 97 -25 108 -30
175 -49 202 -54 24 -6 149 -34 183 -42 17 -4 99 -20 255 -49 35 -7 215 -33
275 -40 28 -4 61 -8 75 -10 14 -3 56 -7 95 -11 38 -3 81 -7 94 -9 165 -26
1030 -26 1191 -1 14 3 57 7 95 11 85 8 127 13 180 21 67 10 88 13 135 19 25 3
52 8 60 10 8 2 33 6 55 10 233 34 616 128 905 220 575 185 1162 469 1660 804
102 69 380 271 400 291 3 3 37 30 75 61 39 31 80 65 92 75 12 11 32 28 45 38
118 97 442 407 543 520 6 6 49 54 96 106 161 178 349 415 498 630 68 97 261
396 261 404 0 2 17 33 38 67 264 437 530 1084 671 1629 37 146 97 415 110 500
6 36 13 74 15 85 13 69 37 247 50 370 21 195 23 222 32 394 12 239 7 642 -11
841 -2 25 -7 74 -10 110 -3 36 -8 83 -10 105 -8 70 -16 139 -20 165 -2 14 -7
45 -10 70 -3 25 -10 70 -15 100 -5 30 -12 73 -16 95 -3 22 -12 72 -21 110 -8
39 -17 84 -19 100 -3 17 -21 95 -40 175 -20 80 -37 152 -39 160 -32 150 -217
691 -295 865 -10 22 -36 81 -59 131 -81 185 -166 354 -288 574 -91 164 -269
440 -397 615 -77 105 -287 374 -317 405 -8 8 -43 49 -79 90 -156 179 -394 417
-585 585 -44 39 -86 76 -93 83 -96 90 -484 378 -682 507 -109 71 -347 215
-354 215 -3 0 -29 14 -58 32 -58 34 -345 179 -448 226 -281 127 -674 274 -880
327 -36 9 -74 21 -85 26 -63 27 -598 142 -765 164 -25 3 -70 10 -100 15 -30 5
-84 12 -120 16 -36 3 -72 7 -80 9 -13 2 -67 7 -240 21 -111 9 -587 23 -593 18z"/>
</g>
</svg>
