<?xml version="1.0" encoding="UTF-8" standalone="no"?>
<!DOCTYPE svg PUBLIC "-//W3C//DTD SVG 1.1//EN" "http://www.w3.org/Graphics/SVG/1.1/DTD/svg11.dtd">
<svg width="100%" height="100%" viewBox="0 0 100 150" version="1.1" xmlns="http://www.w3.org/2000/svg" xmlns:xlink="http://www.w3.org/1999/xlink" xml:space="preserve" xmlns:serif="http://www.serif.com/" style="fill-rule:evenodd;clip-rule:evenodd;stroke-linecap:round;stroke-linejoin:round;stroke-miterlimit:1.5;">
    <path d="M0,150L100,0L100,150L0,150Z" style="fill:rgb(0,130,22);"/>
    <g transform="matrix(1,0,0,1,8.67427,18.4328)">
        <g transform="matrix(1,0,0,1,-5.08258,-33.7484)">
            <g transform="matrix(1,0,0,1,-7.05209,18.1067)">
                <path d="M37.784,21.089C37.784,21.089 47.665,29.384 33.759,39.021" style="fill:none;stroke:black;stroke-width:1px;"/>
            </g>
            <g transform="matrix(-1,0,0,1,51.2506,18.1067)">
                <path d="M37.784,21.089C37.784,21.089 47.665,29.384 33.759,39.021" style="fill:none;stroke:black;stroke-width:1px;"/>
            </g>
            <g transform="matrix(1,0,0,1,-7.05209,18.1067)">
                <path d="M37.784,21.089L20.829,21.089" style="fill:none;stroke:black;stroke-width:1px;"/>
            </g>
            <g transform="matrix(1,0,0,-1,-7.05209,100.784)">
                <path d="M37.784,21.089C37.784,21.089 47.665,29.384 33.759,39.021" style="fill:none;stroke:black;stroke-width:1px;"/>
            </g>
            <g transform="matrix(-1,0,0,-1,51.2506,100.784)">
                <path d="M37.784,21.089C37.784,21.089 47.665,29.384 33.759,39.021" style="fill:none;stroke:black;stroke-width:1px;"/>
            </g>
            <g transform="matrix(1,0,0,-1,-7.05209,100.784)">
                <path d="M37.784,21.089L20.829,21.089" style="fill:none;stroke:black;stroke-width:1px;"/>
            </g>
            <g transform="matrix(1,0,0,1,-7.05209,18.1067)">
                <path d="M33.759,39.021C33.759,39.021 30.538,41.616 33.759,43.656" style="fill:none;stroke:black;stroke-width:1px;"/>
            </g>
            <g transform="matrix(-1,0,0,1,51.2506,18.1067)">
                <path d="M33.759,39.021C33.759,39.021 30.538,41.616 33.759,43.656" style="fill:none;stroke:black;stroke-width:1px;"/>
            </g>
        </g>
        <g transform="matrix(0.784001,0,0,0.915442,2.89411,2.46092)">
            <rect x="2.66" y="3.263" width="30.707" height="44.239" style="fill:none;stroke:black;stroke-width:1.76px;"/>
        </g>
        <path d="M8.495,6.852L25.339,6.918C25.339,6.918 32.944,15.445 19.287,22.174C19.287,22.174 16.156,24.972 20.686,29.169C20.686,29.169 32.211,35.964 24.417,44.758L9.095,44.824C9.095,44.824 1.1,35.831 13.625,28.902C13.625,28.902 18.754,24.772 12.692,21.907C6.63,19.043 4.365,10.277 8.495,6.852Z" style="fill:none;stroke:black;stroke-width:0.55px;"/>
        <path d="M18.384,8.562L18.485,8.522C18.622,8.473 19.157,8.364 19.529,8.354C20.292,8.333 20.808,8.717 20.975,8.883L21.269,9.178L21.346,9.174C21.846,9.174 22.383,9.064 22.755,8.878C22.91,8.8 23.695,8.465 24.136,8.448C24.767,8.423 25.24,8.672 25.558,8.99C25.79,9.222 26.176,9.395 26.411,9.63C26.607,9.825 26.765,10.07 26.857,10.372C27.035,10.616 27.193,10.955 27.229,11.4C27.252,11.685 27.161,12.379 27.135,12.567C27.144,12.874 27.162,13.764 27.088,14.015C27.02,14.247 26.92,14.433 26.812,14.582C26.746,14.759 26.599,15.134 26.428,15.465C26.335,15.851 26.199,16.294 26.038,16.455C25.903,16.59 25.779,16.737 25.651,16.88C25.54,17.124 25.382,17.431 25.238,17.574C25.115,17.698 24.973,17.802 24.826,17.902L24.531,18.099C24.384,18.199 24.242,18.304 24.119,18.427C23.321,19.226 22.466,19.814 21.668,20.612C21.435,20.845 21.142,21.028 20.793,21.145C20.603,21.209 20.202,21.276 20.06,21.299C19.886,21.387 19.703,21.464 19.562,21.52C19.224,21.794 18.837,21.988 18.42,22.129C18.097,22.239 17.736,22.278 17.432,22.43C17.242,22.525 16.997,22.605 16.709,22.636C16.449,22.663 16.054,22.613 15.857,22.613C14.191,22.613 13.281,22.07 12.506,21.312C12.444,21.272 12.3,21.176 12.157,21.071C11.923,20.984 11.7,20.881 11.591,20.772C11.37,20.551 11.047,20.444 10.76,20.288C10.319,20.049 9.906,19.779 9.566,19.44C9.231,19.105 8.983,18.714 8.773,18.302C8.664,18.089 8.611,17.845 8.447,17.681C8.137,17.371 7.89,16.708 7.783,16.383C7.261,15.649 6.798,14.312 6.767,13.305C6.743,13.14 6.66,12.536 6.678,12.295C6.72,11.711 6.979,11.31 7.221,11.069C7.38,10.909 7.752,10.748 8.048,10.638C8.204,10.543 8.381,10.47 8.582,10.425C8.663,10.407 8.808,10.404 8.96,10.407L8.99,10.398L9.024,10.39C9.054,10.376 9.084,10.364 9.115,10.352L9.482,10.21C9.703,9.976 10.031,9.781 10.512,9.687C10.669,9.656 10.826,9.628 10.984,9.605C11.626,9.348 12.272,9.105 12.936,8.919C12.982,8.906 13.14,8.882 13.365,8.879C13.631,8.658 14.078,8.416 14.711,8.485C14.948,8.511 15.383,8.651 15.578,8.747L15.58,8.748L16.123,8.748C16.543,8.748 17.634,8.737 17.668,8.736C17.863,8.663 18.174,8.6 18.384,8.562ZM20.512,21.017C20.526,21.007 20.538,20.996 20.548,20.985L20.512,21.017ZM19.8,11.665C19.758,11.681 19.716,11.698 19.674,11.715L19.55,11.76L19.604,11.778L19.857,11.643L19.879,11.63L19.8,11.665ZM18.097,10.538L18.15,10.589C18.141,10.58 18.095,10.536 18.095,10.536L18.097,10.538Z" style="fill:rgb(238,178,126);"/>
        <path d="M10.538,20.04C10.493,20.008 10.437,19.966 10.409,19.935C10.33,19.846 10.28,19.738 10.28,19.596C10.28,19.376 10.458,19.197 10.678,19.197C10.833,19.197 10.967,19.286 11.033,19.415C11.074,19.442 11.123,19.478 11.151,19.505C11.202,19.556 11.243,19.65 11.273,19.738C11.284,19.739 11.294,19.741 11.302,19.743C11.363,19.76 11.415,19.786 11.459,19.82C11.503,19.828 11.632,19.854 11.695,19.875C11.793,19.908 11.877,19.958 11.942,20.024C12.047,20.129 12.091,20.232 12.1,20.325C12.142,20.326 12.182,20.329 12.21,20.334C12.327,20.355 12.424,20.403 12.501,20.474C12.521,20.482 12.604,20.52 12.647,20.541C12.721,20.578 12.787,20.623 12.843,20.678C12.871,20.707 12.903,20.757 12.93,20.804C12.965,20.809 13,20.815 13.023,20.821C13.116,20.847 13.193,20.892 13.252,20.951C13.265,20.964 13.377,21.068 13.429,21.135C13.483,21.203 13.509,21.269 13.521,21.312C13.567,21.489 13.504,21.617 13.416,21.706C13.316,21.805 13.146,21.872 12.939,21.823C12.755,21.78 12.522,21.621 12.498,21.597C12.429,21.528 12.315,21.414 12.185,21.317C12.11,21.261 12.036,21.195 11.961,21.195C11.871,21.195 11.788,21.165 11.721,21.115C11.602,21.093 11.506,21.041 11.433,20.969C11.364,20.9 11.304,20.822 11.238,20.75C11.209,20.737 11.178,20.723 11.161,20.712C11.099,20.673 11.058,20.627 11.032,20.588C11.017,20.567 11.005,20.545 10.996,20.523C10.958,20.521 10.922,20.518 10.9,20.512C10.817,20.49 10.749,20.449 10.697,20.396C10.637,20.336 10.593,20.263 10.566,20.176C10.556,20.143 10.545,20.086 10.538,20.04Z" style="fill:rgb(238,178,126);"/>
        <path d="M24.202,17.502C24.238,17.443 24.293,17.386 24.367,17.343C24.437,17.302 24.535,17.276 24.561,17.27C24.564,17.269 24.566,17.269 24.566,17.269C24.735,17.233 24.907,17.309 24.993,17.458C25.08,17.607 25.061,17.795 24.947,17.923C24.947,17.923 24.795,18.103 24.712,18.186C24.665,18.233 24.607,18.272 24.539,18.3C24.484,18.376 24.432,18.453 24.371,18.52C24.26,18.64 24.131,18.741 23.955,18.798L23.933,18.844C23.894,18.926 23.845,18.999 23.785,19.059C23.504,19.34 23.192,19.488 22.912,19.768C22.822,19.858 22.688,19.926 22.537,19.972C22.478,19.99 22.374,20.023 22.348,20.031C22.152,20.225 21.931,20.397 21.589,20.517C21.381,20.59 21.154,20.481 21.081,20.274C21.008,20.067 21.117,19.839 21.324,19.766C21.542,19.689 21.678,19.575 21.802,19.451C21.893,19.36 22.027,19.293 22.178,19.247C22.236,19.229 22.34,19.196 22.366,19.187C22.639,18.921 22.939,18.774 23.211,18.505L23.216,18.494C23.215,18.48 23.214,18.465 23.214,18.45C23.214,18.276 23.325,18.128 23.48,18.074C23.601,17.958 23.73,17.85 23.849,17.731C23.902,17.678 23.969,17.636 24.048,17.607C24.061,17.602 24.079,17.597 24.098,17.592C24.127,17.563 24.18,17.52 24.202,17.502Z" style="fill:rgb(238,178,126);"/>
        <path d="M19.226,21.029C19.367,20.916 19.586,20.772 19.783,20.686C19.93,20.621 20.069,20.589 20.174,20.589C20.394,20.589 20.572,20.768 20.572,20.987C20.572,21.203 20.401,21.379 20.187,21.386C20.176,21.39 20.088,21.421 20.036,21.447C19.898,21.518 19.754,21.617 19.692,21.679C19.632,21.738 19.553,21.784 19.455,21.806C19.427,21.813 19.377,21.817 19.337,21.819C19.294,21.847 19.246,21.871 19.196,21.891C19.153,21.908 19.074,21.935 19.044,21.945C18.985,22.009 18.934,22.081 18.873,22.142C18.832,22.184 18.64,22.311 18.57,22.356C18.507,22.492 18.369,22.587 18.209,22.587C17.989,22.587 17.811,22.408 17.811,22.188C17.811,22.083 17.847,21.967 17.935,21.86C18.018,21.76 18.275,21.596 18.322,21.566C18.385,21.5 18.437,21.425 18.501,21.361C18.568,21.293 18.654,21.241 18.751,21.203C18.796,21.185 18.88,21.156 18.907,21.147C18.963,21.098 19.034,21.061 19.12,21.042C19.145,21.036 19.188,21.032 19.226,21.029Z" style="fill:rgb(238,178,126);"/>
        <path d="M17.661,22.611C17.669,22.586 17.706,22.476 17.726,22.414C17.774,22.262 17.843,22.128 17.928,22.043C18.149,21.821 18.211,21.705 18.623,21.443C18.809,21.325 19.055,21.379 19.173,21.565C19.291,21.75 19.236,21.997 19.051,22.115C18.729,22.32 18.674,22.419 18.511,22.586C18.501,22.614 18.466,22.721 18.446,22.782C18.423,22.857 18.394,22.927 18.361,22.989C18.361,23.017 18.36,23.043 18.357,23.058C18.343,23.118 18.319,23.169 18.288,23.212C18.28,23.258 18.255,23.397 18.234,23.465C18.224,23.498 18.211,23.529 18.197,23.558C18.198,23.588 18.197,23.615 18.193,23.631C18.174,23.716 18.134,23.782 18.082,23.834C17.948,23.968 17.789,24.197 17.789,24.453C17.789,24.673 17.611,24.851 17.391,24.851C17.171,24.851 16.992,24.673 16.992,24.453C16.992,24.042 17.189,23.659 17.403,23.398C17.404,23.385 17.405,23.373 17.407,23.365C17.42,23.305 17.445,23.254 17.476,23.211C17.484,23.165 17.509,23.026 17.53,22.958C17.54,22.925 17.552,22.894 17.566,22.865C17.566,22.835 17.567,22.808 17.571,22.792C17.587,22.719 17.619,22.659 17.661,22.611Z" style="fill:rgb(238,178,126);"/>
        <path d="M18.278,21.753C18.305,21.558 18.471,21.408 18.673,21.408C18.893,21.408 19.072,21.586 19.072,21.806C19.072,21.99 18.924,22.239 18.796,22.381C18.771,22.442 18.695,22.62 18.627,22.688L18.122,23.193C18.093,23.232 17.948,23.419 17.868,23.491C17.792,23.56 17.716,23.596 17.656,23.613C17.642,23.661 17.627,23.71 17.61,23.753C17.568,23.855 17.513,23.939 17.454,23.998C17.429,24.023 17.385,24.062 17.313,24.089L17.303,24.12C17.289,24.158 17.273,24.191 17.257,24.22C17.255,24.276 17.25,24.403 17.239,24.462C17.233,24.493 17.225,24.522 17.215,24.549C17.216,24.586 17.215,24.621 17.211,24.641C17.196,24.705 17.17,24.758 17.135,24.803C17.125,24.841 17.096,24.952 17.075,25.008C17.049,25.074 17.015,25.133 16.973,25.184C16.94,25.249 16.899,25.319 16.868,25.343C16.774,25.417 16.669,25.443 16.557,25.428C16.486,25.418 16.401,25.391 16.318,25.308C16.258,25.248 16.212,25.169 16.194,25.068C16.189,25.043 16.188,24.998 16.188,24.958C16.152,24.9 16.123,24.837 16.097,24.771L16.096,24.769C16.062,24.776 16.027,24.778 15.992,24.777C15.902,24.773 15.788,24.738 15.688,24.633C15.64,24.582 15.566,24.445 15.534,24.382C15.438,24.266 15.375,24.118 15.331,23.958C15.313,23.892 15.297,23.823 15.276,23.757C15.264,23.716 15.256,23.673 15.226,23.643C15.108,23.525 15.017,23.379 14.899,23.261C14.864,23.226 14.825,23.151 14.796,23.09C14.546,22.937 14.246,22.652 14.016,22.345C13.943,22.248 13.935,22.165 13.932,22.116C13.927,21.996 13.968,21.905 14.032,21.832C14.081,21.778 14.148,21.729 14.244,21.707C14.278,21.699 14.321,21.693 14.374,21.698C14.395,21.7 14.471,21.722 14.515,21.735C14.612,21.734 14.75,21.733 14.834,21.756C14.93,21.782 15.002,21.829 15.053,21.879C15.119,21.945 15.221,21.958 15.321,21.988C15.446,22.025 15.573,22.065 15.692,22.122C15.723,22.128 15.895,22.164 15.982,22.195C16.072,22.228 16.148,22.273 16.205,22.323C16.243,22.257 16.283,22.198 16.313,22.171C16.417,22.078 16.528,22.052 16.62,22.054C16.674,22.056 16.728,22.066 16.781,22.09C16.806,22.052 16.833,22.018 16.863,21.988C16.909,21.943 16.954,21.897 17,21.852C17.137,21.715 17.28,21.691 17.416,21.726C17.463,21.558 17.617,21.435 17.8,21.435C18.02,21.435 18.198,21.613 18.198,21.833C18.198,21.84 18.198,21.847 18.198,21.855L18.2,21.852C18.221,21.831 18.263,21.774 18.278,21.753Z" style="fill:rgb(238,178,126);"/>
        <path d="M17.222,27.395L17.143,27.557C17.058,27.72 16.873,27.803 16.695,27.76C16.517,27.716 16.392,27.556 16.392,27.373L16.392,27.182C16.392,27.061 16.419,27.03 16.419,26.909C16.419,26.689 16.598,26.51 16.818,26.51C16.903,26.51 16.983,26.537 17.048,26.584C17.174,26.624 17.272,26.724 17.309,26.851C17.309,26.851 17.31,26.853 17.311,26.857C17.32,26.889 17.348,27.014 17.341,27.111C17.332,27.229 17.284,27.326 17.222,27.395Z" style="fill:rgb(238,178,126);"/>
        <path d="M16.584,29.524C16.71,29.435 16.875,29.41 17.001,29.44C17.213,29.491 17.317,29.654 17.336,29.804C17.349,29.903 17.339,30.035 17.209,30.165C17.185,30.189 17.087,30.279 16.989,30.339C16.912,30.385 16.833,30.414 16.767,30.425C16.606,30.451 16.473,30.402 16.372,30.301C16.307,30.236 16.267,30.156 16.254,30.061C16.248,30.018 16.269,29.925 16.287,29.856C16.309,29.694 16.428,29.563 16.584,29.524ZM17.186,29.954L17.185,29.965L17.186,29.954ZM17.188,29.934L17.187,29.949L17.187,29.944L17.188,29.934ZM17.188,29.93C17.189,29.923 17.189,29.917 17.189,29.91L17.188,29.93Z" style="fill:rgb(238,178,126);"/>
        <path d="M16.256,31.275L16.256,31.82C16.256,32.04 16.434,32.219 16.654,32.219C16.874,32.219 17.052,32.04 17.052,31.82L17.052,31.275C17.052,31.055 16.874,30.876 16.654,30.876C16.434,30.876 16.256,31.055 16.256,31.275Z" style="fill:rgb(238,178,126);"/>
        <path d="M16.442,28.593C16.444,28.545 16.449,28.493 16.456,28.46C16.504,28.245 16.717,28.109 16.931,28.157C17.142,28.204 17.277,28.41 17.236,28.621C17.236,28.638 17.237,28.792 17.224,28.863C17.207,28.949 17.175,29.027 17.124,29.095C17.12,29.109 17.116,29.119 17.113,29.124C17.042,29.248 16.944,29.29 16.881,29.31C16.744,29.351 16.606,29.335 16.481,29.21C16.34,29.068 16.341,28.93 16.363,28.824C16.373,28.776 16.391,28.729 16.418,28.687L16.419,28.681L16.419,28.655L16.426,28.655L16.442,28.593ZM16.441,28.617L16.432,28.655L16.439,28.655L16.44,28.654L16.441,28.622L16.441,28.617ZM17.053,28.655L17.045,28.646C16.956,28.557 16.856,28.529 16.761,28.53C16.741,28.53 16.656,28.591 16.573,28.655L17.053,28.655Z" style="fill:rgb(238,178,126);"/>
        <path d="M16.831,25.175C16.845,25.174 16.858,25.173 16.872,25.173C17.092,25.173 17.271,25.352 17.271,25.572C17.271,25.94 16.995,26.039 16.832,26.04C16.669,26.04 16.392,25.941 16.392,25.572C16.392,25.352 16.571,25.173 16.79,25.173C16.804,25.173 16.818,25.174 16.831,25.175Z" style="fill:rgb(238,178,126);"/>
        <path d="M16.998,33.345L16.998,33.348C16.998,33.568 16.819,33.747 16.599,33.747C16.38,33.747 16.201,33.568 16.201,33.348C16.201,33.127 16.284,32.894 16.453,32.776C16.633,32.65 16.882,32.694 17.008,32.874C17.11,33.02 17.1,33.21 16.998,33.345Z" style="fill:rgb(238,178,126);"/>
        <path d="M16.209,34.491C16.224,34.565 16.256,34.637 16.256,34.713C16.256,34.933 16.434,35.111 16.654,35.111C16.874,35.111 17.052,34.933 17.052,34.713C17.052,34.585 17.015,34.46 16.99,34.335C16.947,34.119 16.737,33.979 16.521,34.022C16.306,34.065 16.166,34.275 16.209,34.491Z" style="fill:rgb(238,178,126);"/>
        <path d="M16.201,35.613L16.201,35.668C16.201,35.888 16.38,36.066 16.599,36.066C16.819,36.066 16.998,35.888 16.998,35.668L16.998,35.613C16.998,35.393 16.819,35.215 16.599,35.215C16.38,35.215 16.201,35.393 16.201,35.613Z" style="fill:rgb(238,178,126);"/>
        <path d="M16.654,36.883C16.672,36.881 16.69,36.879 16.709,36.879C16.928,36.879 17.107,37.058 17.107,37.278C17.107,37.409 17.11,37.49 17.141,37.548C17.17,37.603 17.22,37.631 17.273,37.676C17.328,37.723 17.388,37.776 17.454,37.842C17.564,37.952 17.638,38.12 17.683,38.309C17.703,38.393 17.74,38.541 17.748,38.574C17.833,38.664 17.935,38.796 18.06,38.859C18.112,38.885 18.176,38.895 18.228,38.919C18.297,38.951 18.358,38.992 18.409,39.043C18.544,39.178 18.617,39.36 18.764,39.506C18.851,39.593 18.931,39.794 18.955,39.86C19.033,39.931 19.136,40.001 19.229,40.073C19.246,40.074 19.26,40.075 19.27,40.077C19.333,40.091 19.385,40.117 19.429,40.15C19.494,40.174 19.7,40.251 19.774,40.325C20.048,40.599 20.19,40.92 20.456,41.198C20.495,41.205 20.606,41.224 20.669,41.234C20.859,41.266 21.027,41.333 21.138,41.444C21.356,41.662 21.593,41.872 21.804,42.083C21.832,42.089 21.962,42.116 22.033,42.129C22.222,42.163 22.388,42.23 22.502,42.344C22.925,42.767 23.391,43.054 23.8,43.451C23.88,43.477 24.091,43.551 24.167,43.627C24.192,43.652 24.218,43.697 24.242,43.744C24.259,43.748 24.274,43.754 24.285,43.759C24.376,43.804 24.437,43.869 24.475,43.939C24.512,44.007 24.532,44.084 24.525,44.171C24.52,44.242 24.499,44.349 24.385,44.463C24.355,44.493 24.304,44.538 24.215,44.564C24.188,44.573 24.084,44.587 23.981,44.587C23.877,44.587 23.773,44.573 23.746,44.564C23.701,44.551 23.666,44.533 23.638,44.514C23.588,44.51 23.415,44.498 23.339,44.498L14.526,44.498C14.487,44.498 14.301,44.486 14.222,44.481C14.17,44.503 14.11,44.518 14.043,44.523C13.984,44.526 13.861,44.513 13.793,44.505C13.763,44.519 13.731,44.53 13.695,44.539C13.581,44.566 13.38,44.553 13.27,44.553C13.037,44.553 12.702,44.58 12.425,44.58L10.187,44.58C9.997,44.58 9.83,44.555 9.668,44.553C9.595,44.637 9.488,44.688 9.371,44.689C9.194,44.69 9.036,44.574 8.986,44.403C8.986,44.403 8.985,44.399 8.983,44.392C8.968,44.341 8.92,44.142 8.932,43.985C8.94,43.882 8.971,43.791 9.016,43.718C9.039,43.632 9.074,43.53 9.114,43.49C9.191,43.413 9.255,43.322 9.332,43.245C9.431,43.146 9.578,43.076 9.745,43.03C9.817,43.01 9.95,42.968 9.971,42.961C10.073,42.862 10.2,42.79 10.338,42.735C10.465,42.684 10.605,42.653 10.718,42.597C10.768,42.572 10.8,42.523 10.843,42.482C10.906,42.424 10.973,42.369 11.052,42.323C11.064,42.282 11.092,42.194 11.109,42.143C11.15,42.022 11.21,41.913 11.297,41.826C11.347,41.776 11.411,41.735 11.492,41.71C11.535,41.697 11.633,41.69 11.698,41.687C11.752,41.65 11.811,41.62 11.871,41.596C11.926,41.574 12.024,41.542 12.056,41.531C12.334,41.265 12.729,41.097 13.132,40.938C13.44,40.816 13.756,40.704 13.971,40.489C14.012,40.448 14.147,40.4 14.235,40.372C14.269,40.346 14.308,40.322 14.351,40.299C14.404,40.271 14.476,40.257 14.517,40.216C14.626,40.106 14.703,40.009 14.796,39.911L14.805,39.885L14.817,39.854C14.814,39.82 14.809,39.749 14.809,39.734C14.809,39.583 14.837,39.476 14.837,39.352C14.837,39.355 14.837,39.366 14.837,39.366C14.837,39.366 14.83,39.118 14.848,39.058C14.872,38.975 14.915,38.918 14.953,38.879C15.105,38.728 15.34,38.563 15.494,38.419C15.503,38.371 15.527,38.242 15.543,38.175C15.558,38.115 15.577,38.06 15.601,38.01C15.6,37.97 15.6,37.932 15.605,37.911C15.624,37.825 15.665,37.758 15.717,37.706C15.817,37.605 15.945,37.533 16.045,37.433C16.074,37.403 16.117,37.37 16.158,37.337C16.164,37.284 16.174,37.221 16.184,37.19C16.205,37.126 16.235,37.074 16.269,37.034C16.353,36.933 16.462,36.879 16.599,36.879C16.618,36.879 16.636,36.881 16.654,36.883ZM16.535,38.062C16.49,38.099 16.443,38.133 16.397,38.169C16.396,38.181 16.395,38.192 16.393,38.2C16.379,38.263 16.353,38.317 16.319,38.361C16.311,38.411 16.279,38.589 16.251,38.675C16.216,38.786 16.161,38.88 16.09,38.951C15.971,39.07 15.785,39.205 15.633,39.336L15.633,39.352C15.633,39.476 15.606,39.583 15.606,39.734C15.606,39.73 15.606,39.72 15.606,39.72C15.606,39.72 15.612,39.967 15.595,40.028C15.584,40.065 15.569,40.097 15.553,40.125C15.527,40.203 15.469,40.363 15.408,40.425C15.292,40.54 15.208,40.651 15.08,40.779C15.014,40.846 14.928,40.901 14.836,40.947C14.792,40.97 14.71,41.011 14.71,41.011C14.71,41.011 14.713,41.009 14.716,41.006C14.665,41.048 14.55,41.09 14.467,41.116C14.184,41.367 13.806,41.529 13.424,41.679C13.117,41.801 12.805,41.909 12.597,42.116C12.527,42.187 12.44,42.238 12.341,42.276L12.153,42.342C12.091,42.401 12.008,42.447 11.905,42.468C11.888,42.471 11.866,42.474 11.841,42.476L11.832,42.505C11.812,42.571 11.79,42.635 11.762,42.694C11.696,42.828 11.601,42.938 11.457,43.01C11.399,43.038 11.363,43.089 11.32,43.129C11.245,43.201 11.166,43.264 11.075,43.31C10.977,43.359 10.865,43.396 10.752,43.433C10.67,43.46 10.581,43.477 10.523,43.535C10.419,43.639 10.27,43.71 10.105,43.758L10.035,43.778C10.084,43.781 10.135,43.783 10.187,43.783L12.425,43.783C12.702,43.783 13.037,43.756 13.27,43.756C13.317,43.756 13.43,43.759 13.486,43.761C13.546,43.73 13.617,43.709 13.699,43.704C13.76,43.7 13.89,43.714 13.956,43.722C13.998,43.705 14.047,43.692 14.103,43.686C14.222,43.674 14.464,43.701 14.526,43.701L22.881,43.701C22.577,43.452 22.259,43.224 21.961,42.93L21.732,42.886C21.545,42.85 21.377,42.782 21.257,42.662C21.05,42.455 20.818,42.249 20.603,42.035C20.565,42.028 20.453,42.009 20.389,41.998C20.198,41.967 20.03,41.9 19.92,41.789C19.647,41.516 19.505,41.199 19.244,40.923C19.212,40.912 19.16,40.892 19.105,40.867C19.065,40.868 19.025,40.868 19.004,40.863C18.919,40.844 18.853,40.804 18.801,40.752C18.677,40.628 18.48,40.513 18.364,40.397C18.284,40.317 18.198,40.099 18.179,40.047C18.057,39.916 17.986,39.761 17.875,39.637C17.833,39.623 17.748,39.594 17.704,39.572C17.492,39.466 17.303,39.254 17.164,39.115C17.06,39.011 16.987,38.846 16.943,38.655C16.924,38.571 16.884,38.421 16.876,38.391C16.735,38.251 16.622,38.163 16.535,38.062Z" style="fill:rgb(238,178,126);"/>
        <path d="M16.168,38.412C16.177,38.328 16.214,38.246 16.29,38.169C16.373,38.087 16.474,38.046 16.595,38.053C16.647,38.056 16.78,38.067 16.893,38.211C16.902,38.222 16.917,38.246 16.935,38.278L16.936,38.279C16.97,38.313 17.022,38.331 17.068,38.358C17.148,38.405 17.224,38.458 17.29,38.524C17.501,38.735 17.671,39.041 17.918,39.288C17.988,39.358 18.052,39.468 18.103,39.594C18.125,39.648 18.168,39.746 18.177,39.765C18.263,39.855 18.34,39.957 18.411,40.062C18.47,40.041 18.54,40.033 18.623,40.047C18.677,40.056 18.774,40.092 18.877,40.158C18.953,40.207 19.04,40.273 19.106,40.326C19.137,40.331 19.171,40.338 19.191,40.344C19.22,40.353 19.247,40.363 19.272,40.376C19.326,40.384 19.412,40.398 19.451,40.413C19.506,40.435 19.553,40.464 19.591,40.498C19.624,40.518 19.888,40.673 19.989,40.786C20.092,40.9 20.145,41.03 20.149,41.163C20.152,41.258 20.134,41.363 20.066,41.471C20.112,41.492 20.15,41.52 20.183,41.553C20.293,41.663 20.461,41.68 20.603,41.722C20.794,41.779 20.964,41.854 21.088,41.968C21.12,41.978 21.255,42.02 21.323,42.044C21.401,42.071 21.469,42.105 21.525,42.145L21.569,42.15C21.73,42.173 21.856,42.291 21.896,42.441C21.957,42.442 22.014,42.446 22.059,42.456C22.11,42.468 22.155,42.485 22.194,42.505C22.257,42.508 22.368,42.516 22.413,42.529C22.498,42.554 22.563,42.596 22.611,42.644C22.706,42.739 22.729,42.839 22.73,42.925C22.731,43.027 22.7,43.133 22.601,43.225C22.572,43.252 22.526,43.287 22.457,43.312C22.692,43.329 22.952,43.319 23.121,43.319C23.341,43.319 23.519,43.498 23.519,43.717C23.519,43.937 23.341,44.116 23.121,44.116C22.76,44.116 22.094,44.104 21.744,43.962C21.686,43.962 21.559,43.96 21.459,43.94C21.415,43.946 21.121,43.988 21.016,43.972C20.956,43.963 20.902,43.945 20.856,43.921C20.809,43.923 20.729,43.925 20.692,43.925L18.4,43.925C18.187,43.925 17.871,43.931 17.655,43.863C17.58,43.873 17.376,43.899 17.296,43.886C17.253,43.88 17.214,43.869 17.179,43.854C17.112,43.856 17.01,43.857 16.964,43.845C16.939,43.838 16.914,43.83 16.892,43.82C16.808,43.818 16.683,43.809 16.612,43.774C16.548,43.742 16.462,43.738 16.373,43.734C16.229,43.727 16.078,43.734 15.945,43.734C15.343,43.734 14.791,43.761 14.198,43.761C14.127,43.761 13.938,43.764 13.876,43.766C13.839,43.788 13.798,43.806 13.751,43.818C13.703,43.83 13.591,43.829 13.525,43.827L13.51,43.832C13.45,43.849 13.202,43.843 13.202,43.843C13.202,43.843 13.212,43.843 13.216,43.843C13.199,43.843 13.005,43.863 12.935,43.87C12.911,43.882 12.884,43.892 12.855,43.9C12.799,43.917 12.66,43.922 12.586,43.923C12.566,43.934 12.545,43.944 12.523,43.953C12.485,43.967 12.408,43.988 12.369,43.997C12.328,44.025 12.28,44.047 12.224,44.059C12.174,44.071 12.036,44.058 11.983,44.053C11.94,44.061 11.9,44.066 11.868,44.07C11.76,44.112 11.625,44.134 11.48,44.135C11.326,44.137 11.155,44.116 11.033,44.116C10.948,44.116 10.567,44.152 10.478,44.146C10.318,44.135 10.236,44.057 10.205,44.027C10.068,43.889 10.051,43.741 10.094,43.595C10.111,43.537 10.184,43.446 10.238,43.384C10.341,43.21 10.528,43.047 10.718,42.952C10.996,42.813 11.305,42.604 11.591,42.461C11.735,42.389 11.92,42.34 12.096,42.289L12.126,42.28C12.147,42.263 12.169,42.246 12.19,42.23C12.187,42.205 12.186,42.177 12.186,42.148C12.186,42.069 12.199,41.99 12.205,41.969C12.232,41.88 12.277,41.828 12.307,41.799C12.731,41.374 13.408,41.213 14.179,41.174C14.158,41.122 14.147,41.058 14.155,40.98C14.156,40.961 14.165,40.899 14.198,40.824C14.234,40.738 14.311,40.613 14.353,40.571C14.402,40.522 14.493,40.448 14.582,40.369C14.623,40.332 14.67,40.3 14.688,40.265C14.748,40.144 14.854,40.032 14.975,39.933L15.162,39.781C15.272,39.565 15.467,39.271 15.65,39.084C15.657,39.062 15.686,38.974 15.718,38.894L15.713,38.855C15.691,38.675 15.793,38.502 15.962,38.435C16.029,38.409 16.1,38.402 16.168,38.412ZM14.591,40.614C14.501,40.6 14.388,40.618 14.271,40.734C14.325,40.68 14.397,40.637 14.49,40.617C14.512,40.613 14.551,40.612 14.591,40.614ZM14.579,40.654C14.574,40.656 14.569,40.658 14.566,40.66L14.579,40.654Z" style="fill:rgb(238,178,126);"/>
    </g>
    <g transform="matrix(1,0,0,1,138.246,49.3082)">
        <g transform="matrix(12,0,0,12,-85.4066,51.88)">
            <path d="M0.912,-0.435C0.912,-0.434 0.882,-0.368 0.821,-0.238C0.76,-0.105 0.725,-0.031 0.716,-0.014C0.713,-0.008 0.711,-0.005 0.71,-0.004C0.709,-0.003 0.706,-0.001 0.701,-0C0.693,0.002 0.67,0.003 0.632,0.003C0.596,0.003 0.575,0.002 0.567,-0C0.56,-0.002 0.556,-0.003 0.555,-0.004C0.554,-0.005 0.552,-0.008 0.549,-0.013C0.547,-0.017 0.538,-0.04 0.521,-0.082L0.468,-0.218L0.414,-0.081C0.408,-0.065 0.399,-0.042 0.386,-0.013C0.383,-0.008 0.381,-0.004 0.379,-0.003C0.378,-0.002 0.374,-0.001 0.368,-0C0.357,0.002 0.336,0.003 0.304,0.003C0.265,0.003 0.242,0.002 0.234,-0C0.228,-0.001 0.224,-0.006 0.22,-0.014C0.093,-0.276 0.029,-0.417 0.029,-0.435C0.029,-0.461 0.03,-0.5 0.031,-0.552C0.033,-0.604 0.034,-0.643 0.034,-0.669C0.034,-0.68 0.037,-0.685 0.044,-0.685C0.063,-0.685 0.091,-0.684 0.128,-0.683C0.166,-0.681 0.194,-0.68 0.213,-0.68C0.22,-0.68 0.224,-0.677 0.224,-0.671C0.224,-0.645 0.223,-0.606 0.22,-0.553C0.218,-0.5 0.217,-0.461 0.217,-0.435C0.217,-0.425 0.229,-0.394 0.252,-0.342C0.274,-0.295 0.29,-0.263 0.299,-0.247C0.304,-0.238 0.307,-0.234 0.309,-0.234C0.312,-0.234 0.318,-0.25 0.329,-0.281C0.36,-0.368 0.375,-0.42 0.376,-0.436C0.377,-0.466 0.377,-0.504 0.376,-0.55C0.375,-0.617 0.375,-0.655 0.375,-0.665C0.375,-0.671 0.375,-0.675 0.376,-0.676C0.377,-0.677 0.381,-0.678 0.387,-0.679C0.404,-0.681 0.432,-0.682 0.473,-0.682C0.535,-0.682 0.566,-0.678 0.566,-0.669C0.566,-0.647 0.566,-0.613 0.564,-0.567C0.562,-0.523 0.562,-0.489 0.562,-0.466L0.562,-0.441C0.562,-0.424 0.579,-0.371 0.612,-0.282C0.624,-0.251 0.631,-0.236 0.633,-0.236C0.634,-0.236 0.638,-0.24 0.643,-0.249C0.652,-0.264 0.666,-0.296 0.687,-0.343C0.709,-0.395 0.72,-0.425 0.72,-0.435C0.72,-0.461 0.719,-0.501 0.717,-0.553C0.714,-0.606 0.713,-0.645 0.713,-0.671C0.713,-0.677 0.717,-0.68 0.724,-0.68C0.743,-0.68 0.772,-0.681 0.811,-0.683C0.849,-0.684 0.878,-0.685 0.897,-0.685C0.904,-0.685 0.907,-0.679 0.907,-0.666C0.907,-0.64 0.908,-0.601 0.909,-0.55C0.911,-0.499 0.912,-0.46 0.912,-0.435Z" style="fill:white;fill-rule:nonzero;"/>
        </g>
        <g transform="matrix(12,0,0,12,-74.1391,51.88)">
            <path d="M0.532,-0.244C0.532,-0.219 0.534,-0.182 0.537,-0.132C0.54,-0.083 0.541,-0.046 0.541,-0.021C0.541,-0.008 0.535,-0.001 0.524,-0C0.484,0.003 0.437,0.004 0.385,0.004C0.379,0.004 0.375,-0.005 0.373,-0.024C0.371,-0.042 0.368,-0.052 0.365,-0.052C0.363,-0.051 0.359,-0.048 0.355,-0.044C0.319,-0.007 0.279,0.011 0.238,0.011C0.174,0.011 0.122,-0.014 0.08,-0.064C0.041,-0.111 0.021,-0.167 0.021,-0.232C0.021,-0.307 0.041,-0.368 0.082,-0.414C0.124,-0.461 0.182,-0.485 0.256,-0.485C0.307,-0.485 0.347,-0.467 0.377,-0.431C0.378,-0.43 0.379,-0.429 0.38,-0.429C0.383,-0.429 0.387,-0.437 0.39,-0.452C0.394,-0.468 0.399,-0.476 0.404,-0.476C0.416,-0.476 0.439,-0.473 0.473,-0.466C0.505,-0.459 0.528,-0.454 0.542,-0.449C0.547,-0.447 0.549,-0.445 0.549,-0.441C0.549,-0.44 0.549,-0.437 0.548,-0.431C0.537,-0.372 0.532,-0.31 0.532,-0.244ZM0.375,-0.241C0.375,-0.269 0.366,-0.292 0.349,-0.31C0.331,-0.328 0.309,-0.337 0.281,-0.337C0.253,-0.337 0.23,-0.328 0.213,-0.31C0.196,-0.292 0.187,-0.269 0.187,-0.241C0.187,-0.215 0.196,-0.192 0.214,-0.173C0.233,-0.154 0.255,-0.145 0.281,-0.145C0.308,-0.145 0.331,-0.154 0.349,-0.172C0.366,-0.19 0.375,-0.213 0.375,-0.241Z" style="fill:white;fill-rule:nonzero;"/>
        </g>
        <g transform="matrix(12,0,0,12,-67.0844,51.88)">
            <path d="M0.235,-0.587C0.235,-0.53 0.203,-0.502 0.139,-0.502C0.112,-0.502 0.089,-0.509 0.071,-0.523C0.052,-0.539 0.042,-0.56 0.042,-0.587C0.042,-0.612 0.052,-0.633 0.072,-0.649C0.091,-0.664 0.113,-0.672 0.139,-0.672C0.165,-0.672 0.187,-0.664 0.205,-0.649C0.225,-0.633 0.235,-0.612 0.235,-0.587ZM0.222,-0.224C0.222,-0.2 0.223,-0.165 0.224,-0.118C0.225,-0.071 0.225,-0.036 0.225,-0.012C0.225,-0.005 0.221,-0.001 0.213,-0C0.202,0.002 0.177,0.003 0.138,0.003C0.099,0.003 0.074,0.002 0.063,-0C0.056,-0.001 0.051,-0.003 0.05,-0.006C0.049,-0.008 0.049,-0.013 0.049,-0.021C0.049,-0.043 0.049,-0.077 0.05,-0.122C0.051,-0.167 0.052,-0.201 0.052,-0.224C0.052,-0.317 0.048,-0.39 0.041,-0.445C0.04,-0.45 0.04,-0.453 0.04,-0.455C0.04,-0.462 0.044,-0.465 0.053,-0.465C0.062,-0.465 0.076,-0.464 0.095,-0.462C0.114,-0.46 0.128,-0.459 0.137,-0.459C0.147,-0.459 0.161,-0.46 0.18,-0.461C0.199,-0.463 0.213,-0.464 0.222,-0.464C0.23,-0.464 0.234,-0.461 0.234,-0.454C0.234,-0.453 0.234,-0.45 0.233,-0.445C0.226,-0.381 0.222,-0.308 0.222,-0.224Z" style="fill:white;fill-rule:nonzero;"/>
        </g>
        <g transform="matrix(12,0,0,12,-63.7855,51.88)">
            <path d="M0.368,-0.143C0.368,-0.133 0.367,-0.118 0.365,-0.099C0.362,-0.079 0.361,-0.064 0.361,-0.055C0.361,-0.046 0.36,-0.04 0.358,-0.037C0.356,-0.035 0.351,-0.031 0.342,-0.026C0.3,-0.003 0.253,0.009 0.202,0.009C0.108,0.009 0.061,-0.027 0.061,-0.099C0.061,-0.121 0.062,-0.153 0.063,-0.196C0.065,-0.239 0.066,-0.271 0.066,-0.293C0.066,-0.307 0.058,-0.314 0.041,-0.314L0.035,-0.314C0.032,-0.314 0.03,-0.314 0.028,-0.314C0.016,-0.314 0.01,-0.318 0.01,-0.327C0.01,-0.332 0.01,-0.34 0.011,-0.351C0.012,-0.362 0.012,-0.37 0.012,-0.375C0.012,-0.382 0.012,-0.392 0.011,-0.406C0.01,-0.42 0.01,-0.431 0.01,-0.438C0.01,-0.444 0.02,-0.448 0.041,-0.448C0.053,-0.449 0.059,-0.452 0.06,-0.458C0.062,-0.47 0.063,-0.49 0.062,-0.517C0.061,-0.559 0.06,-0.579 0.06,-0.577C0.06,-0.614 0.064,-0.633 0.071,-0.633C0.08,-0.633 0.092,-0.631 0.108,-0.627C0.127,-0.623 0.14,-0.621 0.147,-0.62C0.164,-0.618 0.189,-0.615 0.222,-0.611C0.23,-0.61 0.234,-0.607 0.234,-0.603C0.234,-0.59 0.233,-0.57 0.231,-0.543C0.229,-0.517 0.228,-0.497 0.228,-0.484C0.228,-0.468 0.233,-0.46 0.242,-0.46C0.254,-0.46 0.271,-0.46 0.294,-0.461C0.317,-0.462 0.334,-0.463 0.346,-0.463C0.353,-0.463 0.357,-0.46 0.357,-0.456C0.357,-0.448 0.356,-0.437 0.354,-0.422C0.353,-0.407 0.352,-0.396 0.352,-0.388L0.353,-0.32C0.353,-0.313 0.348,-0.31 0.339,-0.31L0.273,-0.311L0.237,-0.311C0.232,-0.311 0.229,-0.304 0.229,-0.29L0.229,-0.255C0.23,-0.239 0.23,-0.228 0.23,-0.22C0.23,-0.193 0.233,-0.174 0.239,-0.164C0.248,-0.15 0.265,-0.143 0.291,-0.143C0.299,-0.143 0.311,-0.144 0.326,-0.148C0.341,-0.152 0.352,-0.154 0.358,-0.154C0.365,-0.154 0.368,-0.15 0.368,-0.143Z" style="fill:white;fill-rule:nonzero;"/>
        </g>
        <g transform="matrix(12,0,0,12,-59.2504,51.88)">
            <path d="M0.219,-0.294C0.219,-0.205 0.22,-0.137 0.22,-0.089C0.22,-0.082 0.221,-0.069 0.222,-0.051C0.223,-0.034 0.223,-0.021 0.223,-0.012C0.223,-0.005 0.219,-0.001 0.211,-0C0.196,0.003 0.17,0.004 0.132,0.004C0.093,0.004 0.068,0.003 0.057,-0C0.05,-0.002 0.046,-0.006 0.045,-0.013L0.045,-0.034C0.045,-0.063 0.045,-0.107 0.046,-0.164C0.047,-0.222 0.047,-0.265 0.047,-0.294C0.047,-0.431 0.047,-0.493 0.047,-0.481C0.046,-0.553 0.042,-0.615 0.035,-0.667C0.035,-0.671 0.034,-0.673 0.034,-0.675C0.034,-0.682 0.038,-0.686 0.047,-0.686L0.221,-0.686C0.229,-0.686 0.233,-0.683 0.232,-0.676L0.232,-0.667C0.223,-0.526 0.219,-0.402 0.219,-0.294Z" style="fill:white;fill-rule:nonzero;"/>
        </g>
        <g transform="matrix(12,0,0,12,-56.0453,51.88)">
            <path d="M0.235,-0.587C0.235,-0.53 0.203,-0.502 0.139,-0.502C0.112,-0.502 0.089,-0.509 0.071,-0.523C0.052,-0.539 0.042,-0.56 0.042,-0.587C0.042,-0.612 0.052,-0.633 0.072,-0.649C0.091,-0.664 0.113,-0.672 0.139,-0.672C0.165,-0.672 0.187,-0.664 0.205,-0.649C0.225,-0.633 0.235,-0.612 0.235,-0.587ZM0.222,-0.224C0.222,-0.2 0.223,-0.165 0.224,-0.118C0.225,-0.071 0.225,-0.036 0.225,-0.012C0.225,-0.005 0.221,-0.001 0.213,-0C0.202,0.002 0.177,0.003 0.138,0.003C0.099,0.003 0.074,0.002 0.063,-0C0.056,-0.001 0.051,-0.003 0.05,-0.006C0.049,-0.008 0.049,-0.013 0.049,-0.021C0.049,-0.043 0.049,-0.077 0.05,-0.122C0.051,-0.167 0.052,-0.201 0.052,-0.224C0.052,-0.317 0.048,-0.39 0.041,-0.445C0.04,-0.45 0.04,-0.453 0.04,-0.455C0.04,-0.462 0.044,-0.465 0.053,-0.465C0.062,-0.465 0.076,-0.464 0.095,-0.462C0.114,-0.46 0.128,-0.459 0.137,-0.459C0.147,-0.459 0.161,-0.46 0.18,-0.461C0.199,-0.463 0.213,-0.464 0.222,-0.464C0.23,-0.464 0.234,-0.461 0.234,-0.454C0.234,-0.453 0.234,-0.45 0.233,-0.445C0.226,-0.381 0.222,-0.308 0.222,-0.224Z" style="fill:white;fill-rule:nonzero;"/>
        </g>
        <g transform="matrix(12,0,0,12,-52.7465,51.88)">
            <path d="M0.327,-0.395C0.327,-0.392 0.325,-0.387 0.32,-0.382C0.311,-0.384 0.302,-0.385 0.292,-0.385C0.273,-0.385 0.257,-0.381 0.244,-0.373C0.229,-0.363 0.221,-0.349 0.221,-0.331C0.221,-0.32 0.229,-0.305 0.246,-0.288C0.271,-0.261 0.286,-0.243 0.292,-0.234C0.309,-0.21 0.317,-0.183 0.317,-0.155C0.317,-0.138 0.314,-0.121 0.307,-0.102C0.3,-0.082 0.29,-0.067 0.279,-0.057C0.255,-0.036 0.227,-0.019 0.194,-0.004C0.16,0.011 0.127,0.018 0.098,0.018C0.092,0.018 0.077,0 0.054,-0.035C0.032,-0.07 0.021,-0.092 0.021,-0.1C0.021,-0.103 0.022,-0.104 0.026,-0.105C0.049,-0.109 0.072,-0.113 0.095,-0.118C0.123,-0.127 0.138,-0.142 0.138,-0.163C0.138,-0.177 0.129,-0.194 0.113,-0.212C0.083,-0.245 0.068,-0.263 0.066,-0.265C0.05,-0.288 0.042,-0.313 0.042,-0.339C0.042,-0.388 0.066,-0.429 0.116,-0.463C0.16,-0.494 0.207,-0.509 0.258,-0.509C0.263,-0.509 0.276,-0.491 0.296,-0.456C0.317,-0.421 0.327,-0.401 0.327,-0.395Z" style="fill:white;fill-rule:nonzero;"/>
        </g>
        <g transform="matrix(12,0,0,12,-48.475,51.88)">
            <path d="M0.368,-0.143C0.368,-0.133 0.367,-0.118 0.365,-0.099C0.362,-0.079 0.361,-0.064 0.361,-0.055C0.361,-0.046 0.36,-0.04 0.358,-0.037C0.356,-0.035 0.351,-0.031 0.342,-0.026C0.3,-0.003 0.253,0.009 0.202,0.009C0.108,0.009 0.061,-0.027 0.061,-0.099C0.061,-0.121 0.062,-0.153 0.063,-0.196C0.065,-0.239 0.066,-0.271 0.066,-0.293C0.066,-0.307 0.058,-0.314 0.041,-0.314L0.035,-0.314C0.032,-0.314 0.03,-0.314 0.028,-0.314C0.016,-0.314 0.01,-0.318 0.01,-0.327C0.01,-0.332 0.01,-0.34 0.011,-0.351C0.012,-0.362 0.012,-0.37 0.012,-0.375C0.012,-0.382 0.012,-0.392 0.011,-0.406C0.01,-0.42 0.01,-0.431 0.01,-0.438C0.01,-0.444 0.02,-0.448 0.041,-0.448C0.053,-0.449 0.059,-0.452 0.06,-0.458C0.062,-0.47 0.063,-0.49 0.062,-0.517C0.061,-0.559 0.06,-0.579 0.06,-0.577C0.06,-0.614 0.064,-0.633 0.071,-0.633C0.08,-0.633 0.092,-0.631 0.108,-0.627C0.127,-0.623 0.14,-0.621 0.147,-0.62C0.164,-0.618 0.189,-0.615 0.222,-0.611C0.23,-0.61 0.234,-0.607 0.234,-0.603C0.234,-0.59 0.233,-0.57 0.231,-0.543C0.229,-0.517 0.228,-0.497 0.228,-0.484C0.228,-0.468 0.233,-0.46 0.242,-0.46C0.254,-0.46 0.271,-0.46 0.294,-0.461C0.317,-0.462 0.334,-0.463 0.346,-0.463C0.353,-0.463 0.357,-0.46 0.357,-0.456C0.357,-0.448 0.356,-0.437 0.354,-0.422C0.353,-0.407 0.352,-0.396 0.352,-0.388L0.353,-0.32C0.353,-0.313 0.348,-0.31 0.339,-0.31L0.273,-0.311L0.237,-0.311C0.232,-0.311 0.229,-0.304 0.229,-0.29L0.229,-0.255C0.23,-0.239 0.23,-0.228 0.23,-0.22C0.23,-0.193 0.233,-0.174 0.239,-0.164C0.248,-0.15 0.265,-0.143 0.291,-0.143C0.299,-0.143 0.311,-0.144 0.326,-0.148C0.341,-0.152 0.352,-0.154 0.358,-0.154C0.365,-0.154 0.368,-0.15 0.368,-0.143Z" style="fill:white;fill-rule:nonzero;"/>
        </g>
    </g>
    <g transform="matrix(1,0,0,1,163.741,18.1618)">
        <g transform="matrix(12,0,0,12,-108.177,94.4382)">
            <path d="M0.63,-0.424C0.63,-0.345 0.609,-0.281 0.568,-0.232C0.524,-0.181 0.463,-0.155 0.385,-0.155C0.372,-0.155 0.352,-0.156 0.326,-0.157C0.3,-0.158 0.28,-0.159 0.267,-0.159C0.253,-0.159 0.246,-0.153 0.246,-0.141C0.246,-0.126 0.248,-0.104 0.25,-0.074C0.253,-0.045 0.255,-0.022 0.255,-0.008C0.255,-0 0.251,0.003 0.245,0.003C0.225,0.003 0.195,0.003 0.155,0.002C0.116,0.001 0.086,-0 0.066,-0C0.056,-0 0.052,-0.005 0.052,-0.014C0.052,-0.05 0.052,-0.105 0.053,-0.177C0.055,-0.249 0.055,-0.304 0.055,-0.34C0.055,-0.442 0.051,-0.549 0.042,-0.662L0.042,-0.669C0.041,-0.675 0.046,-0.679 0.056,-0.68C0.082,-0.683 0.138,-0.685 0.224,-0.685C0.275,-0.685 0.324,-0.684 0.371,-0.683C0.448,-0.681 0.51,-0.657 0.558,-0.61C0.606,-0.563 0.63,-0.501 0.63,-0.424ZM0.435,-0.416C0.435,-0.492 0.398,-0.53 0.324,-0.53C0.272,-0.53 0.245,-0.527 0.242,-0.521C0.24,-0.517 0.239,-0.479 0.239,-0.408C0.239,-0.398 0.239,-0.383 0.24,-0.364C0.241,-0.344 0.241,-0.329 0.241,-0.319C0.241,-0.312 0.271,-0.309 0.329,-0.309C0.4,-0.309 0.435,-0.345 0.435,-0.416Z" style="fill:white;fill-rule:nonzero;"/>
        </g>
        <g transform="matrix(12,0,0,12,-100.354,94.4382)">
            <path d="M0.511,-0.24C0.511,-0.166 0.489,-0.106 0.443,-0.06C0.398,-0.013 0.338,0.01 0.264,0.01C0.193,0.01 0.134,-0.013 0.087,-0.059C0.041,-0.104 0.018,-0.163 0.018,-0.234C0.018,-0.31 0.04,-0.371 0.084,-0.418C0.129,-0.465 0.189,-0.489 0.264,-0.489C0.338,-0.489 0.397,-0.466 0.443,-0.42C0.488,-0.374 0.511,-0.314 0.511,-0.24ZM0.351,-0.24C0.351,-0.266 0.343,-0.289 0.327,-0.308C0.311,-0.328 0.291,-0.338 0.265,-0.338C0.239,-0.338 0.218,-0.328 0.202,-0.308C0.186,-0.289 0.178,-0.266 0.178,-0.24C0.178,-0.214 0.186,-0.191 0.202,-0.172C0.218,-0.152 0.239,-0.142 0.265,-0.142C0.291,-0.142 0.312,-0.152 0.328,-0.172C0.343,-0.191 0.351,-0.214 0.351,-0.24Z" style="fill:white;fill-rule:nonzero;"/>
        </g>
        <g transform="matrix(12,0,0,12,-94.0086,94.4382)">
            <path d="M0.219,-0.294C0.219,-0.205 0.22,-0.137 0.22,-0.089C0.22,-0.082 0.221,-0.069 0.222,-0.051C0.223,-0.034 0.223,-0.021 0.223,-0.012C0.223,-0.005 0.219,-0.001 0.211,-0C0.196,0.003 0.17,0.004 0.132,0.004C0.093,0.004 0.068,0.003 0.057,-0C0.05,-0.002 0.046,-0.006 0.045,-0.013L0.045,-0.034C0.045,-0.063 0.045,-0.107 0.046,-0.164C0.047,-0.222 0.047,-0.265 0.047,-0.294C0.047,-0.431 0.047,-0.493 0.047,-0.481C0.046,-0.553 0.042,-0.615 0.035,-0.667C0.035,-0.671 0.034,-0.673 0.034,-0.675C0.034,-0.682 0.038,-0.686 0.047,-0.686L0.221,-0.686C0.229,-0.686 0.233,-0.683 0.232,-0.676L0.232,-0.667C0.223,-0.526 0.219,-0.402 0.219,-0.294Z" style="fill:white;fill-rule:nonzero;"/>
        </g>
        <g transform="matrix(12,0,0,12,-90.8036,94.4382)">
            <path d="M0.235,-0.587C0.235,-0.53 0.203,-0.502 0.139,-0.502C0.112,-0.502 0.089,-0.509 0.071,-0.523C0.052,-0.539 0.042,-0.56 0.042,-0.587C0.042,-0.612 0.052,-0.633 0.072,-0.649C0.091,-0.664 0.113,-0.672 0.139,-0.672C0.165,-0.672 0.187,-0.664 0.205,-0.649C0.225,-0.633 0.235,-0.612 0.235,-0.587ZM0.222,-0.224C0.222,-0.2 0.223,-0.165 0.224,-0.118C0.225,-0.071 0.225,-0.036 0.225,-0.012C0.225,-0.005 0.221,-0.001 0.213,-0C0.202,0.002 0.177,0.003 0.138,0.003C0.099,0.003 0.074,0.002 0.063,-0C0.056,-0.001 0.051,-0.003 0.05,-0.006C0.049,-0.008 0.049,-0.013 0.049,-0.021C0.049,-0.043 0.049,-0.077 0.05,-0.122C0.051,-0.167 0.052,-0.201 0.052,-0.224C0.052,-0.317 0.048,-0.39 0.041,-0.445C0.04,-0.45 0.04,-0.453 0.04,-0.455C0.04,-0.462 0.044,-0.465 0.053,-0.465C0.062,-0.465 0.076,-0.464 0.095,-0.462C0.114,-0.46 0.128,-0.459 0.137,-0.459C0.147,-0.459 0.161,-0.46 0.18,-0.461C0.199,-0.463 0.213,-0.464 0.222,-0.464C0.23,-0.464 0.234,-0.461 0.234,-0.454C0.234,-0.453 0.234,-0.45 0.233,-0.445C0.226,-0.381 0.222,-0.308 0.222,-0.224Z" style="fill:white;fill-rule:nonzero;"/>
        </g>
        <g transform="matrix(12,0,0,12,-87.5047,94.4382)">
            <path d="M0.365,-0.321C0.364,-0.321 0.355,-0.324 0.335,-0.329C0.316,-0.334 0.3,-0.337 0.288,-0.337C0.259,-0.337 0.236,-0.328 0.219,-0.311C0.201,-0.293 0.193,-0.27 0.193,-0.241C0.193,-0.211 0.202,-0.188 0.221,-0.171C0.24,-0.154 0.265,-0.145 0.295,-0.145C0.309,-0.145 0.325,-0.149 0.343,-0.156C0.361,-0.163 0.37,-0.167 0.369,-0.167C0.374,-0.167 0.381,-0.146 0.39,-0.105C0.398,-0.067 0.401,-0.042 0.401,-0.03C0.401,-0.017 0.381,-0.007 0.341,0.002C0.31,0.009 0.284,0.012 0.265,0.012C0.194,0.012 0.134,-0.012 0.088,-0.06C0.041,-0.108 0.018,-0.168 0.018,-0.24C0.018,-0.312 0.041,-0.372 0.088,-0.42C0.135,-0.469 0.194,-0.493 0.265,-0.493C0.314,-0.493 0.356,-0.483 0.393,-0.462C0.402,-0.457 0.406,-0.453 0.406,-0.449C0.406,-0.444 0.401,-0.425 0.391,-0.391C0.382,-0.358 0.376,-0.338 0.373,-0.332C0.371,-0.325 0.368,-0.321 0.365,-0.321Z" style="fill:white;fill-rule:nonzero;"/>
        </g>
        <g transform="matrix(12,0,0,12,-82.5125,94.4382)">
            <path d="M0.521,-0.348C0.521,-0.285 0.519,-0.247 0.515,-0.233C0.51,-0.217 0.475,-0.158 0.408,-0.056C0.398,-0.04 0.371,-0.003 0.328,0.055C0.28,0.118 0.253,0.152 0.246,0.156C0.238,0.161 0.188,0.163 0.096,0.163C0.082,0.163 0.073,0.161 0.068,0.158C0.064,0.145 0.058,0.129 0.052,0.111C0.047,0.099 0.041,0.088 0.036,0.076C0.029,0.059 0.025,0.048 0.025,0.042C0.025,0.036 0.028,0.033 0.033,0.033C0.124,0.033 0.169,0.013 0.169,-0.029C0.169,-0.032 0.147,-0.065 0.103,-0.126C0.057,-0.189 0.031,-0.229 0.027,-0.245C0.024,-0.255 0.023,-0.288 0.023,-0.346C0.023,-0.358 0.023,-0.376 0.024,-0.399C0.025,-0.423 0.025,-0.44 0.025,-0.452C0.025,-0.461 0.03,-0.465 0.041,-0.465C0.058,-0.465 0.083,-0.464 0.116,-0.463C0.15,-0.462 0.175,-0.462 0.192,-0.462C0.199,-0.462 0.202,-0.457 0.202,-0.447C0.202,-0.438 0.202,-0.424 0.201,-0.406C0.2,-0.387 0.199,-0.373 0.199,-0.364C0.199,-0.323 0.2,-0.295 0.201,-0.281C0.202,-0.269 0.212,-0.248 0.23,-0.217C0.25,-0.185 0.264,-0.169 0.273,-0.169C0.28,-0.169 0.293,-0.185 0.311,-0.217C0.328,-0.247 0.337,-0.267 0.338,-0.278C0.341,-0.306 0.343,-0.338 0.343,-0.371C0.343,-0.38 0.342,-0.393 0.34,-0.411C0.339,-0.429 0.338,-0.443 0.338,-0.452C0.338,-0.458 0.341,-0.461 0.348,-0.461C0.365,-0.461 0.39,-0.462 0.423,-0.463C0.456,-0.464 0.48,-0.465 0.497,-0.465C0.506,-0.465 0.511,-0.461 0.514,-0.452C0.519,-0.437 0.521,-0.403 0.521,-0.348Z" style="fill:white;fill-rule:nonzero;"/>
        </g>
    </g>
</svg>
